<?xml version="1.0" encoding="UTF-8"?>
<svg xmlns="http://www.w3.org/2000/svg" xmlns:xlink="http://www.w3.org/1999/xlink" viewBox="0 0 64.51 83.74">
  <defs>
    <style>
      .cls-1 {
        fill: url(#_ЕғЕҡГҒЕ»Еҫ_ЕӘЕӘЕ»ЕҘ_Е«Е—ЕЎЕӨЕҡЕӘГҡ_116-11);
      }

      .cls-1, .cls-2, .cls-3, .cls-4, .cls-5, .cls-6, .cls-7, .cls-8, .cls-9, .cls-10, .cls-11, .cls-12, .cls-13, .cls-14, .cls-15, .cls-16, .cls-17, .cls-18, .cls-19, .cls-20, .cls-21, .cls-22, .cls-23 {
        mix-blend-mode: multiply;
      }

      .cls-1, .cls-2, .cls-3, .cls-4, .cls-5, .cls-6, .cls-7, .cls-8, .cls-9, .cls-10, .cls-11, .cls-13, .cls-14, .cls-15, .cls-16, .cls-17, .cls-18, .cls-19, .cls-20, .cls-22, .cls-23 {
        opacity: .5;
      }

      .cls-2 {
        fill: url(#_ЕғЕҡГҒЕ»Еҫ_ЕӘЕӘЕ»ЕҘ_Е«Е—ЕЎЕӨЕҡЕӘГҡ_116-12);
      }

      .cls-3 {
        fill: url(#_ЕғЕҡГҒЕ»Еҫ_ЕӘЕӘЕ»ЕҘ_Е«Е—ЕЎЕӨЕҡЕӘГҡ_116-10);
      }

      .cls-24 {
        fill: #dbf2ff;
        mix-blend-mode: soft-light;
      }

      .cls-25 {
        fill: #ffd04d;
      }

      .cls-26 {
        fill: url(#_ЕғЕҡГҒЕ»Еҫ_ЕӘЕӘЕ»ЕҘ_Е«Е—ЕЎЕӨЕҡЕӘГҡ_20-2);
      }

      .cls-27 {
        fill: url(#_ЕғЕҡГҒЕ»Еҫ_ЕӘЕӘЕ»ЕҘ_Е«Е—ЕЎЕӨЕҡЕӘГҡ_34-5);
      }

      .cls-28 {
        fill: url(#_ЕғЕҡГҒЕ»Еҫ_ЕӘЕӘЕ»ЕҘ_Е«Е—ЕЎЕӨЕҡЕӘГҡ_34-4);
      }

      .cls-29 {
        fill: url(#_ЕғЕҡГҒЕ»Еҫ_ЕӘЕӘЕ»ЕҘ_Е«Е—ЕЎЕӨЕҡЕӘГҡ_34-3);
      }

      .cls-30 {
        fill: url(#_ЕғЕҡГҒЕ»Еҫ_ЕӘЕӘЕ»ЕҘ_Е«Е—ЕЎЕӨЕҡЕӘГҡ_34-2);
      }

      .cls-31 {
        isolation: isolate;
      }

      .cls-4 {
        fill: url(#_ЕғЕҡГҒЕ»Еҫ_ЕӘЕӘЕ»ЕҘ_Е«Е—ЕЎЕӨЕҡЕӘГҡ_116-6);
      }

      .cls-5 {
        fill: url(#_ЕғЕҡГҒЕ»Еҫ_ЕӘЕӘЕ»ЕҘ_Е«Е—ЕЎЕӨЕҡЕӘГҡ_116-9);
      }

      .cls-6 {
        fill: url(#_ЕғЕҡГҒЕ»Еҫ_ЕӘЕӘЕ»ЕҘ_Е«Е—ЕЎЕӨЕҡЕӘГҡ_116-8);
      }

      .cls-7 {
        fill: url(#_ЕғЕҡГҒЕ»Еҫ_ЕӘЕӘЕ»ЕҘ_Е«Е—ЕЎЕӨЕҡЕӘГҡ_116-3);
      }

      .cls-8 {
        fill: url(#_ЕғЕҡГҒЕ»Еҫ_ЕӘЕӘЕ»ЕҘ_Е«Е—ЕЎЕӨЕҡЕӘГҡ_116-7);
      }

      .cls-9 {
        fill: url(#_ЕғЕҡГҒЕ»Еҫ_ЕӘЕӘЕ»ЕҘ_Е«Е—ЕЎЕӨЕҡЕӘГҡ_116-2);
      }

      .cls-10 {
        fill: url(#_ЕғЕҡГҒЕ»Еҫ_ЕӘЕӘЕ»ЕҘ_Е«Е—ЕЎЕӨЕҡЕӘГҡ_116-4);
      }

      .cls-11 {
        fill: url(#_ЕғЕҡГҒЕ»Еҫ_ЕӘЕӘЕ»ЕҘ_Е«Е—ЕЎЕӨЕҡЕӘГҡ_116-5);
      }

      .cls-12 {
        fill: url(#_ЕғЕҡГҒЕ»Еҫ_ЕӘЕӘЕ»ЕҘ_Е«Е—ЕЎЕӨЕҡЕӘГҡ_103-2);
      }

      .cls-12, .cls-21 {
        opacity: .8;
      }

      .cls-32 {
        fill: #fff;
      }

      .cls-13 {
        fill: url(#_ЕғЕҡГҒЕ»Еҫ_ЕӘЕӘЕ»ЕҘ_Е«Е—ЕЎЕӨЕҡЕӘГҡ_91);
      }

      .cls-14 {
        fill: url(#_ЕғЕҡГҒЕ»Еҫ_ЕӘЕӘЕ»ЕҘ_Е«Е—ЕЎЕӨЕҡЕӘГҡ_71);
      }

      .cls-33 {
        fill: url(#_ЕғЕҡГҒЕ»Еҫ_ЕӘЕӘЕ»ЕҘ_Е«Е—ЕЎЕӨЕҡЕӘГҡ_20);
      }

      .cls-34 {
        fill: url(#_ЕғЕҡГҒЕ»Еҫ_ЕӘЕӘЕ»ЕҘ_Е«Е—ЕЎЕӨЕҡЕӘГҡ_34);
      }

      .cls-35 {
        fill: url(#_ЕғЕҡГҒЕ»Еҫ_ЕӘЕӘЕ»ЕҘ_Е«Е—ЕЎЕӨЕҡЕӘГҡ_185);
      }

      .cls-15 {
        fill: url(#_ЕғЕҡГҒЕ»Еҫ_ЕӘЕӘЕ»ЕҘ_Е«Е—ЕЎЕӨЕҡЕӘГҡ_91-2);
      }

      .cls-16 {
        fill: url(#_ЕғЕҡГҒЕ»Еҫ_ЕӘЕӘЕ»ЕҘ_Е«Е—ЕЎЕӨЕҡЕӘГҡ_71-2);
      }

      .cls-17 {
        fill: url(#_ЕғЕҡГҒЕ»Еҫ_ЕӘЕӘЕ»ЕҘ_Е«Е—ЕЎЕӨЕҡЕӘГҡ_71-6);
      }

      .cls-18 {
        fill: url(#_ЕғЕҡГҒЕ»Еҫ_ЕӘЕӘЕ»ЕҘ_Е«Е—ЕЎЕӨЕҡЕӘГҡ_71-3);
      }

      .cls-19 {
        fill: url(#_ЕғЕҡГҒЕ»Еҫ_ЕӘЕӘЕ»ЕҘ_Е«Е—ЕЎЕӨЕҡЕӘГҡ_71-5);
      }

      .cls-20 {
        fill: url(#_ЕғЕҡГҒЕ»Еҫ_ЕӘЕӘЕ»ЕҘ_Е«Е—ЕЎЕӨЕҡЕӘГҡ_71-4);
      }

      .cls-21 {
        fill: url(#_ЕғЕҡГҒЕ»Еҫ_ЕӘЕӘЕ»ЕҘ_Е«Е—ЕЎЕӨЕҡЕӘГҡ_103);
      }

      .cls-22 {
        fill: url(#_ЕғЕҡГҒЕ»Еҫ_ЕӘЕӘЕ»ЕҘ_Е«Е—ЕЎЕӨЕҡЕӘГҡ_116);
      }

      .cls-23 {
        fill: url(#_ЕғЕҡГҒЕ»Еҫ_ЕӘЕӘЕ»ЕҘ_Е«Е—ЕЎЕӨЕҡЕӘГҡ_146);
      }
    </style>
    <radialGradient id="_ЕғЕҡГҒЕ»Еҫ_ЕӘЕӘЕ»ЕҘ_Е«Е—ЕЎЕӨЕҡЕӘГҡ_34" data-name="ЕғЕҡГҒЕ»ЕҫЛҮЕӘЕӘЕ»ЕҘ вҖһЕ«Е—ЕЎЕӨЕҡЕӘГҡ 34" cx="32.26" cy="41.87" fx="32.26" fy="41.87" r="37.37" gradientUnits="userSpaceOnUse">
      <stop offset="0" stop-color="#ffb230"/>
      <stop offset=".31" stop-color="#feaf30"/>
      <stop offset=".54" stop-color="#fca530"/>
      <stop offset=".73" stop-color="#f89631"/>
      <stop offset=".9" stop-color="#f38033"/>
      <stop offset="1" stop-color="#f07134"/>
    </radialGradient>
    <radialGradient id="_ЕғЕҡГҒЕ»Еҫ_ЕӘЕӘЕ»ЕҘ_Е«Е—ЕЎЕӨЕҡЕӘГҡ_185" data-name="ЕғЕҡГҒЕ»ЕҫЛҮЕӘЕӘЕ»ЕҘ вҖһЕ«Е—ЕЎЕӨЕҡЕӘГҡ 185" cx="32.82" cy="45.78" fx="32.82" fy="45.78" r="27" gradientUnits="userSpaceOnUse">
      <stop offset=".07" stop-color="#98f42f"/>
      <stop offset="1" stop-color="#00b62d"/>
    </radialGradient>
    <linearGradient id="_ЕғЕҡГҒЕ»Еҫ_ЕӘЕӘЕ»ЕҘ_Е«Е—ЕЎЕӨЕҡЕӘГҡ_20" data-name="ЕғЕҡГҒЕ»ЕҫЛҮЕӘЕӘЕ»ЕҘ вҖһЕ«Е—ЕЎЕӨЕҡЕӘГҡ 20" x1="30.63" y1="25.13" x2="30.67" y2="24.95" gradientUnits="userSpaceOnUse">
      <stop offset="0" stop-color="#54d9ff"/>
      <stop offset="1" stop-color="#0063ff"/>
    </linearGradient>
    <linearGradient id="_ЕғЕҡГҒЕ»Еҫ_ЕӘЕӘЕ»ЕҘ_Е«Е—ЕЎЕӨЕҡЕӘГҡ_20-2" data-name="ЕғЕҡГҒЕ»ЕҫЛҮЕӘЕӘЕ»ЕҘ вҖһЕ«Е—ЕЎЕӨЕҡЕӘГҡ 20" x1="30.06" y1="25.13" x2="30.09" y2="25.02" xlink:href="#_ЕғЕҡГҒЕ»Еҫ_ЕӘЕӘЕ»ЕҘ_Е«Е—ЕЎЕӨЕҡЕӘГҡ_20"/>
    <linearGradient id="_ЕғЕҡГҒЕ»Еҫ_ЕӘЕӘЕ»ЕҘ_Е«Е—ЕЎЕӨЕҡЕӘГҡ_146" data-name="ЕғЕҡГҒЕ»ЕҫЛҮЕӘЕӘЕ»ЕҘ вҖһЕ«Е—ЕЎЕӨЕҡЕӘГҡ 146" x1="24.28" y1="23.54" x2="53.85" y2="68.3" gradientUnits="userSpaceOnUse">
      <stop offset="0" stop-color="#fff"/>
      <stop offset=".98" stop-color="#6a0038"/>
    </linearGradient>
    <linearGradient id="_ЕғЕҡГҒЕ»Еҫ_ЕӘЕӘЕ»ЕҘ_Е«Е—ЕЎЕӨЕҡЕӘГҡ_103" data-name="ЕғЕҡГҒЕ»ЕҫЛҮЕӘЕӘЕ»ЕҘ вҖһЕ«Е—ЕЎЕӨЕҡЕӘГҡ 103" x1="3.9" y1="55.42" x2="86.44" y2="52.74" gradientUnits="userSpaceOnUse">
      <stop offset="0" stop-color="#fff"/>
      <stop offset=".98" stop-color="#d10038"/>
    </linearGradient>
    <linearGradient id="_ЕғЕҡГҒЕ»Еҫ_ЕӘЕӘЕ»ЕҘ_Е«Е—ЕЎЕӨЕҡЕӘГҡ_103-2" data-name="ЕғЕҡГҒЕ»ЕҫЛҮЕӘЕӘЕ»ЕҘ вҖһЕ«Е—ЕЎЕӨЕҡЕӘГҡ 103" x1="16.26" y1="33.71" x2="106.44" y2="30.78" xlink:href="#_ЕғЕҡГҒЕ»Еҫ_ЕӘЕӘЕ»ЕҘ_Е«Е—ЕЎЕӨЕҡЕӘГҡ_103"/>
    <linearGradient id="_ЕғЕҡГҒЕ»Еҫ_ЕӘЕӘЕ»ЕҘ_Е«Е—ЕЎЕӨЕҡЕӘГҡ_71" data-name="ЕғЕҡГҒЕ»ЕҫЛҮЕӘЕӘЕ»ЕҘ вҖһЕ«Е—ЕЎЕӨЕҡЕӘГҡ 71" x1="18.54" y1="31.49" x2="28.82" y2="47.31" gradientUnits="userSpaceOnUse">
      <stop offset="0" stop-color="#fff"/>
      <stop offset=".98" stop-color="#00554f"/>
    </linearGradient>
    <linearGradient id="_ЕғЕҡГҒЕ»Еҫ_ЕӘЕӘЕ»ЕҘ_Е«Е—ЕЎЕӨЕҡЕӘГҡ_71-2" data-name="ЕғЕҡГҒЕ»ЕҫЛҮЕӘЕӘЕ»ЕҘ вҖһЕ«Е—ЕЎЕӨЕҡЕӘГҡ 71" x1="30.5" y1="51.6" x2="16.18" y2="47.4" xlink:href="#_ЕғЕҡГҒЕ»Еҫ_ЕӘЕӘЕ»ЕҘ_Е«Е—ЕЎЕӨЕҡЕӘГҡ_71"/>
    <linearGradient id="_ЕғЕҡГҒЕ»Еҫ_ЕӘЕӘЕ»ЕҘ_Е«Е—ЕЎЕӨЕҡЕӘГҡ_71-3" data-name="ЕғЕҡГҒЕ»ЕҫЛҮЕӘЕӘЕ»ЕҘ вҖһЕ«Е—ЕЎЕӨЕҡЕӘГҡ 71" x1="25.16" y1="65.02" x2="29.03" y2="49.51" xlink:href="#_ЕғЕҡГҒЕ»Еҫ_ЕӘЕӘЕ»ЕҘ_Е«Е—ЕЎЕӨЕҡЕӘГҡ_71"/>
    <linearGradient id="_ЕғЕҡГҒЕ»Еҫ_ЕӘЕӘЕ»ЕҘ_Е«Е—ЕЎЕӨЕҡЕӘГҡ_71-4" data-name="ЕғЕҡГҒЕ»ЕҫЛҮЕӘЕӘЕ»ЕҘ вҖһЕ«Е—ЕЎЕӨЕҡЕӘГҡ 71" x1="58.42" y1="49.45" x2="49.24" y2="43.75" xlink:href="#_ЕғЕҡГҒЕ»Еҫ_ЕӘЕӘЕ»ЕҘ_Е«Е—ЕЎЕӨЕҡЕӘГҡ_71"/>
    <linearGradient id="_ЕғЕҡГҒЕ»Еҫ_ЕӘЕӘЕ»ЕҘ_Е«Е—ЕЎЕӨЕҡЕӘГҡ_71-5" data-name="ЕғЕҡГҒЕ»ЕҫЛҮЕӘЕӘЕ»ЕҘ вҖһЕ«Е—ЕЎЕӨЕҡЕӘГҡ 71" x1="54.42" y1="31.67" x2="37.51" y2="27.84" xlink:href="#_ЕғЕҡГҒЕ»Еҫ_ЕӘЕӘЕ»ЕҘ_Е«Е—ЕЎЕӨЕҡЕӘГҡ_71"/>
    <linearGradient id="_ЕғЕҡГҒЕ»Еҫ_ЕӘЕӘЕ»ЕҘ_Е«Е—ЕЎЕӨЕҡЕӘГҡ_91" data-name="ЕғЕҡГҒЕ»ЕҫЛҮЕӘЕӘЕ»ЕҘ вҖһЕ«Е—ЕЎЕӨЕҡЕӘГҡ 91" x1="33.65" y1="62.61" x2="14.63" y2="58.29" gradientUnits="userSpaceOnUse">
      <stop offset="0" stop-color="#fff"/>
      <stop offset=".98" stop-color="#005570"/>
    </linearGradient>
    <linearGradient id="_ЕғЕҡГҒЕ»Еҫ_ЕӘЕӘЕ»ЕҘ_Е«Е—ЕЎЕӨЕҡЕӘГҡ_91-2" data-name="ЕғЕҡГҒЕ»ЕҫЛҮЕӘЕӘЕ»ЕҘ вҖһЕ«Е—ЕЎЕӨЕҡЕӘГҡ 91" x1="66.13" y1="58.66" x2="46.98" y2="54.31" xlink:href="#_ЕғЕҡГҒЕ»Еҫ_ЕӘЕӘЕ»ЕҘ_Е«Е—ЕЎЕӨЕҡЕӘГҡ_91"/>
    <radialGradient id="_ЕғЕҡГҒЕ»Еҫ_ЕӘЕӘЕ»ЕҘ_Е«Е—ЕЎЕӨЕҡЕӘГҡ_34-2" data-name="ЕғЕҡГҒЕ»ЕҫЛҮЕӘЕӘЕ»ЕҘ вҖһЕ«Е—ЕЎЕӨЕҡЕӘГҡ 34" cx="32.29" cy="16.43" fx="32.29" fy="16.43" r="14.8" xlink:href="#_ЕғЕҡГҒЕ»Еҫ_ЕӘЕӘЕ»ЕҘ_Е«Е—ЕЎЕӨЕҡЕӘГҡ_34"/>
    <linearGradient id="_ЕғЕҡГҒЕ»Еҫ_ЕӘЕӘЕ»ЕҘ_Е«Е—ЕЎЕӨЕҡЕӘГҡ_116" data-name="ЕғЕҡГҒЕ»ЕҫЛҮЕӘЕӘЕ»ЕҘ вҖһЕ«Е—ЕЎЕӨЕҡЕӘГҡ 116" x1="28.41" y1="49.47" x2="-12.26" y2="54.06" gradientUnits="userSpaceOnUse">
      <stop offset="0" stop-color="#fff"/>
      <stop offset=".98" stop-color="#d60038"/>
    </linearGradient>
    <linearGradient id="_ЕғЕҡГҒЕ»Еҫ_ЕӘЕӘЕ»ЕҘ_Е«Е—ЕЎЕӨЕҡЕӘГҡ_116-2" data-name="ЕғЕҡГҒЕ»ЕҫЛҮЕӘЕӘЕ»ЕҘ вҖһЕ«Е—ЕЎЕӨЕҡЕӘГҡ 116" x1="20.38" y1="41.63" x2="16.75" y2="99.17" xlink:href="#_ЕғЕҡГҒЕ»Еҫ_ЕӘЕӘЕ»ЕҘ_Е«Е—ЕЎЕӨЕҡЕӘГҡ_116"/>
    <linearGradient id="_ЕғЕҡГҒЕ»Еҫ_ЕӘЕӘЕ»ЕҘ_Е«Е—ЕЎЕӨЕҡЕӘГҡ_71-6" data-name="ЕғЕҡГҒЕ»ЕҫЛҮЕӘЕӘЕ»ЕҘ вҖһЕ«Е—ЕЎЕӨЕҡЕӘГҡ 71" x1="36.31" y1="18.57" x2="34.41" y2="29.5" xlink:href="#_ЕғЕҡГҒЕ»Еҫ_ЕӘЕӘЕ»ЕҘ_Е«Е—ЕЎЕӨЕҡЕӘГҡ_71"/>
    <linearGradient id="_ЕғЕҡГҒЕ»Еҫ_ЕӘЕӘЕ»ЕҘ_Е«Е—ЕЎЕӨЕҡЕӘГҡ_116-3" data-name="ЕғЕҡГҒЕ»ЕҫЛҮЕӘЕӘЕ»ЕҘ вҖһЕ«Е—ЕЎЕӨЕҡЕӘГҡ 116" x1="6.18" y1="12.22" x2="9.95" y2="33.14" xlink:href="#_ЕғЕҡГҒЕ»Еҫ_ЕӘЕӘЕ»ЕҘ_Е«Е—ЕЎЕӨЕҡЕӘГҡ_116"/>
    <radialGradient id="_ЕғЕҡГҒЕ»Еҫ_ЕӘЕӘЕ»ЕҘ_Е«Е—ЕЎЕӨЕҡЕӘГҡ_34-3" data-name="ЕғЕҡГҒЕ»ЕҫЛҮЕӘЕӘЕ»ЕҘ вҖһЕ«Е—ЕЎЕӨЕҡЕӘГҡ 34" cx="9.57" cy="28.87" fx="9.57" fy="28.87" r="10.37" xlink:href="#_ЕғЕҡГҒЕ»Еҫ_ЕӘЕӘЕ»ЕҘ_Е«Е—ЕЎЕӨЕҡЕӘГҡ_34"/>
    <linearGradient id="_ЕғЕҡГҒЕ»Еҫ_ЕӘЕӘЕ»ЕҘ_Е«Е—ЕЎЕӨЕҡЕӘГҡ_116-4" data-name="ЕғЕҡГҒЕ»ЕҫЛҮЕӘЕӘЕ»ЕҘ вҖһЕ«Е—ЕЎЕӨЕҡЕӘГҡ 116" x1="12.59" y1="20.69" x2="7.93" y2="46.24" xlink:href="#_ЕғЕҡГҒЕ»Еҫ_ЕӘЕӘЕ»ЕҘ_Е«Е—ЕЎЕӨЕҡЕӘГҡ_116"/>
    <linearGradient id="_ЕғЕҡГҒЕ»Еҫ_ЕӘЕӘЕ»ЕҘ_Е«Е—ЕЎЕӨЕҡЕӘГҡ_116-5" data-name="ЕғЕҡГҒЕ»ЕҫЛҮЕӘЕӘЕ»ЕҘ вҖһЕ«Е—ЕЎЕӨЕҡЕӘГҡ 116" x1="32.64" y1="5.31" x2="31.93" y2="35.07" xlink:href="#_ЕғЕҡГҒЕ»Еҫ_ЕӘЕӘЕ»ЕҘ_Е«Е—ЕЎЕӨЕҡЕӘГҡ_116"/>
    <linearGradient id="_ЕғЕҡГҒЕ»Еҫ_ЕӘЕӘЕ»ЕҘ_Е«Е—ЕЎЕӨЕҡЕӘГҡ_116-6" data-name="ЕғЕҡГҒЕ»ЕҫЛҮЕӘЕӘЕ»ЕҘ вҖһЕ«Е—ЕЎЕӨЕҡЕӘГҡ 116" x1="40.43" y1="54.53" x2="58.47" y2="47.52" xlink:href="#_ЕғЕҡГҒЕ»Еҫ_ЕӘЕӘЕ»ЕҘ_Е«Е—ЕЎЕӨЕҡЕӘГҡ_116"/>
    <linearGradient id="_ЕғЕҡГҒЕ»Еҫ_ЕӘЕӘЕ»ЕҘ_Е«Е—ЕЎЕӨЕҡЕӘГҡ_116-7" data-name="ЕғЕҡГҒЕ»ЕҫЛҮЕӘЕӘЕ»ЕҘ вҖһЕ«Е—ЕЎЕӨЕҡЕӘГҡ 116" x1="48.55" y1="16.18" x2="53.06" y2="33.39" xlink:href="#_ЕғЕҡГҒЕ»Еҫ_ЕӘЕӘЕ»ЕҘ_Е«Е—ЕЎЕӨЕҡЕӘГҡ_116"/>
    <radialGradient id="_ЕғЕҡГҒЕ»Еҫ_ЕӘЕӘЕ»ЕҘ_Е«Е—ЕЎЕӨЕҡЕӘГҡ_34-4" data-name="ЕғЕҡГҒЕ»ЕҫЛҮЕӘЕӘЕ»ЕҘ вҖһЕ«Е—ЕЎЕӨЕҡЕӘГҡ 34" cx="-2294.99" cy="29.23" fx="-2294.99" fy="29.23" r="10.31" gradientTransform="translate(-2240.18) rotate(-180) scale(1 -1)" xlink:href="#_ЕғЕҡГҒЕ»Еҫ_ЕӘЕӘЕ»ЕҘ_Е«Е—ЕЎЕӨЕҡЕӘГҡ_34"/>
    <linearGradient id="_ЕғЕҡГҒЕ»Еҫ_ЕӘЕӘЕ»ЕҘ_Е«Е—ЕЎЕӨЕҡЕӘГҡ_116-8" data-name="ЕғЕҡГҒЕ»ЕҫЛҮЕӘЕӘЕ»ЕҘ вҖһЕ«Е—ЕЎЕӨЕҡЕӘГҡ 116" x1="-2291.98" y1="21.03" x2="-2296.65" y2="46.57" gradientTransform="translate(-2240.18) rotate(-180) scale(1 -1)" xlink:href="#_ЕғЕҡГҒЕ»Еҫ_ЕӘЕӘЕ»ЕҘ_Е«Е—ЕЎЕӨЕҡЕӘГҡ_116"/>
    <linearGradient id="_ЕғЕҡГҒЕ»Еҫ_ЕӘЕӘЕ»ЕҘ_Е«Е—ЕЎЕӨЕҡЕӘГҡ_116-9" data-name="ЕғЕҡГҒЕ»ЕҫЛҮЕӘЕӘЕ»ЕҘ вҖһЕ«Е—ЕЎЕӨЕҡЕӘГҡ 116" x1="22.57" y1="59.91" x2="31.04" y2="73.74" xlink:href="#_ЕғЕҡГҒЕ»Еҫ_ЕӘЕӘЕ»ЕҘ_Е«Е—ЕЎЕӨЕҡЕӘГҡ_116"/>
    <radialGradient id="_ЕғЕҡГҒЕ»Еҫ_ЕӘЕӘЕ»ЕҘ_Е«Е—ЕЎЕӨЕҡЕӘГҡ_34-5" data-name="ЕғЕҡГҒЕ»ЕҫЛҮЕӘЕӘЕ»ЕҘ вҖһЕ«Е—ЕЎЕӨЕҡЕӘГҡ 34" cx="32.17" cy="76.64" fx="32.17" fy="76.64" r="6.1" xlink:href="#_ЕғЕҡГҒЕ»Еҫ_ЕӘЕӘЕ»ЕҘ_Е«Е—ЕЎЕӨЕҡЕӘГҡ_34"/>
    <linearGradient id="_ЕғЕҡГҒЕ»Еҫ_ЕӘЕӘЕ»ЕҘ_Е«Е—ЕЎЕӨЕҡЕӘГҡ_116-10" data-name="ЕғЕҡГҒЕ»ЕҫЛҮЕӘЕӘЕ»ЕҘ вҖһЕ«Е—ЕЎЕӨЕҡЕӘГҡ 116" x1="29.22" y1="71.56" x2="36.34" y2="88.06" xlink:href="#_ЕғЕҡГҒЕ»Еҫ_ЕӘЕӘЕ»ЕҘ_Е«Е—ЕЎЕӨЕҡЕӘГҡ_116"/>
    <linearGradient id="_ЕғЕҡГҒЕ»Еҫ_ЕӘЕӘЕ»ЕҘ_Е«Е—ЕЎЕӨЕҡЕӘГҡ_116-11" data-name="ЕғЕҡГҒЕ»ЕҫЛҮЕӘЕӘЕ»ЕҘ вҖһЕ«Е—ЕЎЕӨЕҡЕӘГҡ 116" x1="18.25" y1="37.57" x2="37.86" y2="23.91" xlink:href="#_ЕғЕҡГҒЕ»Еҫ_ЕӘЕӘЕ»ЕҘ_Е«Е—ЕЎЕӨЕҡЕӘГҡ_116"/>
    <linearGradient id="_ЕғЕҡГҒЕ»Еҫ_ЕӘЕӘЕ»ЕҘ_Е«Е—ЕЎЕӨЕҡЕӘГҡ_116-12" data-name="ЕғЕҡГҒЕ»ЕҫЛҮЕӘЕӘЕ»ЕҘ вҖһЕ«Е—ЕЎЕӨЕҡЕӘГҡ 116" x1="13.84" y1="73.71" x2="19.39" y2="69.84" xlink:href="#_ЕғЕҡГҒЕ»Еҫ_ЕӘЕӘЕ»ЕҘ_Е«Е—ЕЎЕӨЕҡЕӘГҡ_116"/>
  </defs>
  <g class="cls-31">
    <g id="Ebene_2" data-name="Ebene 2">
      <g id="factory_milk" data-name="factory milk">
        <g>
          <path class="cls-34" d="M64.51,28.81s-.15.86-.42,2.36c-1,5.6-3.56,19.44-6.26,30.76-.27,1.15-.7,2.26-1.24,3.33-.05.11-.11.22-.18.33-.14.28-.29.55-.45.82-3.74,6.28-11.46,11.25-16.97,14.2-3.33,1.78-5.92,2.86-6.39,3.06v.08s-.65-.26-1.73-.74c-5.22-2.34-21.13-10.29-23.82-21.01C3.44,47.53,0,28.88,0,28.88c0-.04.01-.08.02-.11,1.37-8.7,6.04-11.01,6.04-11.01h0c.23.22,9.39,8.6,12.25,3.71,1.74-2.96,1.71-6.76,1.37-9.46,0-.01,0-.02,0-.03-.05-.39-.11-.76-.17-1.09h0c-.23-1.33-.48-2.19-.48-2.19l.3-.19L32.04.16v-.16s13.21,8.62,13.21,8.62c0,0,0,0,0,.01-.05.15-.4,1.45-.61,3.27h0c-.32,2.71-.31,6.52,1.47,9.49,2.96,4.94,12.22-3.71,12.22-3.71,0,0,4.73,2.34,6.18,11.13Z"/>
          <path class="cls-35" d="M56.36,35.58s-2.9,12.86-5.11,23.52c-1.82,8.79-15.5,15.28-18.24,16.5-.21.09-.36.16-.44.19v.06s-.68-.28-1.78-.81c-2-.96-5.41-2.73-8.67-5.12-1.06-.78-2.11-1.62-3.09-2.52-2.58-2.37-4.7-5.17-5.37-8.25-1.61-7.34-3.07-15.9-3.83-20.58-.17-1.05-.31-1.9-.4-2.48-.09-.56-.14-.86-.14-.86,0-.03,0-.06.02-.08,1.18-6.01,3.91-5.32,3.91-5.32.15.14,7.13,3.65,9.23.27,1.26-2.03,1.27-4.61,1.06-6.43,0,0,0-.01,0-.02-.04-.26-.07-.51-.11-.73h0c-.14-.89-.32-1.46-.32-1.46l.21-.13,8.88-5.52v-.11s.45.3,1.14.77c2.35,1.6,7.48,5.07,7.48,5.08-.03.11-.39,2.19-.39,2.2-.19,1.82-.15,4.4,1.15,6.43,1.24,1.95,4.7,1.24,7.48.27,2.11-.74,3.83-1.64,3.83-1.64,0,0,.8.25,1.72,1.74.63,1.01,1.3,2.6,1.78,5.03Z"/>
          <path class="cls-33" d="M31.05,25.18c-.35-.09-.63-.13-.84-.14.29-.06.51-.08.66-.05.06.01.12.08.18.19Z"/>
          <path class="cls-26" d="M30.21,25.05c-.09.01-.18.03-.28.06.03-.03.06-.05.08-.05.05,0,.12-.01.19,0Z"/>
          <path class="cls-23" d="M56.36,35.58s-2.9,12.86-5.11,23.52c-.04.21-.09.42-.15.62-2.31,8.47-15.41,14.69-18.08,15.88l-.6-1.21-.07-.14,6.73-18.89,4.19-6.25-3.45-10.23,13.06-10.08s.8.25,1.72,1.74c.63,1.01,1.3,2.6,1.78,5.03Z"/>
          <path class="cls-21" d="M39.06,55.36l-6.66,19.03-.17.49-1.44.16c-4.32-2.07-15.42-8.06-17.14-15.9-1.98-9.02-3.73-19.89-4.23-23.06l1.34-1.38,13.02,15.97,15.28,4.69Z"/>
          <path class="cls-12" d="M54.57,30.55l-14.78,8.34-6.2,1.34-10.08,9.92,9.34-9.71.45-23.97c2.35,1.6,7.48,5.07,7.48,5.08-.03.11-.39,2.19-.39,2.2-.19,1.82-.15,4.4,1.15,6.43,2.16,3.41,11.31-1.37,11.31-1.37,0,0,.8.25,1.72,1.74Z"/>
          <polygon class="cls-24" points="23.78 50.67 39.06 55.36 43.25 49.11 39.98 38.82 33.41 40.37 23.78 50.67"/>
          <path class="cls-32" d="M30.99,42.89c2.63-2.43,10.18.11,10.18.11l-1.18-4.19-6.89,1.41-2.11,2.67Z"/>
          <path class="cls-32" d="M36.34,54.55c1.87-1.96,3.9-.91,3.9-.91l-1.15,1.81-2.75-.9Z"/>
          <path class="cls-14" d="M51.09,59.72c-2.31,8.47-15.41,14.69-18.08,15.88l-.6-1.21,6.68-18.94,4.16-6.34s5.41,7.13,7.84,10.61Z"/>
          <path class="cls-16" d="M13.33,58.15c-.1-.24,10.44-7.48,10.44-7.48l-13.27-16.51-1.08,1.92,3.91,22.06Z"/>
          <path class="cls-18" d="M16.94,56.11c11.01-4.36,17.28,3.81,15.56,8.96-1.64,4.93,5.82-5.15,4.72-8.14-1.12-3.07-11.88-5.69-13.83-5.27-1.94.43-6.45,4.45-6.45,4.45Z"/>
          <path class="cls-20" d="M49.21,33.97c-8.34,4.28-2.35,17.74-3.28,17.48-.93-.26-4.94-8.78-5.05-11.29-.12-2.56,8.33-6.19,8.33-6.19Z"/>
          <path class="cls-19" d="M39.06,22.57c-5.09,14.96,2.37,11.4,1.93,8.94-.45-2.5-1.93-8.94-1.93-8.94Z"/>
          <path class="cls-13" d="M20.66,53.61c-6.69,5.75-3.55,11.3-3.55,11.3,0,0-2.88-2.39-2.61-5.55.27-3.25,6.16-5.75,6.16-5.75Z"/>
          <path class="cls-15" d="M47.31,53.23c2.2,3.06,4.54-.38,4.54-.38,0,0-.04,5.15-1.23,4.85-1.19-.31-3.31-4.47-3.31-4.47Z"/>
          <path class="cls-32" d="M40.15,39.74c1.05-1.99,8.64-7.65,8.64-7.65l-10.62,7.7,1.98-.05Z"/>
          <path class="cls-24" d="M25.38,30.53c-9.02,9.63-3.32,17.73-2.11,18.19,1.21.46,8.66-6.75,8.51-10.54-.16-3.91-6.4-7.65-6.4-7.65Z"/>
          <path class="cls-24" d="M28.77,35.58c-2.97,6.72,2.12,5.79,2.42,3.31.31-2.53-2.42-3.31-2.42-3.31Z"/>
          <path class="cls-30" d="M45.25,8.61s0,.01,0,.02c-.15,1.12-.35,2.21-.61,3.26,0,0,0,0,0,.01-3.06,12.85-12.26,20.95-12.26,20.95,0,0-10.69-9.06-12.7-20.85,0-.01,0-.02,0-.03-.07-.36-.12-.73-.17-1.1t0,0c-.1-.78-.16-1.57-.19-2.37L32.04.16V0s13.21,8.61,13.21,8.61Z"/>
          <path class="cls-32" d="M20.4,9.9c10.01,12.14,10.8-7.72,9.38-7.72s-9.7,6.77-9.7,6.77l.32.94Z"/>
          <path class="cls-22" d="M4.17,40.21c5.63,3.33,6.32,9.34,6.32,9.34,0,0,3.51,13.32,2.31,13.67-1.2.35-5.98-3.18-6.98-8.81-1.05-5.91-1.65-14.2-1.65-14.2Z"/>
          <path class="cls-9" d="M10.97,63.64c6.14,1.27,16.56,11.03,17.02,12.28.45,1.24-.5,4.57-.5,4.57,0,0-8.29-2.82-13.23-8.7-5.21-6.2-5.22-8.39-5.22-8.39l1.93.23Z"/>
          <path class="cls-17" d="M56.36,35.58s-2.9,12.86-5.11,23.52c-1.82,8.79-15.5,15.28-18.24,16.5-.21.09-.36.16-.44.19v.06s-.68-.28-1.78-.81c-2-.96-5.41-2.73-8.67-5.12l-3.09-2.52c-2.58-2.37-4.7-5.17-5.37-8.25-1.61-7.34-3.07-15.9-3.83-20.58l.52.23c8.67,7.99,2.77,16.74,6,23.72,3.05,6.59,15.62,10.07,17.78,9.79,2.16-.29,15.02-6.33,16.48-13.27,1.55-7.37-1.43-19.11.35-23.6,1.84-4.65,1.69-6.07,1.69-6.07l-4.03,1.52.42-.44c2.11-.74,3.83-1.64,3.83-1.64,0,0,.8.25,1.72,1.74.63,1.01,1.3,2.6,1.78,5.03Z"/>
          <g>
            <path class="cls-7" d="M20.16,44.35C5.36,45.57,1.53,31.78,1.53,31.78c0,0-1.02-17.95,6.74-10.72,7.37,6.87,11.89,23.29,11.89,23.29Z"/>
            <path class="cls-29" d="M19.13,39.95s-11.83,1.14-18.37-9.53c-.21-.34-.41-.68-.6-1.05l-.14-.6c1.37-8.7,6.04-11.01,6.04-11.01h0s4.08,6.93,4.08,6.93h0s8.99,15.26,8.99,15.26Z"/>
            <path class="cls-10" d="M19.13,39.95s-11.83,1.14-18.37-9.53l.2-.95c8.25,6.91,10.86.61,10.61-.84-.2-1.15-1.06-3.12-1.44-3.93l8.99,15.25Z"/>
            <path class="cls-32" d="M3.91,31.58c3.26-.94,3.89,1.27,3.89,1.27,0,0-1.26.11-2.37-.22-1.12-.34-1.52-1.05-1.52-1.05Z"/>
          </g>
          <path class="cls-11" d="M32.72,38.1c-9.56-11.96-12.44-22.96-12.44-22.96l11.25,7.43,1.45.08,4.78-1.94,6.81-7.79s-2.61,9.57-4.44,14.31c-1.77,4.58-7.42,10.87-7.42,10.87Z"/>
          <path class="cls-4" d="M64.1,31.17c-1,5.6-3.56,19.44-6.26,30.76-.27,1.15-.7,2.26-1.24,3.33-1.57-1.24-2.26-2.14-4.79-2.19l6.95-32.18,5.59-2.64-.25,2.93Z"/>
          <path class="cls-25" d="M7.84,19.81c12.72,14.23,10.72,2.12,10.72,2.12,0,0-1.07,2.08-4.08,1.29-3.03-.8-6.64-3.4-6.64-3.4Z"/>
          <path class="cls-25" d="M35.97,3.75c6.62,5.06,3.86,14.07,4.06,13.99.2-.08,3.76-3.8,4-4.74.24-.95.64-4.28.64-4.28l-8.7-4.97Z"/>
          <path class="cls-25" d="M46.08,23.45c2.73,7.53,8.14-1.53,8.14-1.53,0,0-3.14,1.53-5.38,1.53h-2.76Z"/>
          <g>
            <path class="cls-8" d="M44.37,44.67c14.79,1.22,18.45-12.54,18.45-12.54,0,0,.8-17.9-6.86-10.69-7.28,6.85-11.59,23.23-11.59,23.23Z"/>
            <path class="cls-28" d="M45.34,40.28s11.83,1.14,18.23-9.51c.2-.34.4-.68.59-1.05l.13-.6c-1.48-8.68-6.16-10.98-6.16-10.98h0s-4,6.92-4,6.92h0s-8.79,15.22-8.79,15.22Z"/>
            <path class="cls-6" d="M45.34,40.28s11.83,1.14,18.23-9.51l-.21-.95c-8.16,6.89-10.84.61-10.61-.84.18-1.15,1.02-3.11,1.39-3.92l-8.79,15.21Z"/>
            <path class="cls-32" d="M60.44,31.93c-3.26-.94-3.87,1.27-3.87,1.27,0,0,1.26.11,2.37-.22,1.11-.33,1.5-1.04,1.5-1.04Z"/>
          </g>
          <path class="cls-5" d="M38.99,80.6c-3.33,1.78-5.92,2.86-6.39,3.06v.08s-.65-.26-1.73-.74l-1.6-5.18,4.64-8.27c3.67,4.17,4.8,8.28,5.09,11.06Z"/>
          <path class="cls-27" d="M30.47,82.97c-7.32-3.46.17-12.76.17-12.76l3.27-.66s3.36,7.08,3.16,9.76c-.19,2.62-4.47,4.42-4.47,4.42l-2.14-.77Z"/>
          <path class="cls-3" d="M28.16,78.12c3.8-1.71,8.15.61,8.15.61,0,0-2.17,5.46-4.71,4.2-2.56-1.27-3.45-4.81-3.45-4.81Z"/>
          <path class="cls-1" d="M32.2,22.73l.19,10.12s4.11-4.08,4.91-6.32c.82-2.28.48-5.82.48-5.82l-5.57,2.02Z"/>
          <path class="cls-2" d="M17.5,67.91c4.63,3.35,4.24,5.07,2.89,5.07s-5.5-3.41-4.61-4.57c.9-1.17,1.72-.5,1.72-.5Z"/>
          <path class="cls-25" d="M56.42,65.59c-.14.28-.29.55-.45.82-2.42-.17-7.16,0-11.76,3.05,0,0,5.08-6.46,7.9-5.99,1.65.27,3.26,1.31,4.31,2.12Z"/>
        </g>
      </g>
    </g>
  </g>
</svg>