<?xml version="1.0" encoding="UTF-8"?>
<svg xmlns="http://www.w3.org/2000/svg" xmlns:xlink="http://www.w3.org/1999/xlink" viewBox="0 0 100.66 73.07">
  <defs>
    <style>
      .cls-1 {
        fill: none;
      }

      .cls-2 {
        fill: url(#_ŃŚÁŻž_ŪŪŻť_ūŗšŤŚŪÚ_271-13);
      }

      .cls-2, .cls-3, .cls-4, .cls-5, .cls-6, .cls-7, .cls-8, .cls-9, .cls-10, .cls-11, .cls-12, .cls-13, .cls-14, .cls-15, .cls-16, .cls-17, .cls-18, .cls-19, .cls-20, .cls-21, .cls-22 {
        mix-blend-mode: multiply;
      }

      .cls-2, .cls-3, .cls-4, .cls-5, .cls-18, .cls-19, .cls-20 {
        opacity: .8;
      }

      .cls-3 {
        fill: url(#_ŃŚÁŻž_ŪŪŻť_ūŗšŤŚŪÚ_271-10);
      }

      .cls-4 {
        fill: url(#_ŃŚÁŻž_ŪŪŻť_ūŗšŤŚŪÚ_271-12);
      }

      .cls-5 {
        fill: url(#_ŃŚÁŻž_ŪŪŻť_ūŗšŤŚŪÚ_271-11);
      }

      .cls-6 {
        fill: url(#_ŃŚÁŻž_ŪŪŻť_ūŗšŤŚŪÚ_271-19);
      }

      .cls-6, .cls-7, .cls-8, .cls-9, .cls-10, .cls-11, .cls-14, .cls-15, .cls-16, .cls-22 {
        opacity: .6;
      }

      .cls-7 {
        fill: url(#_ŃŚÁŻž_ŪŪŻť_ūŗšŤŚŪÚ_271-16);
      }

      .cls-8 {
        fill: url(#_ŃŚÁŻž_ŪŪŻť_ūŗšŤŚŪÚ_271-15);
      }

      .cls-9 {
        fill: url(#_ŃŚÁŻž_ŪŪŻť_ūŗšŤŚŪÚ_271-18);
      }

      .cls-10 {
        fill: url(#_ŃŚÁŻž_ŪŪŻť_ūŗšŤŚŪÚ_271-17);
      }

      .cls-11 {
        fill: url(#_ŃŚÁŻž_ŪŪŻť_ūŗšŤŚŪÚ_271-14);
      }

      .cls-23 {
        fill: url(#_ŃŚÁŻž_ŪŪŻť_ūŗšŤŚŪÚ_8);
      }

      .cls-24 {
        fill: url(#_ŃŚÁŻž_ŪŪŻť_ūŗšŤŚŪÚ_163);
      }

      .cls-24, .cls-25, .cls-26, .cls-27 {
        mix-blend-mode: screen;
        opacity: .9;
      }

      .cls-28 {
        fill: url(#_ŃŚÁŻž_ŪŪŻť_ūŗšŤŚŪÚ_83-4);
      }

      .cls-29 {
        fill: url(#_ŃŚÁŻž_ŪŪŻť_ūŗšŤŚŪÚ_83-2);
      }

      .cls-30 {
        fill: url(#_ŃŚÁŻž_ŪŪŻť_ūŗšŤŚŪÚ_83-3);
      }

      .cls-31 {
        fill: url(#_ŃŚÁŻž_ŪŪŻť_ūŗšŤŚŪÚ_83-5);
      }

      .cls-32 {
        fill: url(#_ŃŚÁŻž_ŪŪŻť_ūŗšŤŚŪÚ_82-2);
      }

      .cls-33 {
        fill: url(#_ŃŚÁŻž_ŪŪŻť_ūŗšŤŚŪÚ_77-5);
      }

      .cls-34 {
        fill: url(#_ŃŚÁŻž_ŪŪŻť_ūŗšŤŚŪÚ_77-8);
      }

      .cls-35 {
        fill: url(#_ŃŚÁŻž_ŪŪŻť_ūŗšŤŚŪÚ_77-7);
      }

      .cls-36 {
        fill: url(#_ŃŚÁŻž_ŪŪŻť_ūŗšŤŚŪÚ_77-2);
      }

      .cls-37 {
        fill: url(#_ŃŚÁŻž_ŪŪŻť_ūŗšŤŚŪÚ_77-6);
      }

      .cls-38 {
        fill: url(#_ŃŚÁŻž_ŪŪŻť_ūŗšŤŚŪÚ_77-4);
      }

      .cls-39 {
        fill: url(#_ŃŚÁŻž_ŪŪŻť_ūŗšŤŚŪÚ_77-3);
      }

      .cls-40 {
        isolation: isolate;
      }

      .cls-12 {
        fill: url(#_ŃŚÁŻž_ŪŪŻť_ūŗšŤŚŪÚ_271-4);
      }

      .cls-12, .cls-13 {
        opacity: .3;
      }

      .cls-13 {
        fill: url(#_ŃŚÁŻž_ŪŪŻť_ūŗšŤŚŪÚ_271-5);
      }

      .cls-14 {
        fill: url(#_ŃŚÁŻž_ŪŪŻť_ūŗšŤŚŪÚ_271-6);
      }

      .cls-15 {
        fill: url(#_ŃŚÁŻž_ŪŪŻť_ūŗšŤŚŪÚ_271-7);
      }

      .cls-16 {
        fill: url(#_ŃŚÁŻž_ŪŪŻť_ūŗšŤŚŪÚ_271-3);
      }

      .cls-17 {
        fill: url(#_ŃŚÁŻž_ŪŪŻť_ūŗšŤŚŪÚ_122-2);
      }

      .cls-17, .cls-21 {
        opacity: .5;
      }

      .cls-18 {
        fill: url(#_ŃŚÁŻž_ŪŪŻť_ūŗšŤŚŪÚ_271-2);
      }

      .cls-19 {
        fill: url(#_ŃŚÁŻž_ŪŪŻť_ūŗšŤŚŪÚ_271-8);
      }

      .cls-20 {
        fill: url(#_ŃŚÁŻž_ŪŪŻť_ūŗšŤŚŪÚ_271-9);
      }

      .cls-25 {
        fill: url(#_ŃŚÁŻž_ŪŪŻť_ūŗšŤŚŪÚ_163-3);
      }

      .cls-26 {
        fill: url(#_ŃŚÁŻž_ŪŪŻť_ūŗšŤŚŪÚ_163-2);
      }

      .cls-27 {
        fill: url(#_ŃŚÁŻž_ŪŪŻť_ūŗšŤŚŪÚ_163-4);
      }

      .cls-41 {
        fill: #fff;
      }

      .cls-42 {
        fill: #897493;
      }

      .cls-43 {
        fill: #420f34;
      }

      .cls-44 {
        fill: #ffa945;
      }

      .cls-45 {
        fill: #5b193d;
      }

      .cls-46 {
        fill: #5e192a;
      }

      .cls-47 {
        fill: url(#_ŃŚÁŻž_ŪŪŻť_ūŗšŤŚŪÚ_82);
      }

      .cls-48 {
        fill: url(#_ŃŚÁŻž_ŪŪŻť_ūŗšŤŚŪÚ_83);
      }

      .cls-49 {
        fill: url(#_ŃŚÁŻž_ŪŪŻť_ūŗšŤŚŪÚ_77);
      }

      .cls-50 {
        fill: url(#_ŃŚÁŻž_ŪŪŻť_ūŗšŤŚŪÚ_8-3);
      }

      .cls-51 {
        fill: url(#_ŃŚÁŻž_ŪŪŻť_ūŗšŤŚŪÚ_8-6);
      }

      .cls-52 {
        fill: url(#_ŃŚÁŻž_ŪŪŻť_ūŗšŤŚŪÚ_8-5);
      }

      .cls-53 {
        fill: url(#_ŃŚÁŻž_ŪŪŻť_ūŗšŤŚŪÚ_8-4);
      }

      .cls-54 {
        fill: url(#_ŃŚÁŻž_ŪŪŻť_ūŗšŤŚŪÚ_8-2);
      }

      .cls-21 {
        fill: url(#_ŃŚÁŻž_ŪŪŻť_ūŗšŤŚŪÚ_122);
      }

      .cls-22 {
        fill: url(#_ŃŚÁŻž_ŪŪŻť_ūŗšŤŚŪÚ_271);
      }

      .cls-55 {
        clip-path: url(#clippath);
      }
    </style>
    <linearGradient id="_ŃŚÁŻž_ŪŪŻť_ūŗšŤŚŪÚ_77" data-name="ŃŚÁŻžˇŪŪŻť „ūŗšŤŚŪÚ 77" x1="0" y1="55.75" x2="91.15" y2="55.75" gradientUnits="userSpaceOnUse">
      <stop offset=".02" stop-color="#d86a39"/>
      <stop offset=".99" stop-color="#971c36"/>
    </linearGradient>
    <linearGradient id="_ŃŚÁŻž_ŪŪŻť_ūŗšŤŚŪÚ_82" data-name="ŃŚÁŻžˇŪŪŻť „ūŗšŤŚŪÚ 82" x1="0" y1="55.67" x2="62.57" y2="55.67" gradientUnits="userSpaceOnUse">
      <stop offset="0" stop-color="#f18e36"/>
      <stop offset="1" stop-color="#db6221"/>
    </linearGradient>
    <linearGradient id="_ŃŚÁŻž_ŪŪŻť_ūŗšŤŚŪÚ_77-2" data-name="ŃŚÁŻžˇŪŪŻť „ūŗšŤŚŪÚ 77" x1="31.16" y1="71.15" x2="32.98" y2="46.01" xlink:href="#_ŃŚÁŻž_ŪŪŻť_ūŗšŤŚŪÚ_77"/>
    <linearGradient id="_ŃŚÁŻž_ŪŪŻť_ūŗšŤŚŪÚ_77-3" data-name="ŃŚÁŻžˇŪŪŻť „ūŗšŤŚŪÚ 77" x1="-22.16" y1="6.41" x2="2.63" y2="42.32" xlink:href="#_ŃŚÁŻž_ŪŪŻť_ūŗšŤŚŪÚ_77"/>
    <linearGradient id="_ŃŚÁŻž_ŪŪŻť_ūŗšŤŚŪÚ_77-4" data-name="ŃŚÁŻžˇŪŪŻť „ūŗšŤŚŪÚ 77" x1="58.24" y1="87.15" x2="72.04" y2="60.9" xlink:href="#_ŃŚÁŻž_ŪŪŻť_ūŗšŤŚŪÚ_77"/>
    <linearGradient id="_ŃŚÁŻž_ŪŪŻť_ūŗšŤŚŪÚ_271" data-name="ŃŚÁŻžˇŪŪŻť „ūŗšŤŚŪÚ 271" x1="70.68" y1="73.17" x2="85.52" y2="51.18" gradientUnits="userSpaceOnUse">
      <stop offset="0" stop-color="#fff"/>
      <stop offset=".98" stop-color="#aa0038"/>
    </linearGradient>
    <linearGradient id="_ŃŚÁŻž_ŪŪŻť_ūŗšŤŚŪÚ_77-5" data-name="ŃŚÁŻžˇŪŪŻť „ūŗšŤŚŪÚ 77" x1="71.18" y1="60.91" x2="74.17" y2="69.92" xlink:href="#_ŃŚÁŻž_ŪŪŻť_ūŗšŤŚŪÚ_77"/>
    <linearGradient id="_ŃŚÁŻž_ŪŪŻť_ūŗšŤŚŪÚ_83" data-name="ŃŚÁŻžˇŪŪŻť „ūŗšŤŚŪÚ 83" x1="13.41" y1="76.06" x2="19.12" y2="61.5" gradientUnits="userSpaceOnUse">
      <stop offset="0" stop-color="#f7e2d1"/>
      <stop offset="1" stop-color="#a58caf"/>
    </linearGradient>
    <linearGradient id="_ŃŚÁŻž_ŪŪŻť_ūŗšŤŚŪÚ_83-2" data-name="ŃŚÁŻžˇŪŪŻť „ūŗšŤŚŪÚ 83" x1="57.43" y1="75.15" x2="62.96" y2="61.04" xlink:href="#_ŃŚÁŻž_ŪŪŻť_ūŗšŤŚŪÚ_83"/>
    <linearGradient id="_ŃŚÁŻž_ŪŪŻť_ūŗšŤŚŪÚ_122" data-name="ŃŚÁŻžˇŪŪŻť „ūŗšŤŚŪÚ 122" x1="56.07" y1="53.29" x2="69.45" y2="66.6" gradientUnits="userSpaceOnUse">
      <stop offset=".37" stop-color="#fff"/>
      <stop offset=".44" stop-color="#f1e6ee"/>
      <stop offset=".71" stop-color="#c191b3"/>
      <stop offset=".91" stop-color="#a35b8f"/>
      <stop offset="1" stop-color="#984781"/>
    </linearGradient>
    <linearGradient id="_ŃŚÁŻž_ŪŪŻť_ūŗšŤŚŪÚ_163" data-name="ŃŚÁŻžˇŪŪŻť „ūŗšŤŚŪÚ 163" x1="24.23" y1="69.17" x2="26.26" y2="64" gradientUnits="userSpaceOnUse">
      <stop offset="0" stop-color="#ffde6a"/>
      <stop offset="1" stop-color="#000"/>
    </linearGradient>
    <linearGradient id="_ŃŚÁŻž_ŪŪŻť_ūŗšŤŚŪÚ_83-3" data-name="ŃŚÁŻžˇŪŪŻť „ūŗšŤŚŪÚ 83" x1="52.4" y1="55.62" x2="66.36" y2="84.65" xlink:href="#_ŃŚÁŻž_ŪŪŻť_ūŗšŤŚŪÚ_83"/>
    <linearGradient id="_ŃŚÁŻž_ŪŪŻť_ūŗšŤŚŪÚ_83-4" data-name="ŃŚÁŻžˇŪŪŻť „ūŗšŤŚŪÚ 83" x1="28.98" y1="40.45" x2="28.49" y2="62.68" xlink:href="#_ŃŚÁŻž_ŪŪŻť_ūŗšŤŚŪÚ_83"/>
    <linearGradient id="_ŃŚÁŻž_ŪŪŻť_ūŗšŤŚŪÚ_122-2" data-name="ŃŚÁŻžˇŪŪŻť „ūŗšŤŚŪÚ 122" x1="27.12" y1="40.07" x2="38.18" y2="68.33" xlink:href="#_ŃŚÁŻž_ŪŪŻť_ūŗšŤŚŪÚ_122"/>
    <linearGradient id="_ŃŚÁŻž_ŪŪŻť_ūŗšŤŚŪÚ_271-2" data-name="ŃŚÁŻžˇŪŪŻť „ūŗšŤŚŪÚ 271" x1="16.15" y1="9.84" x2="35.39" y2="54.74" xlink:href="#_ŃŚÁŻž_ŪŪŻť_ūŗšŤŚŪÚ_271"/>
    <linearGradient id="_ŃŚÁŻž_ŪŪŻť_ūŗšŤŚŪÚ_163-2" data-name="ŃŚÁŻžˇŪŪŻť „ūŗšŤŚŪÚ 163" x1="9.96" y1="89.47" x2="39.53" y2="123.13" gradientTransform="translate(27.45 -31.45) rotate(-1.82)" xlink:href="#_ŃŚÁŻž_ŪŪŻť_ūŗšŤŚŪÚ_163"/>
    <linearGradient id="_ŃŚÁŻž_ŪŪŻť_ūŗšŤŚŪÚ_82-2" data-name="ŃŚÁŻžˇŪŪŻť „ūŗšŤŚŪÚ 82" x1="25.4" y1="-14.61" x2="78.31" y2="44.11" xlink:href="#_ŃŚÁŻž_ŪŪŻť_ūŗšŤŚŪÚ_82"/>
    <linearGradient id="_ŃŚÁŻž_ŪŪŻť_ūŗšŤŚŪÚ_271-3" data-name="ŃŚÁŻžˇŪŪŻť „ūŗšŤŚŪÚ 271" x1="-52.15" y1="113.85" x2="-92.55" y2="150.16" gradientTransform="translate(106.56 -127.67) rotate(-7.28)" xlink:href="#_ŃŚÁŻž_ŪŪŻť_ūŗšŤŚŪÚ_271"/>
    <linearGradient id="_ŃŚÁŻž_ŪŪŻť_ūŗšŤŚŪÚ_271-4" data-name="ŃŚÁŻžˇŪŪŻť „ūŗšŤŚŪÚ 271" x1="11.3" y1="16.66" x2="55.44" y2="16.66" xlink:href="#_ŃŚÁŻž_ŪŪŻť_ūŗšŤŚŪÚ_271"/>
    <linearGradient id="_ŃŚÁŻž_ŪŪŻť_ūŗšŤŚŪÚ_271-5" data-name="ŃŚÁŻžˇŪŪŻť „ūŗšŤŚŪÚ 271" x1="25.23" y1="10.47" x2="93.74" y2="10.47" xlink:href="#_ŃŚÁŻž_ŪŪŻť_ūŗšŤŚŪÚ_271"/>
    <linearGradient id="_ŃŚÁŻž_ŪŪŻť_ūŗšŤŚŪÚ_77-6" data-name="ŃŚÁŻžˇŪŪŻť „ūŗšŤŚŪÚ 77" x1="9" y1="18.42" x2="16.76" y2="27.04" xlink:href="#_ŃŚÁŻž_ŪŪŻť_ūŗšŤŚŪÚ_77"/>
    <linearGradient id="_ŃŚÁŻž_ŪŪŻť_ūŗšŤŚŪÚ_77-7" data-name="ŃŚÁŻžˇŪŪŻť „ūŗšŤŚŪÚ 77" x1="32.89" y1="-12.26" x2="100.08" y2="62.31" xlink:href="#_ŃŚÁŻž_ŪŪŻť_ūŗšŤŚŪÚ_77"/>
    <linearGradient id="_ŃŚÁŻž_ŪŪŻť_ūŗšŤŚŪÚ_77-8" data-name="ŃŚÁŻžˇŪŪŻť „ūŗšŤŚŪÚ 77" x1="82.51" y1="-20.66" x2="88.14" y2="13.09" xlink:href="#_ŃŚÁŻž_ŪŪŻť_ūŗšŤŚŪÚ_77"/>
    <linearGradient id="_ŃŚÁŻž_ŪŪŻť_ūŗšŤŚŪÚ_271-6" data-name="ŃŚÁŻžˇŪŪŻť „ūŗšŤŚŪÚ 271" x1="86.34" y1="-21.29" x2="91.96" y2="12.46" xlink:href="#_ŃŚÁŻž_ŪŪŻť_ūŗšŤŚŪÚ_271"/>
    <linearGradient id="_ŃŚÁŻž_ŪŪŻť_ūŗšŤŚŪÚ_271-7" data-name="ŃŚÁŻžˇŪŪŻť „ūŗšŤŚŪÚ 271" x1="91.73" y1="27.41" x2="91.81" y2="3.92" xlink:href="#_ŃŚÁŻž_ŪŪŻť_ūŗšŤŚŪÚ_271"/>
    <linearGradient id="_ŃŚÁŻž_ŪŪŻť_ūŗšŤŚŪÚ_83-5" data-name="ŃŚÁŻžˇŪŪŻť „ūŗšŤŚŪÚ 83" x1="29.84" y1="14.05" x2="77.85" y2="14.05" xlink:href="#_ŃŚÁŻž_ŪŪŻť_ūŗšŤŚŪÚ_83"/>
    <linearGradient id="_ŃŚÁŻž_ŪŪŻť_ūŗšŤŚŪÚ_271-8" data-name="ŃŚÁŻžˇŪŪŻť „ūŗšŤŚŪÚ 271" x1="46.1" y1="30.61" x2="46.14" y2="30.93" xlink:href="#_ŃŚÁŻž_ŪŪŻť_ūŗšŤŚŪÚ_271"/>
    <linearGradient id="_ŃŚÁŻž_ŪŪŻť_ūŗšŤŚŪÚ_163-3" data-name="ŃŚÁŻžˇŪŪŻť „ūŗšŤŚŪÚ 163" x1="42.69" y1="-17.38" x2="60.78" y2="24.75" xlink:href="#_ŃŚÁŻž_ŪŪŻť_ūŗšŤŚŪÚ_163"/>
    <linearGradient id="_ŃŚÁŻž_ŪŪŻť_ūŗšŤŚŪÚ_271-9" data-name="ŃŚÁŻžˇŪŪŻť „ūŗšŤŚŪÚ 271" x1="72.24" y1="26.75" x2="50.9" y2="9.71" xlink:href="#_ŃŚÁŻž_ŪŪŻť_ūŗšŤŚŪÚ_271"/>
    <linearGradient id="_ŃŚÁŻž_ŪŪŻť_ūŗšŤŚŪÚ_271-10" data-name="ŃŚÁŻžˇŪŪŻť „ūŗšŤŚŪÚ 271" x1="67.44" y1="70.74" x2="68.01" y2="71.65" xlink:href="#_ŃŚÁŻž_ŪŪŻť_ūŗšŤŚŪÚ_271"/>
    <linearGradient id="_ŃŚÁŻž_ŪŪŻť_ūŗšŤŚŪÚ_271-11" data-name="ŃŚÁŻžˇŪŪŻť „ūŗšŤŚŪÚ 271" x1="74.16" y1="68.97" x2="76.06" y2="71.99" xlink:href="#_ŃŚÁŻž_ŪŪŻť_ūŗšŤŚŪÚ_271"/>
    <linearGradient id="_ŃŚÁŻž_ŪŪŻť_ūŗšŤŚŪÚ_271-12" data-name="ŃŚÁŻžˇŪŪŻť „ūŗšŤŚŪÚ 271" x1="62.61" y1="34.7" x2="75.91" y2="55.86" xlink:href="#_ŃŚÁŻž_ŪŪŻť_ūŗšŤŚŪÚ_271"/>
    <linearGradient id="_ŃŚÁŻž_ŪŪŻť_ūŗšŤŚŪÚ_271-13" data-name="ŃŚÁŻžˇŪŪŻť „ūŗšŤŚŪÚ 271" x1="78.96" y1="5.49" x2="93.85" y2="29.17" xlink:href="#_ŃŚÁŻž_ŪŪŻť_ūŗšŤŚŪÚ_271"/>
    <clipPath id="clippath">
      <polygon class="cls-1" points="82.33 29.71 79.02 46.69 42.29 45.66 42.96 42.83 40.74 40.08 40.51 40.09 38.15 40.15 30.92 40.37 23.31 40.6 17.21 40.79 17.29 42.68 17.39 44.96 8.22 44.71 13.41 21.33 82.33 29.71"/>
    </clipPath>
    <linearGradient id="_ŃŚÁŻž_ŪŪŻť_ūŗšŤŚŪÚ_8" data-name="ŃŚÁŻžˇŪŪŻť „ūŗšŤŚŪÚ 8" x1="-132.9" y1="144.48" x2="-98.3" y2="167.41" gradientTransform="translate(114.84 -142.03) rotate(-8.2)" gradientUnits="userSpaceOnUse">
      <stop offset="0" stop-color="#ffb230"/>
      <stop offset="1" stop-color="#f07134"/>
    </linearGradient>
    <linearGradient id="_ŃŚÁŻž_ŪŪŻť_ūŗšŤŚŪÚ_271-14" data-name="ŃŚÁŻžˇŪŪŻť „ūŗšŤŚŪÚ 271" x1="-113.59" y1="153.13" x2="-98.21" y2="164.67" gradientTransform="translate(114.84 -142.03) rotate(-8.2)" xlink:href="#_ŃŚÁŻž_ŪŪŻť_ūŗšŤŚŪÚ_271"/>
    <linearGradient id="_ŃŚÁŻž_ŪŪŻť_ūŗšŤŚŪÚ_163-4" data-name="ŃŚÁŻžˇŪŪŻť „ūŗšŤŚŪÚ 163" x1="28.57" y1="32.91" x2="30.62" y2="25.68" xlink:href="#_ŃŚÁŻž_ŪŪŻť_ūŗšŤŚŪÚ_163"/>
    <linearGradient id="_ŃŚÁŻž_ŪŪŻť_ūŗšŤŚŪÚ_8-2" data-name="ŃŚÁŻžˇŪŪŻť „ūŗšŤŚŪÚ 8" x1="33.26" y1="54.97" x2="42.05" y2="40.1" gradientTransform="matrix(1,0,0,1,0,0)" xlink:href="#_ŃŚÁŻž_ŪŪŻť_ūŗšŤŚŪÚ_8"/>
    <linearGradient id="_ŃŚÁŻž_ŪŪŻť_ūŗšŤŚŪÚ_271-15" data-name="ŃŚÁŻžˇŪŪŻť „ūŗšŤŚŪÚ 271" x1="33.31" y1="54.97" x2="42.1" y2="40.1" xlink:href="#_ŃŚÁŻž_ŪŪŻť_ūŗšŤŚŪÚ_271"/>
    <linearGradient id="_ŃŚÁŻž_ŪŪŻť_ūŗšŤŚŪÚ_8-3" data-name="ŃŚÁŻžˇŪŪŻť „ūŗšŤŚŪÚ 8" x1="29.67" y1="40.11" x2="64.75" y2="63.36" gradientTransform="matrix(1,0,0,1,0,0)" xlink:href="#_ŃŚÁŻž_ŪŪŻť_ūŗšŤŚŪÚ_8"/>
    <linearGradient id="_ŃŚÁŻž_ŪŪŻť_ūŗšŤŚŪÚ_8-4" data-name="ŃŚÁŻžˇŪŪŻť „ūŗšŤŚŪÚ 8" x1="34.39" y1="32.98" x2="69.48" y2="56.23" gradientTransform="matrix(1,0,0,1,0,0)" xlink:href="#_ŃŚÁŻž_ŪŪŻť_ūŗšŤŚŪÚ_8"/>
    <linearGradient id="_ŃŚÁŻž_ŪŪŻť_ūŗšŤŚŪÚ_8-5" data-name="ŃŚÁŻžˇŪŪŻť „ūŗšŤŚŪÚ 8" x1="47.56" y1="34.39" x2="59.89" y2="48.71" gradientTransform="matrix(1,0,0,1,0,0)" xlink:href="#_ŃŚÁŻž_ŪŪŻť_ūŗšŤŚŪÚ_8"/>
    <linearGradient id="_ŃŚÁŻž_ŪŪŻť_ūŗšŤŚŪÚ_8-6" data-name="ŃŚÁŻžˇŪŪŻť „ūŗšŤŚŪÚ 8" x1="41.11" y1="22.84" x2="76.2" y2="46.09" gradientTransform="matrix(1,0,0,1,0,0)" xlink:href="#_ŃŚÁŻž_ŪŪŻť_ūŗšŤŚŪÚ_8"/>
    <linearGradient id="_ŃŚÁŻž_ŪŪŻť_ūŗšŤŚŪÚ_271-16" data-name="ŃŚÁŻžˇŪŪŻť „ūŗšŤŚŪÚ 271" x1="24.89" y1="36.54" x2="43.47" y2="44.33" xlink:href="#_ŃŚÁŻž_ŪŪŻť_ūŗšŤŚŪÚ_271"/>
    <linearGradient id="_ŃŚÁŻž_ŪŪŻť_ūŗšŤŚŪÚ_271-17" data-name="ŃŚÁŻžˇŪŪŻť „ūŗšŤŚŪÚ 271" x1="50.27" y1="39.74" x2="54.97" y2="42.85" xlink:href="#_ŃŚÁŻž_ŪŪŻť_ūŗšŤŚŪÚ_271"/>
    <linearGradient id="_ŃŚÁŻž_ŪŪŻť_ūŗšŤŚŪÚ_271-18" data-name="ŃŚÁŻžˇŪŪŻť „ūŗšŤŚŪÚ 271" x1="60.7" y1="31.61" x2="76.29" y2="43.31" xlink:href="#_ŃŚÁŻž_ŪŪŻť_ūŗšŤŚŪÚ_271"/>
    <linearGradient id="_ŃŚÁŻž_ŪŪŻť_ūŗšŤŚŪÚ_271-19" data-name="ŃŚÁŻžˇŪŪŻť „ūŗšŤŚŪÚ 271" x1="52.39" y1="34.93" x2="58.2" y2="42.64" xlink:href="#_ŃŚÁŻž_ŪŪŻť_ūŗšŤŚŪÚ_271"/>
  </defs>
  <g class="cls-40">
    <g id="Ebene_2" data-name="Ebene 2">
      <g id="factory_milk" data-name="factory milk">
        <g>
          <g>
            <polygon class="cls-45" points="29.62 44.05 7.45 22.38 75.71 26.18 91.59 46.25 60.05 47.35 29.62 44.05"/>
            <path class="cls-43" d="M32.82,42.61s-12.57-14.45-12.24-14.34c.33.11,51.72,2.21,51.72,2.21l12.68,15.44-49.3-2.43-2.87-.88Z"/>
            <path class="cls-49" d="M91.15,46.93l-.05.08-.14.26-9.84,19.31v.03s-.15.27-.15.27l-18.19-.08h-.41l-49.86-.22-.06-.11c-.1-.18-.29-.52-.58-1.02,0,0,0,0,0,0-1.8-3.2-7.59-13.31-10.41-18.24-.19-.34-.38-.66-.54-.95l-.49-.86-.12-.21-.1-.17-.08-.15-.13-.23,10.49.27,34.97.88,11.28.29h.55s5.28.15,5.28.15l3.13.08h0l14.53.37,10.87.28h.04Z"/>
            <polygon class="cls-47" points="62.57 46.2 61.57 66.73 50.63 66.7 24.46 66.61 12.52 66.57 .43 45.39 .31 45.17 .21 45 .13 44.85 0 44.62 42.18 45.69 51.19 45.92 62.57 46.2"/>
            <polygon class="cls-36" points="9.47 49.14 7.62 52.8 13.82 64.07 56.51 64.63 56.34 52.91 52.95 50 9.47 49.14"/>
            <path class="cls-44" d="M13.82,64.07l.94-1.14c10.51,1.35,41.72,1.14,41.72,1.14l.03.56-42.68-.56Z"/>
            <polygon class="cls-39" points="14.76 62.93 9.38 53.11 11.28 49.3 9.47 49.14 7.58 52.6 13.82 64.07 14.76 62.93"/>
            <g>
              <path class="cls-38" d="M84.77,54.56c-.58,1.21-4.84,10.06-4.79,10.26,0,0-.03.02-.09.03-1.22.15-15.08-.17-15.32-.03.09-.29,1.41-11.44,1.41-11.44l5.38-3.02,10.27.91,1.57.14.72,1.33.92,1.7s-.02.04-.06.12Z"/>
              <path class="cls-22" d="M80.1,64.87c-.01.09-.1.06-.21-.03-.21-.17-.5-.53-.5-.53l4.28-9.28-2.05-3.77,1.57.14.72,1.33.86,1.83.06.14s-4.7,9.9-4.73,10.18Z"/>
              <path class="cls-33" d="M64.75,64.04c7.71.74,14.84.24,14.84.24l.6.66-15.35-.08-.08-.82Z"/>
            </g>
            <path class="cls-42" d="M82.74,66.64l-2.94,6.43h-2.41c-.34-1.02-1.48-1.97-3.06-2.46-.15-.05-.3-.09-.46-.12-.47-.12-.97-.19-1.49-.22-.27-.01-.56-.02-.84,0-2,.1-4.24.89-6.34,2.81h-6.14c-2.81-1.34-3.52-5.35-21.84-5.87-.8-.03-1.58-.04-2.33-.05h-.1c-1.92-.03-3.66,0-5.24.04-2.16.06-4,.19-5.56.36-4.47.46-6.44,5-6.95,5.53h-2.69c-.09-.18-2.97-7.37-3.08-7.65h0s.59,0,.59,0h.01l1.96.03h.02l8.59.14,1.63.03,6.13.1,5.59.1,8.8.15,16.99.29h.41s.49.01.49.01h.38s4.06.08,4.06.08l14.01.24h.19s1.62.03,1.62.03Z"/>
            <path class="cls-48" d="M24.36,67.25l.87.04c-1.04.06-1.99.14-2.86.23-4.61.46-6.64,5.02-7.16,5.55h-2.78c-.09-.19-3.21-7.68-3.21-7.68l2.05.03h.59s.02,0,.02,0l10.56.17,1.63.03h.38c0,.38,0,.71,0,.98,0,.39-.04.64-.1.64Z"/>
            <path class="cls-29" d="M71.74,66.46l-3.27.12-6.01.22h-.08v6.28s-3.82,0-3.82,0c-1.99-.91-2.96-3.09-9.44-4.55l1.3.07.21-1.89.07-.62,5.7.1,5.2.08.89.02h.32s4.11.09,4.11.09l4.67.09h.16Z"/>
            <path class="cls-21" d="M83.01,66.61l-2.99,6.46h-2.49c-.36-1.02-1.55-1.97-3.2-2.46-.15-.05-.3-.09-.46-.12-.47-.11-.97-.19-1.49-.22-.27-.01-.56-.02-.84,0-2.09.07-4.45.86-6.63,2.81h-2.51v-6.28s-.01,0-.01,0l.1-.5h0s.32,0,.32,0l18.33.3,1.88.03Z"/>
            <path class="cls-24" d="M28.77,65.71l-.66,1.45c-2.23.06-4.13.19-5.74.35l.07-1.91,6.32.1Z"/>
            <polygon class="cls-44" points="54.3 46.01 62.57 46.93 66.02 46.22 54.3 46.01"/>
            <polygon class="cls-30" points="43.31 65.92 62.67 66.8 71.66 66.46 43.31 65.92"/>
            <g>
              <polygon class="cls-28" points="40.74 40.08 39.85 45.59 37.49 60.16 18.01 59.86 17.39 44.96 17.29 42.68 17.21 40.79 23.31 40.6 30.92 40.37 38.15 40.15 40.51 40.09 40.74 40.08"/>
              <path class="cls-46" d="M26.84,45.74c-5.12.67-.85,5.82-.85,5.82l-2.18,4.84,4.97.04s-.47-4.33-.52-4.52c-.05-.18,5.86-7.15-1.43-6.19Z"/>
              <polygon class="cls-42" points="43.16 49.77 41.03 61.46 24.26 60.98 18.01 59.86 37.07 59.61 39.7 45.59 40.74 40.08 42.96 42.83 42.29 45.66 41.38 49.56 43.16 49.77"/>
              <path class="cls-17" d="M50.7,66.08l-.07.62-.21,1.89-1.3-.07c-2.98-.66-7.14-1.18-13.11-1.35-.38,0-.76-.02-1.13-.02h-.1c-2.5-.05-4.71-.04-6.69.02-1.03.03-1.99.07-2.88.13l-.87-.04c.06,0,.09-.25.1-.64,0-.26,0-.6,0-.97l4.31.08,7.03.12,8.58.13,6.32.11Z"/>
              <path class="cls-18" d="M52.52,49.4l-1.82,16.68-6.32-.11-8.58-.13-7.03-.12-4.31-.08c-.03-1.86-.2-4.66-.2-4.66l-6.25-1.12,19.06-.25,3.96,1.85,2.13-11.69-1.78-.21.8-3.87,9,.23-.75,3.67,2.08-.19Z"/>
            </g>
            <path class="cls-26" d="M18.57,40.76c4.44,8.12,11.79-.38,11.79-.38l-11.79.38Z"/>
            <path class="cls-32" d="M97.33,8.31l-3.74,3.29-4.12,3.62-7.67,6.74-.3.27-5.99,5.27-23.38-1.76h-.1s-2.67-.21-2.67-.21l-3.06-.23h-.02l-38.82-2.92s1.27-2.46,3.85-5.77c.4-.52.84-1.06,1.31-1.61,1.59-1.9,3.57-3.97,5.92-5.96.01-.01.02-.03.03-.03.65-.55,1.33-1.1,2.04-1.64.39-.29.79-.58,1.2-.87,1.08-.77,2.22-1.5,3.43-2.19.23-.14.46-.27.69-.4,5.22-2.87,9.82-2.32,9.82-2.32,8.25,3.3,16.65,5.28,24.49,6.43.05,0,.1.01.14.02,4.87.71,9.51,1.09,13.77,1.27h0c2.63.11,5.11.14,7.4.12,2.64-.03,5.03-.13,7.11-.25,0,0,0,0,.01,0,5.41-.33,8.66-.86,8.66-.86Z"/>
            <g>
              <path class="cls-16" d="M84.65,15.18c-.18,0-1.08.01-2.65,0-4.68-.07-15.29-.42-30.31-2.17-7.2-.84-15.65-2.02-25.31-3.68-2.15-.37-4.37-.77-6.66-1.19.35-.34.71-.68,1.08-1.01l61.47,7.75,2.38.3Z"/>
              <path class="cls-44" d="M31.69,10.34c6.84,3,14.29,2.06,14.29,2.06l-14.29-2.06Z"/>
              <path class="cls-12" d="M55.34,23.91c-2.07,1.3-22.06-.28-44.04-7.31.4-.52.84-1.06,1.31-1.61,11.81,3.24,23.88,6.03,25.41,4.28,1.67-1.91-9.26-6.48-19.49-10.24.01-.01.02-.03.03-.03,16.54,5.79,38.55,13.79,36.77,14.91Z"/>
              <path class="cls-13" d="M93.74,14.62l-3.4,4.78-.36-1.69-.52-2.48-.17-.8S53.55,11.24,25.23,4.3c.23-.14.46-.27.69-.4,5.22-2.87,9.82-2.32,9.82-2.32,20.24,8.09,41.43,8.29,52.91,7.59,0,0,0,0,.01,0,3.08.43,4.82.62,4.82.62l.1,1.81.08,1.63.07,1.39Z"/>
            </g>
            <path class="cls-37" d="M18.23,22.98l-10.77-.6c.22-.11,4.48.15,10.77.6Z"/>
            <path class="cls-35" d="M91.59,46.25l-16.1-18.75s-.06,0-.19-.01c-.06,0-.12-.01-.2-.02-2.03-.17-11.55-.95-22.84-1.86-.93-.08-1.86-.16-2.81-.23-.84-.06-1.67-.13-2.51-.2-.19-.01-.38-.03-.56-.05h-.02c-5.19-.41-10.53-.83-15.54-1.21-4.57-.36-8.86-.67-12.48-.93l12.58.7,15.74.87h.03l.68.04,2.56.14,3.12.17,22.68,1.26s5.68-6.34,11.47-11.38c.2-.17.4-.34.6-.51,1.35-1.16,2.71-2.24,3.98-3.12l.05-.04c.58-.4,1.14-.76,1.68-1.08.03-.02.05-.03.08-.05.06-.04.12-.07.17-.1.01,0,.03-.01.03-.02,1.17-.66,2.23-1.09,3.1-1.17.05,0,.08-.01.12-.01.84-.05,1.48.23,1.88.94,6.62,11.91-7.28,36.61-7.28,36.61Z"/>
            <path class="cls-34" d="M91.98,40.24l-1.61-1.92-9.8-11.65s10.7-11.29,15.62-11.9c.95-.12,1.68.16,2.08.98,2.48,5.13-6.28,24.48-6.28,24.48Z"/>
            <path class="cls-14" d="M91.98,40.24l-1.61-1.92c6.1-14,6.2-20.88,5.82-23.55.95-.12,1.68.16,2.08.98,2.48,5.13-6.28,24.48-6.28,24.48Z"/>
            <polygon class="cls-15" points="87.8 14.31 88.29 19.34 92.02 16.55 94.71 15.1 95.74 14.77 93.49 9.79 87.8 14.31"/>
            <g>
              <path class="cls-31" d="M29.84,26.29C38.14,5.18,49.81,0,49.81,0l28.04,3.32s-17.74,6.27-22.26,11.03c-4.66,4.91-10.71,13.75-10.71,13.75l-15.04-1.81Z"/>
              <polygon class="cls-42" points="31.11 28.96 29.84 26.29 44.88 28.1 46.02 30.78 31.11 28.96"/>
              <path class="cls-42" d="M77.85,3.32l-1.56,5.85s-.78-.03-2.14.14h0c-4.55.56-15.52,3.28-24.8,16.22-.01.01-.02.03-.03.04-.03.04-.06.08-.08.12-1.07,1.5-2.11,3.14-3.12,4.92-.03.05-.06.11-.09.16l-1.14-2.68c.04-.08.08-.17.12-.25.06-.13.15-.31.26-.53.14-.28.27-.55.41-.82.07-.14.15-.29.23-.45.12-.24.26-.49.4-.76,2.36-4.42,7.45-12.92,13.58-16.94.17-.11.34-.22.51-.32,1.26-.8,2.57-1.46,3.85-2.01,6.94-2.95,13.62-2.71,13.62-2.71Z"/>
            </g>
            <polygon class="cls-19" points="46.01 30.78 46.11 30.63 46.24 30.89 46.01 30.78"/>
            <path class="cls-25" d="M45.06,3.35c5.4,3.64,22.83,1.32,22.83,1.32l-11.14,6.18s-2.87-2.98-8.27-4.63c-5.4-1.65-9.81,3.64-9.81,3.64l6.4-6.51Z"/>
            <path class="cls-20" d="M81.54,9.43c-14.15,2.14-29.43,16.31-29.43,16.31h-.1s-2.7-.17-2.7-.17h0l-.08.12-3.12,4.93h0s-1.23-2.53-1.23-2.53c.04-.08.08-.17.12-.25.09-.18.17-.36.26-.53.14-.28.27-.55.41-.82.07-.15.14-.3.23-.45.12-.26.25-.51.38-.76,4.41-8.5,9.11-14.17,13.96-17.28,1.32-.86,2.66-1.52,4-1.99.52-.19,1.04-.34,1.56-.47,5.99-1.49,10.5,3.61,10.5,3.61,0,0-.78-.03-2.14.14,2.63.11,5.11.14,7.4.12Z"/>
            <path class="cls-41" d="M43.51,4.9c-5.4,10.15,6.51,1.1,5.18-.33-1.32-1.43-5.18.33-5.18.33Z"/>
            <path class="cls-3" d="M64.91,73.07c2.04-1.83,4.24-2.64,6.23-2.79-1.89.18-3.98.99-5.94,2.79h-.29Z"/>
            <path class="cls-5" d="M77.53,73.07h-.14c-.34-1.02-1.48-1.97-3.06-2.46,1.65.49,2.84,1.44,3.2,2.46Z"/>
            <polygon class="cls-4" points="91.15 46.93 91.1 47.01 90.97 47.27 81.13 66.58 62.8 66.28 62.48 66.27 61.6 66.25 62.55 47.27 62.57 46.93 65.7 46.28 65.71 46.28 80.24 46.65 91.11 46.93 91.15 46.93"/>
            <path class="cls-2" d="M91.59,46.25l-16.1-18.75s0,0,.01-.01c.05-.06.27-.34.62-.78,1.63-2.02,6.19-7.51,11.05-11.91.19-.18.38-.34.57-.51,1.46-1.29,2.94-2.46,4.35-3.4.47-.32.93-.6,1.39-.86.03-.02.05-.03.08-.05.06-.03.12-.06.17-.09.01,0,.03-.01.03-.02,1.09-.58,2.13-.99,3.08-1.15.05,0,.1-.02.14-.03.84-.05,1.48.23,1.88.94,6.62,11.91-7.28,36.61-7.28,36.61Z"/>
          </g>
          <g class="cls-55">
            <g>
              <path class="cls-23" d="M43.33,31.06l-2.13,6.81s-1.5.15-3.49.34c-1.75.16-3.89.36-5.71.49-.27.02-.52.04-.78.06-1.82.13-3.19.18-3.3.07-.13-.14-.48-1.01-.87-2.02-.03-.07-.05-.14-.08-.2-.58-1.53-1.2-3.29-1.2-3.29,5.04-2.43,9.61-2.93,12.83-2.87h.02c2.92.07,4.72.61,4.72.61Z"/>
              <path class="cls-11" d="M43.33,31.06l-2.13,6.81s-1.5.15-3.49.34c.77-2.29,2.18-7.17.2-7.66,0,0,.27-.04.7-.11h.02c2.92.07,4.72.61,4.72.61Z"/>
              <path class="cls-27" d="M27.58,32.43c2.09,3.4,2.36-.84,2.36-.84l-2.36.84Z"/>
              <path class="cls-54" d="M34.74,39.78c8.43-5.92,13.8-4.96,13.8-4.96l.68,5.85-13.74,1.22-.75-2.11Z"/>
              <path class="cls-8" d="M34.79,39.78c8.43-5.92,13.8-4.96,13.8-4.96l.68,5.85-13.74,1.22-.75-2.11Z"/>
              <path class="cls-50" d="M43.44,38.49l-.02.3v.06s-.39,7.12-.39,7.12l-3.12.06h-.02l-4.7.1-12.29.25-.4-7.07c5.05-1.78,9.2-2.38,12.43-2.41,5.65-.06,8.51,1.59,8.51,1.59Z"/>
              <path class="cls-53" d="M56.78,38.21l-.38,2.47-.03.15-.81,5.26-5.04.04-10.59.1v-.21s.13-6.05.13-6.05c1.19-.45,2.32-.81,3.38-1.12h0c3.52-1.03,6.28-1.37,8.36-1.4,3.42-.05,4.99.76,4.99.76Z"/>
              <path class="cls-52" d="M67.25,47.33l-5.85,3.13-4.31-1.23-7.12-2.03.53-1.05.69-1.34h0s2.32-4.55,2.32-4.55c.72.11,1.41.25,2.06.39h0c.27.06.54.12.79.19,2.21.56,4.03,1.3,5.49,2.08,1.03.54,1.89,1.1,2.59,1.63.54.4.99.79,1.36,1.15,1.01.95,1.44,1.64,1.44,1.64Z"/>
              <path class="cls-51" d="M79.08,39.71l-3.13,6.53s-1.52-.06-3.55-.16c-1.78-.09-3.95-.2-5.81-.34-.27-.02-.53-.03-.79-.05-1.85-.13-3.23-.28-3.32-.4-.11-.16-.34-1.08-.58-2.16-.02-.07-.03-.14-.05-.21-.36-1.62-.73-3.48-.73-3.48,5.41-1.71,10.07-1.56,13.29-1.02h.02c2.92.5,4.64,1.29,4.64,1.29Z"/>
              <path class="cls-7" d="M43.43,38.79l-3.93,1.26.39,5.98.02.21s-6.46.4-5.1.2c.14-.02.27-.13.39-.31.99-1.53,1.18-8.13-.26-9.23,5.65-.06,8.51,1.59,8.51,1.59l-.02.3Z"/>
              <path class="cls-10" d="M56.78,38.21l-.38,2.47-.03.05-.8-.09-1.72-.19s-2.8,5.18-2.99,5.5c.03-.07.16-.51.33-1.16.56-2.14,1.52-6.52.59-7.35,3.42-.05,4.99.76,4.99.76Z"/>
              <path class="cls-9" d="M79.08,39.71l-3.13,6.53s-1.52-.06-3.55-.16c1.11-2.18,3.23-6.88,1.3-7.66,0,0,.27,0,.71,0h.02c2.92.5,4.64,1.29,4.64,1.29Z"/>
              <path class="cls-6" d="M67.25,47.33l-5.85,3.13-4.31-1.23c1.48-1.74,4.79-5.98,3.22-6.99l1.6.89,2.54,1.42,2.15,1.2c-.27-.02-.53-.03-.79-.05,1.01.95,1.44,1.64,1.44,1.64Z"/>
              <path class="cls-41" d="M55.28,40.75c-2.22,6.48,2.72.5,2.72.5l-2.72-.5Z"/>
              <path class="cls-41" d="M63.08,38.8c1.86,7.07,2.49-.5,2.49-.5l-2.49.5Z"/>
              <path class="cls-41" d="M42.9,38.99c.73,6.44,2.95-.68,2.95-.68l-2.95.68Z"/>
              <path class="cls-41" d="M26.72,37.99c1.9,7.98,2.95-.63,2.95-.63l-2.95.63Z"/>
            </g>
          </g>
        </g>
      </g>
    </g>
  </g>
</svg>