<?xml version="1.0" encoding="UTF-8"?>
<svg xmlns="http://www.w3.org/2000/svg" xmlns:xlink="http://www.w3.org/1999/xlink" viewBox="0 0 92.87 97.33">
  <defs>
    <style>
      .cls-1 {
        fill: none;
      }

      .cls-2 {
        fill: #ffe0e1;
      }

      .cls-3 {
        fill: url(#radial-gradient-5);
      }

      .cls-3, .cls-4, .cls-5, .cls-6, .cls-7, .cls-8, .cls-9, .cls-10, .cls-11, .cls-12, .cls-13, .cls-14, .cls-15, .cls-16, .cls-17, .cls-18, .cls-19, .cls-20, .cls-21, .cls-22 {
        mix-blend-mode: screen;
      }

      .cls-4 {
        fill: url(#radial-gradient-6);
      }

      .cls-5, .cls-23, .cls-24 {
        opacity: .3;
      }

      .cls-5, .cls-25 {
        fill: #ff5252;
      }

      .cls-26, .cls-27, .cls-28 {
        fill: #defff4;
      }

      .cls-29 {
        fill: #bd3ea9;
      }

      .cls-29, .cls-30, .cls-31, .cls-32, .cls-33, .cls-34, .cls-35, .cls-36, .cls-37, .cls-38, .cls-39, .cls-40, .cls-41, .cls-42, .cls-43, .cls-44, .cls-45, .cls-46, .cls-47, .cls-48, .cls-49, .cls-50, .cls-51, .cls-52, .cls-53, .cls-54, .cls-55 {
        mix-blend-mode: multiply;
      }

      .cls-29, .cls-30, .cls-31, .cls-56, .cls-40, .cls-57, .cls-58, .cls-59, .cls-43, .cls-60, .cls-61, .cls-55 {
        opacity: .5;
      }

      .cls-62 {
        fill: #9380ff;
      }

      .cls-63, .cls-64, .cls-21, .cls-22 {
        fill: #fa0;
      }

      .cls-65 {
        fill: url(#linear-gradient-5);
      }

      .cls-66 {
        fill: url(#linear-gradient-6);
      }

      .cls-67 {
        fill: url(#linear-gradient-9);
      }

      .cls-68 {
        fill: url(#linear-gradient-2);
      }

      .cls-6 {
        fill: url(#_ŃŚÁŻž_ŪŪŻť_ūŗšŤŚŪÚ_31762-3);
      }

      .cls-6, .cls-7, .cls-8, .cls-9, .cls-10, .cls-11, .cls-12, .cls-13, .cls-14, .cls-15, .cls-16, .cls-18 {
        opacity: .63;
      }

      .cls-7 {
        fill: url(#_ŃŚÁŻž_ŪŪŻť_ūŗšŤŚŪÚ_31762-2);
      }

      .cls-8 {
        fill: url(#_ŃŚÁŻž_ŪŪŻť_ūŗšŤŚŪÚ_31762-5);
      }

      .cls-9 {
        fill: url(#_ŃŚÁŻž_ŪŪŻť_ūŗšŤŚŪÚ_31762-4);
      }

      .cls-10 {
        fill: url(#_ŃŚÁŻž_ŪŪŻť_ūŗšŤŚŪÚ_31762-9);
      }

      .cls-11 {
        fill: url(#_ŃŚÁŻž_ŪŪŻť_ūŗšŤŚŪÚ_31762-6);
      }

      .cls-12 {
        fill: url(#_ŃŚÁŻž_ŪŪŻť_ūŗšŤŚŪÚ_31762-7);
      }

      .cls-13 {
        fill: url(#_ŃŚÁŻž_ŪŪŻť_ūŗšŤŚŪÚ_31762-8);
      }

      .cls-69, .cls-70 {
        fill: #dfff6b;
      }

      .cls-69, .cls-70, .cls-71, .cls-64, .cls-72, .cls-28, .cls-24, .cls-73, .cls-60, .cls-74, .cls-61 {
        mix-blend-mode: soft-light;
      }

      .cls-69, .cls-32, .cls-35, .cls-22 {
        opacity: .2;
      }

      .cls-70, .cls-42, .cls-73, .cls-74 {
        opacity: .8;
      }

      .cls-75 {
        fill: url(#radial-gradient-3);
      }

      .cls-75, .cls-56, .cls-57, .cls-58, .cls-59 {
        mix-blend-mode: color-dodge;
      }

      .cls-14 {
        fill: url(#_ŃŚÁŻž_ŪŪŻť_ūŗšŤŚŪÚ_31762-10);
      }

      .cls-15 {
        fill: url(#_ŃŚÁŻž_ŪŪŻť_ūŗšŤŚŪÚ_31762-11);
      }

      .cls-16 {
        fill: url(#_ŃŚÁŻž_ŪŪŻť_ūŗšŤŚŪÚ_31762-12);
      }

      .cls-30 {
        fill: #ffcfdb;
      }

      .cls-23, .cls-27, .cls-76, .cls-77 {
        mix-blend-mode: overlay;
      }

      .cls-23, .cls-40, .cls-41, .cls-42, .cls-77 {
        fill: #cf4a76;
      }

      .cls-31 {
        fill: #be2f55;
      }

      .cls-78 {
        fill: url(#linear-gradient);
      }

      .cls-32, .cls-33 {
        fill: #ff2660;
      }

      .cls-33, .cls-34 {
        opacity: .1;
      }

      .cls-17 {
        fill: #ffc7f4;
        opacity: .6;
      }

      .cls-71 {
        fill: #7fff6b;
      }

      .cls-34, .cls-35 {
        fill: #f42774;
      }

      .cls-64, .cls-21 {
        opacity: .4;
      }

      .cls-79 {
        isolation: isolate;
      }

      .cls-80 {
        fill: #ffde24;
      }

      .cls-81 {
        fill: #ffc021;
      }

      .cls-82 {
        fill: #ff6b04;
      }

      .cls-83 {
        fill: #ffcf21;
      }

      .cls-76 {
        fill: #ff5b91;
      }

      .cls-18 {
        fill: url(#_ŃŚÁŻž_ŪŪŻť_ūŗšŤŚŪÚ_31762);
      }

      .cls-72, .cls-84, .cls-24, .cls-73, .cls-60 {
        fill: #fff;
      }

      .cls-36 {
        fill: url(#linear-gradient-8);
      }

      .cls-36, .cls-37, .cls-38, .cls-39, .cls-41, .cls-45, .cls-46, .cls-47, .cls-48, .cls-49, .cls-50, .cls-51, .cls-52, .cls-53, .cls-54 {
        opacity: .7;
      }

      .cls-37 {
        fill: url(#linear-gradient-7);
      }

      .cls-38 {
        fill: url(#linear-gradient-3);
      }

      .cls-39 {
        fill: url(#linear-gradient-4);
      }

      .cls-85 {
        fill: #7a1127;
      }

      .cls-86 {
        fill: #ff96ab;
      }

      .cls-19 {
        fill: url(#linear-gradient-27);
      }

      .cls-20 {
        fill: url(#linear-gradient-28);
      }

      .cls-87 {
        fill: url(#linear-gradient-12);
      }

      .cls-88 {
        fill: url(#linear-gradient-21);
      }

      .cls-89 {
        fill: url(#linear-gradient-20);
      }

      .cls-90 {
        fill: url(#linear-gradient-25);
      }

      .cls-91 {
        fill: url(#linear-gradient-31);
      }

      .cls-92 {
        fill: url(#linear-gradient-30);
      }

      .cls-93 {
        fill: url(#linear-gradient-15);
      }

      .cls-94 {
        fill: url(#linear-gradient-24);
      }

      .cls-95 {
        fill: url(#linear-gradient-26);
      }

      .cls-96 {
        fill: url(#linear-gradient-29);
      }

      .cls-57 {
        fill: url(#radial-gradient-2);
      }

      .cls-58 {
        fill: url(#radial-gradient-4);
      }

      .cls-97 {
        fill: #ffe894;
      }

      .cls-59 {
        fill: url(#radial-gradient);
      }

      .cls-98 {
        fill: #ff666b;
      }

      .cls-43 {
        fill: #f593e6;
      }

      .cls-99 {
        fill: #ffe921;
      }

      .cls-100 {
        fill: #75edff;
      }

      .cls-44, .cls-55 {
        fill: #c25572;
      }

      .cls-101 {
        fill: #f4ff80;
      }

      .cls-74 {
        fill: #aeff00;
      }

      .cls-45 {
        fill: url(#linear-gradient-10);
      }

      .cls-46 {
        fill: url(#linear-gradient-11);
      }

      .cls-47 {
        fill: url(#linear-gradient-13);
      }

      .cls-48 {
        fill: url(#linear-gradient-18);
      }

      .cls-49 {
        fill: url(#linear-gradient-16);
      }

      .cls-50 {
        fill: url(#linear-gradient-17);
      }

      .cls-51 {
        fill: url(#linear-gradient-19);
      }

      .cls-52 {
        fill: url(#linear-gradient-14);
      }

      .cls-53 {
        fill: url(#linear-gradient-22);
      }

      .cls-54 {
        fill: url(#linear-gradient-23);
      }

      .cls-102 {
        fill: #fcff34;
      }

      .cls-61 {
        fill: #ff8a8a;
      }

      .cls-103 {
        clip-path: url(#clippath);
      }

      .cls-104 {
        fill: #ffdb57;
      }

      .cls-105 {
        fill: #d43f00;
      }

      .cls-106 {
        fill: #c8ffa6;
      }
    </style>
    <linearGradient id="linear-gradient" x1="72.02" y1="50.12" x2="64.31" y2="61.6" gradientTransform="translate(92.87) rotate(-180) scale(1 -1)" gradientUnits="userSpaceOnUse">
      <stop offset="0" stop-color="#ffc400"/>
      <stop offset="1" stop-color="#ff6200"/>
    </linearGradient>
    <linearGradient id="linear-gradient-2" x1="67.18" y1="32.43" x2="81.13" y2="53.43" xlink:href="#linear-gradient"/>
    <linearGradient id="linear-gradient-3" x1="1139.82" y1="63.76" x2="1079.67" y2="-24.13" gradientTransform="translate(-1113.02)" gradientUnits="userSpaceOnUse">
      <stop offset="0" stop-color="#ffcff2"/>
      <stop offset="1" stop-color="#bf0000"/>
    </linearGradient>
    <linearGradient id="linear-gradient-4" x1="1127.35" y1="58.18" x2="1120.15" y2="27.55" xlink:href="#linear-gradient-3"/>
    <linearGradient id="linear-gradient-5" x1="65.37" y1="57.23" x2="33.35" y2="123.55" xlink:href="#linear-gradient"/>
    <linearGradient id="linear-gradient-6" x1="92.82" y1="68.28" x2="21.24" y2="72.97" xlink:href="#linear-gradient"/>
    <linearGradient id="linear-gradient-7" x1="37.3" y1="77.44" x2="58.4" y2="38.49" gradientTransform="translate(92.87) rotate(-180) scale(1 -1)" xlink:href="#linear-gradient-3"/>
    <linearGradient id="linear-gradient-8" x1="48.55" y1="68.94" x2="49.09" y2="60.14" gradientTransform="translate(92.87) rotate(-180) scale(1 -1)" xlink:href="#linear-gradient-3"/>
    <linearGradient id="linear-gradient-9" x1="92.64" y1="-8.56" x2="27.58" y2="70.66" xlink:href="#linear-gradient"/>
    <linearGradient id="linear-gradient-10" x1="47.78" y1="58.91" x2="50.69" y2="5.99" gradientTransform="translate(92.87) rotate(-180) scale(1 -1)" xlink:href="#linear-gradient-3"/>
    <linearGradient id="linear-gradient-11" x1="44.07" y1="50.47" x2="42.9" y2="32.12" gradientTransform="translate(92.87) rotate(-180) scale(1 -1)" xlink:href="#linear-gradient-3"/>
    <linearGradient id="linear-gradient-12" x1="92.25" y1="-11.65" x2="8.84" y2="75.64" xlink:href="#linear-gradient"/>
    <linearGradient id="linear-gradient-13" x1="75.7" y1="5.49" x2="-50.02" y2="137.93" gradientTransform="translate(92.87) rotate(-180) scale(1 -1)" xlink:href="#linear-gradient-3"/>
    <linearGradient id="linear-gradient-14" x1="31.66" y1="43.7" x2="19.93" y2="13.16" gradientTransform="translate(92.87) rotate(-180) scale(1 -1)" xlink:href="#linear-gradient-3"/>
    <linearGradient id="linear-gradient-15" x1="48.98" y1="17.61" x2="48.98" y2="38.25" gradientTransform="translate(92.87) rotate(-180) scale(1 -1)" gradientUnits="userSpaceOnUse">
      <stop offset="0" stop-color="#780028"/>
      <stop offset="1" stop-color="#ff6200"/>
    </linearGradient>
    <linearGradient id="linear-gradient-16" x1="51.01" y1="80.28" x2="-1.22" y2="77.22" gradientTransform="translate(92.87) rotate(-180) scale(1 -1)" xlink:href="#linear-gradient-3"/>
    <linearGradient id="linear-gradient-17" x1="65.16" y1="96.96" x2="-22.93" y2="63.92" gradientTransform="translate(92.87) rotate(-180) scale(1 -1)" xlink:href="#linear-gradient-3"/>
    <linearGradient id="linear-gradient-18" x1="62.2" y1="22.96" x2="62.5" y2="29.69" gradientTransform="translate(92.87) rotate(-180) scale(1 -1)" xlink:href="#linear-gradient-3"/>
    <linearGradient id="linear-gradient-19" x1="41.22" y1="44.96" x2="31.43" y2="71.58" gradientTransform="translate(92.87) rotate(-180) scale(1 -1)" xlink:href="#linear-gradient-3"/>
    <linearGradient id="linear-gradient-20" x1="32.56" y1="40.53" x2="21.98" y2="69.28" xlink:href="#linear-gradient-15"/>
    <linearGradient id="linear-gradient-21" x1="10.76" y1="28.44" x2="29.55" y2="56.73" xlink:href="#linear-gradient"/>
    <linearGradient id="linear-gradient-22" x1="35.46" y1="43.47" x2="17.28" y2="29.66" gradientTransform="translate(92.87) rotate(-180) scale(1 -1)" xlink:href="#linear-gradient-3"/>
    <linearGradient id="linear-gradient-23" x1="9.37" y1="40.43" x2="26.66" y2="66.46" gradientTransform="translate(92.87) rotate(-180) scale(1 -1)" xlink:href="#linear-gradient-3"/>
    <clipPath id="clippath">
      <path class="cls-1" d="M38.29,29.69c1.84.08,3.83.14,5.96.17,14.22.19,21.22-1.68,21.22-2.67,0-1.23,13.42-23.36,3.15-23.28C66.96,3.92,20.43-.09,18.7,0c-8.21.44,3.79,26.45,3.6,27.18-.2.75,5.52,2.02,15.99,2.51Z"/>
    </clipPath>
    <linearGradient id="linear-gradient-24" x1="73.77" y1="69.92" x2="72.96" y2="44.36" gradientTransform="translate(127.55 -28.1) rotate(-173.42) scale(1 -1)" gradientUnits="userSpaceOnUse">
      <stop offset="0" stop-color="#04ff00"/>
      <stop offset="1" stop-color="#062"/>
    </linearGradient>
    <linearGradient id="linear-gradient-25" x1="891.37" y1="275.47" x2="889.93" y2="258.33" gradientTransform="translate(-881.74 -148.2) rotate(27.45) scale(1 -1)" gradientUnits="userSpaceOnUse">
      <stop offset="0" stop-color="#ff1500"/>
      <stop offset="1" stop-color="#8f0040"/>
    </linearGradient>
    <linearGradient id="linear-gradient-26" x1="-273.56" y1="480.27" x2="-274.7" y2="458.8" gradientTransform="translate(-279.72 -402.59) rotate(172.15) scale(1 -1)" gradientUnits="userSpaceOnUse">
      <stop offset="0" stop-color="#00ffae"/>
      <stop offset="1" stop-color="#07f"/>
    </linearGradient>
    <linearGradient id="linear-gradient-27" x1="-282.5" y1="476.02" x2="-269.33" y2="476.02" gradientTransform="translate(-279.72 -402.59) rotate(172.15) scale(1 -1)" gradientUnits="userSpaceOnUse">
      <stop offset="0" stop-color="#69ffcf"/>
      <stop offset=".1" stop-color="#61ecc0"/>
      <stop offset=".31" stop-color="#4dbd99"/>
      <stop offset=".61" stop-color="#2e705b"/>
      <stop offset=".97" stop-color="#030706"/>
      <stop offset="1" stop-color="#000"/>
    </linearGradient>
    <linearGradient id="linear-gradient-28" x1="-281.96" y1="475.02" x2="-270.83" y2="475.02" xlink:href="#linear-gradient-27"/>
    <linearGradient id="linear-gradient-29" x1="65.63" y1="-286.47" x2="98.12" y2="-286.16" gradientTransform="translate(-25.05 320.7) rotate(-150.27) scale(1 -1)" gradientUnits="userSpaceOnUse">
      <stop offset="0" stop-color="#ff5ed4"/>
      <stop offset=".02" stop-color="#fb56c6"/>
      <stop offset=".05" stop-color="#f041a4"/>
      <stop offset=".1" stop-color="#e01f6c"/>
      <stop offset=".14" stop-color="#d10038"/>
      <stop offset=".72" stop-color="#ff6a03"/>
      <stop offset="1" stop-color="#ffff04"/>
    </linearGradient>
    <linearGradient id="linear-gradient-30" x1="111.66" y1="-279.85" x2="36.36" y2="-305.46" gradientTransform="translate(-25.05 320.7) rotate(-150.27) scale(1 -1)" gradientUnits="userSpaceOnUse">
      <stop offset="0" stop-color="#ff6a03"/>
      <stop offset="1" stop-color="#ffff04"/>
    </linearGradient>
    <linearGradient id="linear-gradient-31" x1="34.85" y1="85.43" x2="34.98" y2="88.96" gradientTransform="translate(92.87) rotate(-180) scale(1 -1)" gradientUnits="userSpaceOnUse">
      <stop offset="0" stop-color="#6e0000"/>
      <stop offset="1" stop-color="#bd1200"/>
    </linearGradient>
    <radialGradient id="radial-gradient" cx="57.27" cy="31.36" fx="57.27" fy="31.36" r="8.82" gradientTransform="translate(92.87) rotate(-180) scale(1 -1)" gradientUnits="userSpaceOnUse">
      <stop offset="0" stop-color="#ffda47"/>
      <stop offset=".12" stop-color="#c6a937"/>
      <stop offset=".24" stop-color="#927d28"/>
      <stop offset=".37" stop-color="#65561c"/>
      <stop offset=".5" stop-color="#403712"/>
      <stop offset=".62" stop-color="#241f0a"/>
      <stop offset=".75" stop-color="#100d04"/>
      <stop offset=".88" stop-color="#040301"/>
      <stop offset="1" stop-color="#000"/>
    </radialGradient>
    <radialGradient id="radial-gradient-2" cx="56.11" cy="23.37" fx="56.11" fy="23.37" r="8.82" xlink:href="#radial-gradient"/>
    <radialGradient id="radial-gradient-3" cx="33.5" cy="22.55" fx="33.5" fy="22.55" r="8.82" gradientTransform="translate(96.02 5.6) rotate(-170.87) scale(1 -1)" gradientUnits="userSpaceOnUse">
      <stop offset="0" stop-color="#479aff"/>
      <stop offset=".12" stop-color="#3777c6"/>
      <stop offset=".24" stop-color="#285892"/>
      <stop offset=".37" stop-color="#1c3d65"/>
      <stop offset=".5" stop-color="#122740"/>
      <stop offset=".62" stop-color="#0a1624"/>
      <stop offset=".75" stop-color="#040910"/>
      <stop offset=".88" stop-color="#010204"/>
      <stop offset="1" stop-color="#000"/>
    </radialGradient>
    <radialGradient id="radial-gradient-4" cx="57.1" cy="88.86" fx="57.1" fy="88.86" r="5.87" xlink:href="#radial-gradient"/>
    <radialGradient id="radial-gradient-5" cx="12.87" cy="136.08" fx="12.87" fy="136.08" r="3.3" gradientTransform="translate(20.78 -111.15) rotate(167.71) scale(1 -1)" gradientUnits="userSpaceOnUse">
      <stop offset=".04" stop-color="#fff"/>
      <stop offset=".15" stop-color="#d1d1d1"/>
      <stop offset=".33" stop-color="#929292"/>
      <stop offset=".49" stop-color="#5e5e5e"/>
      <stop offset=".65" stop-color="#353535"/>
      <stop offset=".79" stop-color="#181818"/>
      <stop offset=".91" stop-color="#060606"/>
      <stop offset="1" stop-color="#000"/>
    </radialGradient>
    <radialGradient id="_ŃŚÁŻž_ŪŪŻť_ūŗšŤŚŪÚ_31762" data-name="ŃŚÁŻžˇŪŪŻť „ūŗšŤŚŪÚ 31762" cx="970.83" cy="58.49" fx="970.83" fy="58.49" r="6.95" gradientTransform="translate(297.44 -128.81) rotate(167.71) scale(.3 -1.62) skewX(-.03)" gradientUnits="userSpaceOnUse">
      <stop offset=".04" stop-color="#ff0"/>
      <stop offset=".15" stop-color="#d1d100"/>
      <stop offset=".33" stop-color="#929200"/>
      <stop offset=".49" stop-color="#5e5e00"/>
      <stop offset=".65" stop-color="#353500"/>
      <stop offset=".79" stop-color="#181800"/>
      <stop offset=".91" stop-color="#060600"/>
      <stop offset="1" stop-color="#000"/>
    </radialGradient>
    <radialGradient id="_ŃŚÁŻž_ŪŪŻť_ūŗšŤŚŪÚ_31762-2" data-name="ŃŚÁŻžˇŪŪŻť „ūŗšŤŚŪÚ 31762" cx="3404.95" cy="58.54" fx="3404.95" fy="58.54" r="6.95" gradientTransform="translate(369.12 -144.42) rotate(167.72) scale(.11 -1.62) skewX(-.26)" xlink:href="#_ŃŚÁŻž_ŪŪŻť_ūŗšŤŚŪÚ_31762"/>
    <radialGradient id="_ŃŚÁŻž_ŪŪŻť_ūŗšŤŚŪÚ_31762-3" data-name="ŃŚÁŻžˇŪŪŻť „ūŗšŤŚŪÚ 31762" cx="459.44" cy="-302.14" fx="459.44" fy="-302.14" r="6.95" gradientTransform="translate(519.37 -192.84) rotate(77.7) scale(.24 -1.71) skewX(.07)" xlink:href="#_ŃŚÁŻž_ŪŪŻť_ūŗšŤŚŪÚ_31762"/>
    <radialGradient id="_ŃŚÁŻž_ŪŪŻť_ūŗšŤŚŪÚ_31762-4" data-name="ŃŚÁŻžˇŪŪŻť „ūŗšŤŚŪÚ 31762" cx="2383.23" cy="-302.14" fx="2383.23" fy="-302.14" r="6.95" gradientTransform="translate(505.33 -256.96) rotate(77.68) scale(.07 -1.71) skewX(.59)" xlink:href="#_ŃŚÁŻž_ŪŪŻť_ūŗšŤŚŪÚ_31762"/>
    <radialGradient id="_ŃŚÁŻž_ŪŪŻť_ūŗšŤŚŪÚ_31762-5" data-name="ŃŚÁŻžˇŪŪŻť „ūŗšŤŚŪÚ 31762" cx="2744.34" cy="-175.3" fx="2744.34" fy="-175.3" r="6.95" gradientTransform="translate(430.54 -167.77) rotate(122.7) scale(.14 -1.3) skewX(.07)" xlink:href="#_ŃŚÁŻž_ŪŪŻť_ūŗšŤŚŪÚ_31762"/>
    <radialGradient id="_ŃŚÁŻž_ŪŪŻť_ūŗšŤŚŪÚ_31762-6" data-name="ŃŚÁŻžˇŪŪŻť „ūŗšŤŚŪÚ 31762" cx="-1419.08" cy="-398.92" fx="-1419.08" fy="-398.92" r="6.95" gradientTransform="translate(479.37 -305.77) rotate(32.7) scale(.14 -1.3) skewX(.07)" xlink:href="#_ŃŚÁŻž_ŪŪŻť_ūŗšŤŚŪÚ_31762"/>
    <radialGradient id="radial-gradient-6" cx="-33.55" cy="146.28" fx="-33.55" fy="146.28" r="1.88" gradientTransform="translate(118.24 170.93) scale(1 -1)" xlink:href="#radial-gradient-5"/>
    <radialGradient id="_ŃŚÁŻž_ŪŪŻť_ūŗšŤŚŪÚ_31762-7" data-name="ŃŚÁŻžˇŪŪŻť „ūŗšŤŚŪÚ 31762" cx="813.8" cy="64.74" fx="813.8" fy="64.74" r="3.96" xlink:href="#_ŃŚÁŻž_ŪŪŻť_ūŗšŤŚŪÚ_31762"/>
    <radialGradient id="_ŃŚÁŻž_ŪŪŻť_ūŗšŤŚŪÚ_31762-8" data-name="ŃŚÁŻžˇŪŪŻť „ūŗšŤŚŪÚ 31762" cx="2966.35" cy="64.78" fx="2966.35" fy="64.78" r="3.96" gradientTransform="translate(369.12 -144.42) rotate(167.72) scale(.11 -1.62) skewX(-.26)" xlink:href="#_ŃŚÁŻž_ŪŪŻť_ūŗšŤŚŪÚ_31762"/>
    <radialGradient id="_ŃŚÁŻž_ŪŪŻť_ūŗšŤŚŪÚ_31762-9" data-name="ŃŚÁŻžˇŪŪŻť „ūŗšŤŚŪÚ 31762" cx="502.15" cy="-275.04" fx="502.15" fy="-275.04" r="3.96" gradientTransform="translate(555.71 -95.31) rotate(89.99) scale(.24 -1.71) skewX(.07)" xlink:href="#_ŃŚÁŻž_ŪŪŻť_ūŗšŤŚŪÚ_31762"/>
    <radialGradient id="_ŃŚÁŻž_ŪŪŻť_ūŗšŤŚŪÚ_31762-10" data-name="ŃŚÁŻžˇŪŪŻť „ūŗšŤŚŪÚ 31762" cx="2521.89" cy="-275.04" fx="2521.89" fy="-275.04" r="3.96" gradientTransform="translate(505.33 -256.96) rotate(77.68) scale(.07 -1.71) skewX(.59)" xlink:href="#_ŃŚÁŻž_ŪŪŻť_ūŗšŤŚŪÚ_31762"/>
    <radialGradient id="_ŃŚÁŻž_ŪŪŻť_ūŗšŤŚŪÚ_31762-11" data-name="ŃŚÁŻžˇŪŪŻť „ūŗšŤŚŪÚ 31762" cx="2556.66" cy="-144.39" fx="2556.66" fy="-144.39" r="3.96" gradientTransform="translate(430.54 -167.77) rotate(122.7) scale(.14 -1.3) skewX(.07)" xlink:href="#_ŃŚÁŻž_ŪŪŻť_ūŗšŤŚŪÚ_31762"/>
    <radialGradient id="_ŃŚÁŻž_ŪŪŻť_ūŗšŤŚŪÚ_31762-12" data-name="ŃŚÁŻžˇŪŪŻť „ūŗšŤŚŪÚ 31762" cx="-1125.61" cy="-379.17" fx="-1125.61" fy="-379.17" r="3.96" gradientTransform="translate(479.37 -305.77) rotate(32.7) scale(.14 -1.3) skewX(.07)" xlink:href="#_ŃŚÁŻž_ŪŪŻť_ūŗšŤŚŪÚ_31762"/>
  </defs>
  <g class="cls-79">
    <g id="Ebene_2" data-name="Ebene 2">
      <g id="factory_milk" data-name="factory milk">
        <g>
          <g>
            <g>
              <path class="cls-101" d="M16.74,21.92s-12.62-.18-13.3.63S-.78,43.2.16,46.65c.94,3.45,9.48,10.45,9.48,10.45,0,0-4.16-27.1-1.52-29.62s8.62-5.57,8.62-5.57Z"/>
              <path class="cls-78" d="M20.95,63.76s16.31-2.86,16.11-3.01c-.21-.14-5.46-2.83-5.46-2.83l-10.65,5.84Z"/>
              <path class="cls-44" d="M20.95,63.76s16.31-2.86,16.11-3.01c-.21-.14-5.46-2.83-5.46-2.83l-10.65,5.84Z"/>
              <path class="cls-68" d="M1.08,45.94c.03.15.08.3.12.46.01.04.03.09.04.13.02.06.04.12.06.18.02.07.05.14.08.21,1.54,3.99,7.21,9.72,12.46,13.63,2.77,2.06,5.38,3.39,7.11,3.21.17-.02.33-.04.5-.06,1.12-.17,11-2.5,12.11-2.94,3.93-1.56-1.13-1.4-.89-1.8.01-.01.01-.03.01-.04s0-.06-.02-.12c0,0,0-.02,0-.03,0-.03-.01-.07-.03-.12,0-.04-.02-.09-.03-.14,0-.03-.01-.05-.02-.08-.01-.05-.03-.11-.04-.17,0-.03-.02-.06-.03-.1,0-.01,0-.02-.01-.04-.01-.06-.03-.12-.05-.19s-.04-.13-.06-.2c-.02-.07-.04-.14-.06-.22-.68-2.4-.67-3.01-1.34-3.01-.44,0-2.71.7-5.05,1.41-2.43.74-4.93,1.48-5.49,1.44-.1,0-.22-.07-.38-.18-1.56-1.16-7.22-11.54-7.72-13.77-.54-2.45.55-11.81,1.9-11.7.18.01.46.17.82.43.05.04.1.08.15.12.01,0,.02.02.03.03h.01v.02c.16.13.34.28.53.45.08.06.15.13.22.2.16.15.33.31.51.47.08.07.15.15.23.23l.06.06c.11.11.22.22.33.33.11.11.22.22.34.34.11.12.22.23.34.35.46.47.92.97,1.36,1.45.15.17.3.33.45.49.22.25.44.49.65.72,1.15,1.28,1.99,2.27,1.99,2.27l3.02-3.45,2.76-3.15.42-.48.11-.12.04-.06,1.99-2.26s-1.49-1.08-3.47-2.46c-.33-.23-.67-.47-1.02-.71-.08-.06-.16-.12-.25-.17-.24-.16-.47-.33-.72-.49-.67-.46-1.36-.92-2.04-1.37-.33-.22-.65-.42-.97-.63-2.03-1.3-3.8-2.33-4.44-2.4-.55-.06-1.83-.02-3.4.08-3.71.24-9.02.8-9.93,1.04-.02,0-.04.01-.06.03-.01.01-.03.02-.05.04-.02.01-.04.03-.05.05-.01.01-.02.02-.03.04-.02.02-.03.04-.05.06,0,.01-.01.02-.02.03,0,0-.01.02-.02.03-.02.03-.04.06-.05.09l-.03.06s-.03.04-.04.06c0,0,0,0,0,.01-.05.1-.1.21-.15.34C2.36,27.4-.05,40.76,1.08,45.94Z"/>
              <path class="cls-38" d="M20.63,60.28c-3.15.12-10.68-7.39-14.26-11.92-.93-1.18-1.6-2.17-1.84-2.75-.05-.11-.08-.2-.09-.28-.56-2.9,1.3-17.05,3.18-17.51,1.66-.4,6.33,3.39,7.42,4.3.06.05.11.1.15.13-.04-.03-.08-.06-.11-.09-.35-.26-.63-.41-.82-.43-1.24-.1-2.26,7.73-2.01,10.93.02.3.06.56.1.77.5,2.23,6.16,12.6,7.72,13.77.15.11.28.18.38.18-.39.27-.23,2.56.17,2.9Z"/>
              <path class="cls-99" d="M30.65,30.17l-2.03,2.32-4.88,2.8c-.37-.39-1.24-1.23-2.42-2.3-4.19-3.81-12.37-10.52-16.9-9.92.91-.24,6.21-.8,9.92-1.04,1.57-.1,2.85-.14,3.4-.08.64.07,2.41,1.1,4.44,2.4.32.21.64.41.97.63,3.57,2.34,7.5,5.19,7.5,5.19Z"/>
              <path class="cls-21" d="M21.64,32.55c-1.69-1.11-9.69-6.32-9.99-7.65-.31-1.33,4.33-3.11,6.42-2.45,2.09.66,7.59,4.54,7.68,5.33s-3.15,5.4-4.11,4.77Z"/>
              <g class="cls-56">
                <path class="cls-64" d="M1.08,45.94c.03.15.08.3.12.46.01.04.03.09.04.13s.03.09.04.13l.02.04c.02.07.05.14.08.21,1.54,3.99,7.21,9.72,12.46,13.63,2.77,2.06,5.38,3.39,7.11,3.21.17-.02.33-.09.5-.06,1.12-.17,11-2.5,12.11-2.94,3.93-1.56-1.13-1.4-.89-1.8.01-.01.01-.03.01-.04s0-.06-.02-.12c0,0,0-.02,0-.03,0-.03-.01-.07-.03-.12,0-.04-.02-.09-.03-.14,0-.03-.01-.05-.02-.08-.01-.05-.03-.11-.04-.17,0-.03-.02-.06-.03-.1,0-.01,0-.02-.01-.04-.01-.06-.03-.12-.05-.19s-.04-.13-.06-.2c-.02-.07-.04-.14-.06-.22l-1.22-1.81-.43-.63s-.83.71-2.09,1.59c0,0,0,0,0,0-.37.26,1.23.96.79,1.24-2.02,1.31-6.63,2.27-8.75,2.35-3.15.13-10.68-7.39-14.26-11.92-1.11-1.4-1.83-2.53-1.93-3.03-.56-2.91,1.3-17.05,3.19-17.51,1.66-.4,6.33,3.39,7.42,4.3.09.07.15.13.19.16.01,0,.02.02.03.03h.01v.02c.16.13.34.28.53.45.08.06.15.13.22.2.07.06.14.13.21.19.09.08.18.17.26.25.09.08.18.17.27.26l.06.06c.11.11.22.22.33.33.11.11.22.22.34.34.11.12.22.23.34.35.46.47.92.97,1.36,1.45.15.17.3.33.45.49.22.25.44.49.65.72,1.15,1.28,1.99,2.27,1.99,2.27l3.02-3.45-1.38-.73s-.08-.09-.21-.22c-.37-.38-1.24-1.22-2.42-2.3-4.19-3.81-12.36-10.52-16.9-9.92-.02,0-.04.01-.06.03-.01.01-.03.02-.05.04-.02.01-.04.03-.05.05-.01.01-.02.02-.03.04-.02.02-.03.04-.05.06,0,.01-.01.02-.02.03,0,0-.01.02-.02.03-.02.03-.04.06-.05.09h0s-.02.04-.03.06c-.01.02-.03.04-.04.06,0,0,0,0,0,.01-.02.04-.04.08-.06.12-.03.07-.06.14-.1.22C2.36,27.4-.05,40.76,1.08,45.94Z"/>
              </g>
              <path class="cls-63" d="M29.27,58.15s-5.46,2.85-8.78,2.6c-3.32-.25-8.93-6.67-8.93-6.67,0,0,5,5.56,9.24,5.89,4.24.33,8.48-1.82,8.48-1.82Z"/>
              <path class="cls-39" d="M6.37,48.36c-1.11-1.4-1.84-2.52-1.93-3.03-.56-2.9,1.3-17.05,3.18-17.51,1.66-.4,6.33,3.39,7.42,4.3,0,.01.02.03.03.04-.35-.26-.63-.41-.82-.43-1.36-.11-2.45,9.25-1.9,11.7.5,2.23,6.16,12.6,7.72,13.77.26,2.16-9.19-5.67-13.71-8.83Z"/>
              <path class="cls-102" d="M4.68,23.02s4.96-1.05,8.27,0c3.31,1.05,4.59,6.61,4.59,6.61,0,0-6.86-5.66-12.85-6.6Z"/>
              <path class="cls-60" d="M3.91,46.07c-2.83-1.56-2.37-21.76.88-22.75,3.25-.99,13.22,5.98,11.46,9.29-.22.41-6.64-6.66-9.47-4.58-2.83,2.07-2.1,18.47-2.87,18.05Z"/>
              <path class="cls-55" d="M15.2,32.24s-.08-.06-.11-.09c-.35-.26-.63-.41-.82-.43-1.24-.1-2.26,7.73-2.01,10.93-2.54-1.11-7.01,1-7.73,2.95-.05-.11-.08-.2-.09-.28-.56-2.9,1.3-17.05,3.18-17.51,1.66-.4,6.33,3.39,7.42,4.3.06.05.11.1.15.13Z"/>
              <path class="cls-21" d="M17.11,22.55c-1.28.28-1.3,3.03,1.06,2.81s.69-3.2-1.06-2.81Z"/>
            </g>
            <g>
              <path class="cls-62" d="M52.65,80.9s9.84.24,11.72,1.1c1.88.86,4,9.61,4,9.61l-15.72-10.71Z"/>
              <path class="cls-101" d="M36.98,72.84s-2.98,7.65-3.97,7.91-9.07.68-9.81,1.32-3.45,7.97-3.42,8.87c.03.9,15.61-1.08,16.61-7.34,1-6.26.59-10.77.59-10.77Z"/>
              <path class="cls-65" d="M19.62,92.42c1.01,1.46,13.41,4.91,24.37,4.91,10.96,0,23.36-3.45,24.37-4.91.56-.8-2.91-9.29-4.54-9.7-1.48-.37-3.49-.69-5.68-.97-5.14-.66-11.32-1.07-14.15-1.35-4.03.4-14.9,1.08-19.83,2.33-.95.24-2.51,3.21-3.56,5.81h0c-.75,1.87-1.22,3.55-.99,3.89Z"/>
              <path class="cls-83" d="M45.6,89.75c2.36-.05,4.45-.22,6.29-.47,10.96-1.5,13.01-6,11.94-6.56-.19-.05-.39-.1-.61-.14-.29-.07-.6-.13-.93-.19-1.22-.23-2.64-.45-4.15-.64-5.14-.66-11.32-1.07-14.15-1.35-4.03.4-14.9,1.08-19.83,2.33-.79,1.63,4.97,7.39,21.44,7.03Z"/>
              <path class="cls-30" d="M44.81,81.2c6-1.11,18.2,1.03,17.51,3.67-.69,2.64-9.79,4.78-20.04,3.02s-9.36-4.05-8.6-4.4c.76-.34,11.13-2.29,11.13-2.29Z"/>
              <path class="cls-66" d="M37.06,72.3c0,1.4-3.96,10.81-3.6,11.87.12.36.77.82,1.78,1.28,0,0,.01,0,.02,0,1.96.87,5.26,1.71,8.73,1.71,5.29,0,10.19-1.94,10.53-2.99.33-1-3.08-9.22-3.55-11.48-.04-.17-.06-.3-.06-.4,0-6.41,7.97-16.21,7.97-16.21h-29.8s6.02,7.41,7.6,13.56c.23.92.37,1.82.37,2.65Z"/>
              <path class="cls-37" d="M29.1,56.08s6.02,7.41,7.6,13.56c11.53-7.97,17.84,14.53,17.84,14.53.36-1.07-3.6-10.47-3.6-11.87,0-6.41,7.97-16.21,7.97-16.21h-29.8Z"/>
              <path class="cls-36" d="M54.35,62c-.06.96-3.21,7.32-8.45,6.67s-13.08-5.72-12.54-8.39,21.31-3.54,20.99,1.72Z"/>
              <path class="cls-62" d="M68.37,26.4s1.48,1.12,1.7,1.81c.22.69.65,13.02.3,13.21-.34.19-1.34.29-1.8.99-.46.7-5.1,17.91-7.32,18.93-2.21,1.02-14.95,2.43-14.95,2.43l22.07-37.38Z"/>
              <path class="cls-67" d="M19.62,39.04s.64,3.91,2.02,8.57h0c.8,2.7,1.83,5.64,3.15,8.23.59,1.17,1.24,2.28,1.94,3.25.97,1.35,6.75,4.6,17.27,4.69,3.6-.03,6.65-.43,9.14-1,.48-.11.95-.23,1.39-.35,2.32-.64,4.05-1.41,5.2-2.1.03-.02.06-.03.09-.05.32-.2.59-.38.81-.56.29-.23.51-.45.63-.62,2.22-3.07,3.88-7.42,5.03-11.29,0,0,0,0,0,0,1.41-4.75,2.07-8.75,2.07-8.75H19.62Z"/>
              <path class="cls-45" d="M19.62,39.04s.64,3.9,2.02,8.57c.15-2.06,10.93-4.97,25.62-.39,14.68,4.59,12.55,13.04,12.55,13.04h0c.74-.45,1.23-.87,1.45-1.18,4.95-6.83,7.11-20.05,7.11-20.05H19.62Z"/>
              <path class="cls-46" d="M67.07,40.03c2.28,2.15-2.65,12.44-6.02,12.34-3.36-.1-30.49-10.5-29.93-11.93.56-1.43,32.37-3.77,35.94-.41Z"/>
              <path class="cls-87" d="M17.7,37.74h0c.2,1.82.45,3.18.7,3.3.79.4,11.18,2.34,25.6,2.34s24.81-1.94,25.6-2.34c.79-.41,1.6-13.27.7-13.87-1.03-.67-4.97-1.78-11.05-2.57h0c-4.16-.54-9.32-.93-15.24-.93-14.57,0-24.57,2.37-26.3,3.51-.61.41-.43,6.59,0,10.57Z"/>
              <path class="cls-47" d="M17.7,37.75c.2,1.82.45,3.17.7,3.3.79.4,11.18,2.34,25.6,2.34s24.81-1.94,25.6-2.34c.79-.41,1.6-13.27.7-13.87-.26-.17-.71-.37-1.32-.58-1.83-.64-5.18-1.4-9.73-2h0c-1.21,2.79-2.43,5.68-2.43,5.68.77,1.3-3.44,10.9-12.27,12.31-8.83,1.41-25.99-1.32-26.84-4.85Z"/>
              <path class="cls-52" d="M58.73,30.79s7.65-.84,9.41.17c1.76,1.02,1.61,9.79,1.46,10.08.79-.41,1.6-13.27.7-13.87-.26-.17-.71-.37-1.32-.58l-10.25,4.19Z"/>
              <path class="cls-83" d="M17.7,27.18c.27,1.21,2.24,3.69,24.92,4.15,22.68.46,28.5-3.32,27.68-4.15-1.73-1.14-11.73-3.51-26.3-3.51-14.57,0-24.57,2.37-26.3,3.51Z"/>
              <path class="cls-93" d="M38.29,29.69c1.84.08,3.83.14,5.96.17,14.22.19,21.22-1.68,21.22-2.67,0-1.23-11.32-2.61-21.59-2.52-1.67.01-3.4.07-5.13.17-8.21.44-16.27,1.63-16.46,2.36-.2.75,5.52,2.02,15.99,2.51Z"/>
              <path class="cls-22" d="M37.79,72.47c3.75-3.66,9.86,0,11.36,4.7.99,3.14-1.22,8.49-4.89,9.25-3.67.76-9.29-1.64-9.48-3.02s1.3-9.25,3.02-10.94Z"/>
              <path class="cls-22" d="M44.33,70.4c3.53,1.17,3.26,10.68-2.5,10.35-5.76-.33-7.47-13.66,2.5-10.35Z"/>
              <path class="cls-63" d="M43.61,86.05c1.45-.99-2.02-2.72-3.38-3-1.51-.31-4,.54-3.36,1.5.63.97,5.12,2.61,6.75,1.5Z"/>
              <path class="cls-22" d="M39.94,71.98c2.83-.24,3.95,4.05.97,4.37-2.98.32-3.25-4.18-.97-4.37Z"/>
              <path class="cls-60" d="M51.18,31.59c2.32-.12-2.52,10.94-11.13,11.28-8.6.34-16.17-2.56-18.01-4.57s-3.12-8.36-2.42-8.43,16.07,2.52,31.55,1.72Z"/>
              <path class="cls-81" d="M40.12,31.26c1.07-.04-.1,5.49-6.73,4.57-6.63-.92-8.43-5.53-6.29-5.4,2.14.13,9.73.95,13.02.83Z"/>
              <path class="cls-60" d="M24.79,55.84c.59,1.17,1.24,2.28,1.94,3.25.97,1.34,6.74,4.6,17.27,4.69,8.08-.07,13.36-2.01,15.82-3.51.74-.45,1.23-.87,1.45-1.18,2.22-3.07,3.88-7.42,5.03-11.29-.22.47-8.65,17.31-26.37,14.9-7.69-1.05-12-4.36-15.13-6.86Z"/>
              <path class="cls-22" d="M56.77,53.02c2.36,2.24-8.18,12.66-20.26,9.29-12.08-3.36-16.06-13.76-12.81-15.49,3.25-1.72,24.47-1.95,33.07,6.19Z"/>
              <path class="cls-22" d="M45.3,48.35c2.3,1.42-4.44,14.34-11.13,12.16-6.69-2.18-9.21-12.62-6.88-13.46,2.33-.84,13.8-1.3,18.01,1.3Z"/>
              <path class="cls-22" d="M44.24,52.22c1.88.79.46,8.28-2.94,6.73-3.4-1.55-1.72-8.7,2.94-6.73Z"/>
              <path class="cls-81" d="M37.74,49.18c1.94.82,1.3,4.93-1.07,3.36-2.37-1.57-2.22-4.76,1.07-3.36Z"/>
              <path class="cls-49" d="M35.27,85.46c1.96.87,5.26,1.71,8.73,1.71,5.29,0,10.19-1.94,10.53-2.99.33-1-3.08-9.22-3.55-11.48.14,2.61.3,11.7-5.02,13.21-4.64,1.32-8.87.19-10.7-.45Z"/>
              <path class="cls-50" d="M19.62,92.42c1.01,1.46,13.41,4.91,24.37,4.91,10.96,0,23.36-3.45,24.37-4.91.56-.8-2.91-9.29-4.54-9.7,1.07.56-.98,5.06-11.94,6.56-.11,2.51-1.27,5.78-9.6,6.8-10.46,1.28-21.71-3.91-21.67-7.53-.75,1.87-1.22,3.55-.99,3.88Z"/>
              <path class="cls-22" d="M49.02,89.76c2.14-.09-6.27,7.52-14.95,5.87-8.68-1.64-9.79-9.75-8.95-9.6s7.38,4.4,23.9,3.72Z"/>
              <path class="cls-97" d="M39.72,89.53c.37,0-1.74-1.41-3.67-1.49-1.93-.08-3.2.3-3.03.52.16.22,5.27.95,6.7.97Z"/>
              <path class="cls-97" d="M40.01,31.22c.21-.08-1.22-1.33-3.61-1.53-2.38-.2-5.15.94-4.88,1.11.27.17,7.76.7,8.49.42Z"/>
              <path class="cls-97" d="M63.38,26.08c.31,0,.38-.62-1.82-1.13-2.2-.51-3.62.16-3.36.32.25.15,4.66.82,5.18.81Z"/>
              <path class="cls-48" d="M38.29,29.69c-.28-1.95,0-3.88.47-4.86-8.21.44-16.27,1.63-16.46,2.36-.2.75,5.52,2.02,15.99,2.51Z"/>
              <path class="cls-61" d="M59.56,26.03c1.61.67-2.77,3.58-5.65,2.87s-3.4-3.42-2.6-3.72c.8-.31,7.57.57,8.25.85Z"/>
              <path class="cls-105" d="M30.49,48.66s-1.59.27-2.65.95c-1.05.68-1.24,1.77-1.24,1.77,0,0,2.79-2.43,3.89-2.72Z"/>
              <path class="cls-105" d="M32.41,46.38s-1-.36-2.12-.26-1.6.48-1.6.48c0,0,3.18-.33,3.72-.23Z"/>
              <path class="cls-81" d="M32.41,46.38s-.56.15-1.82.24c-1.26.09-1.9,0-1.9,0,0,0,2.89-.45,3.72-.23Z"/>
              <path class="cls-81" d="M30.49,48.66s-1,.9-2.05,1.61c-1.05.71-1.84,1.1-1.84,1.1,0,0,2.47-2.34,3.89-2.72Z"/>
            </g>
            <path class="cls-55" d="M70.69,36.08s-.5,4.54-1.09,4.97c-.6.43-11.06,2-11.81,1.74-.75-.26-1.21-10.03-.5-10.22.72-.19,13.4,3.5,13.4,3.5Z"/>
            <path class="cls-51" d="M54.53,62.43c2.32-.64,4.05-1.41,5.2-2.1.03-.02.06-.03.09-.05.32-.2.59-.38.81-.56l-1.86-1.83s-4.09,3.14-4.25,4.54Z"/>
            <g>
              <path class="cls-55" d="M70.4,36.64s-1.33.75-4.8,1.03-6.53-.02-6.53-.02l11.33-1.01Z"/>
              <path class="cls-89" d="M58.81,57.87s4.2-.53,11.77-4.14c7.57-3.61-5.3,9.55-11.77,4.14Z"/>
              <path class="cls-62" d="M70.14,63.14s21.12-12.36,22.69-17.59c.6-2-6.06-23.26-7.42-24.1-1.36-.84-9.45-.94-11.3-.25-1.85.69-10.3,8.09-10.3,8.09,0,0,12.5-6.53,17.7-2.28s4.45,19.8,4.45,19.8l-15.81,16.34Z"/>
              <path class="cls-88" d="M58.27,61.17s.06.04.09.07c.72.54,2.13.62,3.56.8,3.73.47,7.36,1.33,8.22,1.09,3.42-.94,19.62-13.64,21.02-17.13.07-.15.1-.29.11-.41.37-4.26-4.14-21.25-6.57-23.22-.36-.3-4.56-.8-7.49-.75-.83.01-1.55.07-2.06.19h0c-.12.03-.22.06-.29.09-.02.01-.05.02-.08.04-.28.13-.81.43-1.52.84-4.18,2.44-14.46,8.97-14.63,9.74-.06.26-.09.79-.09,1.41h0c0,.85.05,1.85.17,2.6.08.55.19.96.33,1.08.02.02.03.03.05.04.52.19,10.92-.88,11.33-1.01,0,0,4.33-4.5,5.89-4.5.3,0,.6.33.87.89.23.45.44,1.05.63,1.73,0,.03.02.05.02.08,0,0,0,.02,0,.02.02.06.03.1.04.15,0,.02.01.04.02.06,0,.02,0,.04.01.05.02.07.03.11.03.11.03.11.05.21.08.32.03.1.05.21.08.32,0,0,0,0,0,.01.63,2.76.98,6.26.72,7.66-.13.71-1.47,2.17-3.32,3.89-4.56,4.25-12.23,10.07-12.57,10.07-.74,0-3.81.27-4.1.37-.71.23-.72,3.17-.54,3.3Z"/>
              <path class="cls-74" d="M58.21,60.96c0,.05.01.1.02.13,0,.02.01.04.02.06,0,.02.01.03.02.03,0,0,4.01.12,5.46-.47.99-.4,18.02-12.13,18.77-15.42.75-3.29-3.47-23.73-7.34-23.46h0c-.12.03-.22.06-.29.09-.02.01-.05.02-.08.04-1.92.89-15.95,9.68-16.15,10.58-.06.26-.09.79-.09,1.41h0c.03.92.1,1.86.2,2.57.09.64.21,1.1.35,1.15,0,0,13.78-10.57,14.62-10.64.8-.07,2.48,3.55,3.47,6.02.3.76.54,1.41.66,1.81,0,0,0,.02,0,.02.02.06.03.1.04.15,0,.02.01.04.02.06,0,.02,0,.04.01.05.02.07.03.11.03.11.05.21.11.43.16.65.63,2.76.98,6.26.72,7.66-.13.71-1.47,2.17-3.32,3.89h0c-.41.38-.83.77-1.28,1.16-.05.05-.11.1-.17.15-.24.21-.48.42-.72.63-.1.09-.21.18-.31.27-.12.1-.23.2-.35.3-.12.1-.23.2-.35.3-.06.05-.12.11-.19.16-.11.1-.23.19-.35.29-.54.45-1.08.9-1.63,1.34-.06.05-.12.1-.18.15-.07.06-.13.11-.2.16-.11.09-.23.19-.34.28-.3.24-.59.48-.88.71-.11.09-.23.18-.34.27-.06.04-.11.09-.17.13-.11.09-.23.18-.34.27-.34.26-.66.52-.97.76-.11.08-.21.16-.31.24-.21.16-.4.31-.59.46-.19.14-.37.28-.55.42,0,0-.01,0-.02.01-.08.06-.16.12-.24.18-.04.03-.09.06-.12.09-.06.04-.12.09-.17.13-.15.11-.28.21-.41.3-.07.05-.14.1-.21.15-.05.04-.1.07-.15.11-.05.03-.09.06-.13.09-.06.04-.12.08-.17.12-.05.04-.11.07-.16.11-.05.03-.1.06-.14.09-.04.03-.08.05-.12.08-.17.11-.28.16-.31.16-.74,0-3.81.27-4.1.37-.04.01-.09.04-.12.07-.02.01-.03.03-.04.04-.06.07-.12.16-.17.27-.02.04-.04.09-.05.14-.03.07-.05.15-.07.24,0,.03-.02.06-.02.09-.17.75-.18,1.79-.12,2.24Z"/>
              <path class="cls-53" d="M59.08,37.65c.52.19,10.92-.88,11.33-1.01,0,0,2.61-2.71,4.5-3.92.55-.35,1.03-.58,1.38-.58.3,0,.6.33.87.89-.98-2.47-2.67-6.1-3.47-6.02-.56.05-6.77,4.69-10.91,7.82h0c-2.12,1.61-3.71,2.82-3.71,2.82Z"/>
              <path class="cls-55" d="M62.78,34.83c6.24-2.74,10.23-2.52,12.12-2.11.55-.35,1.03-.58,1.38-.58.3,0,.6.33.87.89-.98-2.47-2.67-6.1-3.47-6.02-.56.05-6.77,4.69-10.91,7.82Z"/>
              <path class="cls-54" d="M58.27,61.17s.06.04.09.07c.72.54,2.13.62,3.56.8,3.73.47,7.36,1.33,8.22,1.09,3.42-.94,19.62-13.64,21.02-17.13.07-.15.1-.29.11-.41,0,0-4.94,1.06-8.78-.31-.75,3.29-17.78,15.02-18.77,15.42-1.45.59-5.46.47-5.46.47Z"/>
              <path class="cls-102" d="M77.38,23.95c.42-.04,0-1.84-.17-2.32-.83.01-1.55.07-2.06.19h0c-.12.03-.22.06-.29.09-.02.01-.05.02-.08.04-.28.13-.81.43-1.52.84-.45.41,3.66,1.21,4.13,1.16Z"/>
              <path class="cls-55" d="M69.81,63.21c.32-.12-4.55-2.22-6.63-2.34-2.07-.12-4.51.04-4.24.54.27.5,1.69.36,2.81.61s7.22,1.51,8.06,1.19Z"/>
              <path class="cls-60" d="M79.42,41.5c1.39,2.77,3.67-7.73-1.86-16.73-.63-1.02-4.12-1.41-5.13-1.15-1.01.26-12.77,7.83-13,8.9-.23,1.07-.55,4.47-.03,4.32.52-.16,13.63-10.48,14.53-9.99,3.24,1.78,4.94,13.56,5.49,14.66Z"/>
              <path class="cls-33" d="M84.59,22.63c1.21.4,7.97,21.37,5.75,22.41-2.22,1.03-6.41-1.27-7.14-3.08-.72-1.81-4.45-17.14-3.79-18.17.66-1.03,4.26-1.46,5.17-1.16Z"/>
              <path class="cls-32" d="M89.5,46.67c1.24.28-14.22,14.12-17.25,14.52-3.03.4-6.04-.13-5.98-.78s13.93-11.83,15.69-12.42c1.76-.59,6.15-1.62,7.54-1.31Z"/>
            </g>
          </g>
          <g class="cls-103">
            <g>
              <path class="cls-106" d="M53.82,17.03s-2.78-7.67-4.11-7.71c-1.33-.05-8.97,8.37-9.06,10.17-.08,1.8,4.44,15.38,6.38,14.84,1.94-.54,6.79-17.3,6.79-17.3Z"/>
              <path class="cls-94" d="M40.96,19.34c-.05.52.16,1.61.54,2.98,0,0,0,0,0,.01,0,0,0,0,0,.01,0,0,0,0,0,0,1.24,4.46,4.22,11.81,5.53,11.97h0c.92.05,7.11-8.88,8.01-11.82.06-.18.09-.34.1-.47.04-.44-.09-1.18-.35-2.08t0,0c-.87-3.05-3.1-7.97-4.39-9.7h0s0,0,0,0c0,0,0,0,0,0-.04-.06-.09-.11-.13-.16-.05-.06-.1-.12-.15-.17h0c-.18-.19-.32-.29-.44-.28-.12,0-.32.1-.58.27-.09.06-.19.13-.29.2-1.82,1.34-5.64,5.22-7.2,7.69-.28.44-.49.84-.6,1.17h0c-.05.14-.07.26-.09.37Z"/>
              <path class="cls-41" d="M47.04,34.33h0c.92.05,7.11-8.88,8.01-11.82-.02-.2-.06-.32-.1-.36-.77-.58-6.96-1.02-7.41-.61-.45.4-1.1,12.69-.51,12.79Z"/>
              <path class="cls-34" d="M47.68,20.92c.27.4,6.67.8,7.19.56.12-.06.08-.65-.06-1.51t0,0c-.93-3.28-3.45-8.74-4.67-10.04h0c-.16-.09-.29-.12-.35-.08-.38.24-2.38,10.67-2.11,11.08Z"/>
              <path class="cls-73" d="M41.04,18.97h0c0,.14.01.24.05.28.39.51,5.12,1.46,5.83,1.15.71-.31,2.31-9.91,2.36-10.29.01-.1-.04-.17-.15-.21-1.96,1.28-7.32,6.79-8.08,9.06Z"/>
              <path class="cls-70" d="M48.5,10.74c.57-.18-.03,4.15-1.1,5.2-1.06,1.05-5.7,3.73-5.68,2.43.02-1.29,5.57-7.25,6.77-7.63Z"/>
              <path class="cls-34" d="M54.55,22.4c.51.33-3.76,7.54-4.26,7.88s-2.92,2.22-3.06,1.55c-.14-.67.3-8.25.78-8.96.49-.71,5.23-1.31,6.53-.47Z"/>
              <path class="cls-70" d="M46.43,21.25c.52.27.37,12.02-.23,11.86-.6-.16-5.37-12.06-4.74-12.44.63-.37,4.22.19,4.98.57Z"/>
              <path class="cls-70" d="M46.62,21.27c.5.26.34,9.77-1.4,9.15-1.74-.61-4.03-9.32-3.63-9.59.4-.27,2.99-.63,5.03.43Z"/>
              <path class="cls-69" d="M49.67,10.92c.4-.15,2.54,5.4,2.37,6.66-.17,1.26-3.54,3.93-3.85,3.04-.31-.89.94-9.5,1.48-9.7Z"/>
              <path class="cls-71" d="M41.5,22.32c-.05-.22-.3-1.34-.03-1.78.3-.49,3.96.15,4.81.8.81.62.62,8.23.6,8.88.04-.65.54-8.24.81-8.54.23-.26,3.46-.2,4.53-.17-1.04-.04-4.09-.19-4.42-.78-.39-.71,1.59-10.02,1.93-10.55.21-.33.43-.22.56-.09-.05-.06-.1-.12-.15-.17h0c-.18-.19-.32-.29-.44-.28-.12,0-.32.1-.58.27-.09.06-.19.13-.29.2.16-.02.29-.02.36,0,.24.1-1.66,9.72-2.18,10.37-.52.65-4.07-.07-5.2-.74-.57-.33-.44-1.18-.18-1.94-.28.44-.49.84-.6,1.17h0c-.05.14-.07.26-.09.37-.05.52.16,1.61.54,2.98Z"/>
              <path class="cls-34" d="M54.79,21.37c.31-.08-1.4-1.95-2.33-1.97-.93-.02-3.35,1.31-3.3,1.53.05.22,4.31.81,5.63.44Z"/>
              <path class="cls-84" d="M48.15,20.98c.46.18-.82.97-1.09.85s-1.1-.73-.53-.91c.57-.17,1.47,0,1.62.06Z"/>
              <path class="cls-84" d="M47.88,18.49c.41,0-.27,2.28-.52,1.98s.29-1.97.52-1.98Z"/>
              <path class="cls-84" d="M49.99,9.81c.14.14-.52.62-.59.5-.08-.12-.17-.41-.09-.49.08-.08.5-.2.68-.01Z"/>
            </g>
            <g>
              <path class="cls-86" d="M22.56,24.54s-.67,1.22-.4,1.77,13.55,7.75,14.55,7.18c1-.56,3.03-7,2.97-7.81s-17.12-1.14-17.12-1.14Z"/>
              <path class="cls-90" d="M37.25,32.52c1.13-2.16,2.75-7.49,2.6-7.86-.19-.47-11.45-6.45-12.84-6.5-1.29-.04-4.71,5.86-4.8,7.63,0,.15,0,.27.05.35.57,1.17,13.34,7.37,14.28,7.28,0,0,.02,0,.02,0,0,0,.01,0,.02,0,.09-.03.19-.12.29-.26.12-.15.25-.37.38-.63Z"/>
              <path class="cls-77" d="M25.38,25.64c-.25-.52,1.98-4.15,2.55-4.19.57-.03,8.48,3.64,8.73,4.28s-.92,4.6-1.34,4.72c-.41.11-9.5-3.87-9.94-4.81Z"/>
              <path class="cls-40" d="M36.57,33.41c.01-.51-.71-2.14-1.08-2.65-.4-.55-9.9-4.89-10.26-4.96-.36-.07-2.48-.09-2.98.34.57,1.17,13.34,7.37,14.28,7.28.01,0,.03,0,.04,0Z"/>
              <path class="cls-40" d="M39.73,25.48c.1-.45.15-.75.12-.83,0,0-2.53.88-2.9,1.23-.37.35-1.53,4.49-1.43,4.79.09.25.99,1.92,1.34,2.47.09-.12.19-.28.3-.46h0c.9-1.62,2.16-5.48,2.56-7.2Z"/>
              <path class="cls-76" d="M27.7,21.25c.22-.42-.69-3.09-.69-3.09-1.29-.04-4.71,5.86-4.8,7.63.79,0,2.43-.15,2.68-.18.32-.03,2.6-3.94,2.82-4.36Z"/>
              <path class="cls-42" d="M39.73,25.48c0-.06-.02-.1-.03-.12-.26-.35-2.09.72-3.11,2.81s-.01,4.25.45,4.62c0,0,.05-.04.13-.11h0c.9-1.62,2.16-5.48,2.56-7.2Z"/>
              <path class="cls-23" d="M22.73,26.42c-.29-.29,2.55.03,3.31.29.76.26,3.14,2.88,2.51,2.82-.63-.06-4.82-2.08-5.82-3.11Z"/>
              <path class="cls-17" d="M22.36,25.49c-.04.68,1.47.16,2.5-.82,1.03-.98,2.55-5.72,1.96-6.2-.59-.47-4.34,4.88-4.46,7.02Z"/>
              <path class="cls-25" d="M25.7,25.66c-.31-.45,2.89-.64,4.17.24s2.07,2.68,1.73,2.74c-.35.06-5.21-1.98-5.9-2.98Z"/>
              <path class="cls-5" d="M29.24,21.5c-1.28-1.16,4.72-.04,5.97.61s3.64,2.38,3.2,2.7-1.32.71-1.67.59c-.35-.12-6.61-3.09-7.5-3.89Z"/>
              <path class="cls-27" d="M22.22,25.79c.05,0,.26-.03.55-.07-.29.03-.49.06-.55.07Z"/>
              <path class="cls-98" d="M37.25,32.52c-.1-.04-.28.35-.4.34-.12-.01-1.1-1.71-1.15-2.23-.05-.52,1.05-4.03,1.21-4.5.15-.41,1.45-.93,1.79-1.06-.24.08-.94.29-1.65.21-.87-.1-8.12-3.57-8.62-4.03-.47-.43-1.06-1.95-1.13-2.12.03.1.18.68.21,1.05.03.41-.25,1.63-.41,1.91-.16.28-1.52,2.65-2.1,3.05-.4.27-1.53.47-2.23.57.65-.07,1.72-.13,2.5.05,1.22.28,9.41,4.71,9.95,5.17.54.46,1.26,1.99,1.32,2.31,0,.05,0,.11,0,.17,0,0,.01,0,.02,0,.09-.03.19-.12.29-.26.12-.15.25-.37.38-.63ZM35.07,30.39c-.41-.04-9.11-4.5-9.48-4.87-.41-.41,1.88-4,2.59-3.89.71.12,7.52,3.27,8.1,4.21.57.94-.8,4.59-1.21,4.54Z"/>
              <path class="cls-2" d="M35.51,25.09c-.57-.33,1.58.35,1.57.52-.01.17-.31,1.02-.44.9s.14-.68-1.13-1.42Z"/>
              <path class="cls-2" d="M24.54,25.57c-.3-.21.8-.62.88-.46s.26.6.08.62c-.17.03-.71,0-.96-.17Z"/>
              <path class="cls-2" d="M25.92,25.96c-.13-.08-.37-.5.02-.27.38.23.3.45-.02.27Z"/>
            </g>
            <g>
              <path class="cls-100" d="M63.63,20.65c-.03-.15-2.5-2.99-2.94-3.1s-8.76.47-9.63.95c-.87.48-6.18,7.02-5.98,7.61.42,1.22,8.48,7.03,8.48,7.03l10.07-12.49Z"/>
              <path class="cls-95" d="M45.31,25.97c.66,1.38,11.33,10.01,12.46,9.68.02,0,.04-.01.05-.03.69-.6,8.39-9.6,8.77-10.67.31-.88-3.33-4.84-5.06-6.44h0c-.38-.35-.66-.59-.8-.66-.2-.1-.86-.11-1.75-.06,0,0-.01,0-.01,0-2.66.14-7.32.77-7.74.86-.56.12-5.72,6.4-5.94,7.19,0,.03,0,.08.03.13Z"/>
              <path class="cls-34" d="M51.22,18.65s1.12,4.34,1.81,4.62,4.44-.41,5.32-.94c.88-.53,2.25-3.63,2.37-4.47-.77-.41-8.95.68-9.5.79Z"/>
              <path class="cls-35" d="M66.49,24.97c.25-.74-6.82-2.45-7.81-2.35-.99.1-5.49.94-5.76,1.09-.27.16-3.25,4.56-3.32,4.88s4.51.81,9.34-.09,7.45-3.26,7.55-3.54Z"/>
              <path class="cls-40" d="M45.31,25.96s0,0,0,0c.07.15.25.37.52.66,1.69,1.8,6.86,6.04,9.85,8,1.05.69,1.83,1.1,2.09,1.02-.01-.05-.03-.09-.06-.13-.56-.73-7.41-6.37-8.3-6.96-.89-.59-4.1-2.58-4.1-2.59Z"/>
              <path class="cls-35" d="M51.1,18.97c.58-.26,1.54,4.43,1.39,4.78s-2.56,4.37-2.94,4.42c-.38.05-4.02-2.08-4.04-2.4-.02-.32,4.56-6.33,5.59-6.8Z"/>
              <path class="cls-19" d="M64.52,26.82c.98-.55-5.96,8.19-6.6,8.23-.63.03-6.6-5.57-6.19-5.35.46.25,12.3-2.6,12.78-2.87Z"/>
              <path class="cls-73" d="M60.88,18.15c.36-.16,5.56,5.67,5.08,5.95-.49.27-6.49-1.57-6.69-1.96-.2-.39,1.34-3.87,1.61-3.99Z"/>
              <path class="cls-35" d="M51.02,19.19c.6-.24,1.92,3.88,1.14,4.69-.79.8-2.43,1.72-3.38,1.86s-2.92.3-2.79-.24c.13-.53,3.65-5.76,5.04-6.31Z"/>
              <path class="cls-24" d="M64.58,24.78c1.7-.11-2.72,5.8-6.38,6.36-3.66.56-7.58-2.97-7.15-3.43.43-.45,11.86-2.83,13.54-2.93Z"/>
              <path class="cls-24" d="M60.14,17.93c.99.16-.93,2.81-2.5,3.19-1.57.38-5.54-1.99-4.51-2.43,1.03-.44,5.7-.97,7.01-.76Z"/>
              <path class="cls-40" d="M45.83,26.63c1.69,1.8,6.86,6.04,9.85,8-.9-1.19-4.64-4.92-6.28-6-1.34-.89-2.76-1.71-3.57-2Z"/>
              <path class="cls-20" d="M63.96,27.24c1.07.04-3.08,4.85-4.11,5.19-1.03.34-7.58-1.93-6.46-2.59,1.12-.66,9.58-2.64,10.57-2.6Z"/>
              <path class="cls-73" d="M61.09,18.36c.22-.11,3.58,3.51,3.53,3.9-.04.39-4.77.1-4.93-.74-.16-.84.94-2.93,1.4-3.16Z"/>
              <path class="cls-28" d="M51.53,25.39c.1-.11.9-1.04,1.51-1.45.64-.44,4.86-1.12,5.68-1.14.82-.02,4.05.74,4.41.75.36,0-3.48-.77-3.8-1.45-.32-.67,1.08-3.41,1.33-3.66.23-.24.82.04.87.07-.38-.35-.66-.58-.8-.66-.2-.1-.86-.11-1.75-.06.13,0,1.2,0,1.41.27.23.3-1.42,3.69-1.64,4.17-.22.48-5.16,1.22-5.69.96-.5-.25-1.35-3.07-1.43-3.36.07.27.73,2.71.75,3.5.02.8-.76,1.92-.84,2.05Z"/>
              <path class="cls-27" d="M65.79,25.64s-1.16,1.36-3.67,2.33c-2.51.98-9.4,1.04-9.4,1.04,0,0,5.76-.55,8.35-1.16,2.59-.61,4.71-2.22,4.71-2.22Z"/>
              <path class="cls-26" d="M59.07,22.14c.25-.01.58.24.4.47s-.98.27-.91.02c.08-.25.23-.48.51-.49Z"/>
              <path class="cls-26" d="M52.34,22.23c.21-.23.69.94.44,1.11-.26.17-.74-.78-.44-1.11Z"/>
            </g>
            <g>
              <path class="cls-96" d="M62.27,36.38s-2.76,3.72-3.47,3.94c-.97.31-4.9-.23-13.06-4.7-9.3-5.1-12.12-7.73-12.64-9.35-.24-.74,1.7-5.02,1.7-5.02l27.47,15.13Z"/>
              <path class="cls-29" d="M58.98,36.62c.69.69-1.87,2.62-3.19,2.92-1.32.3-6.09-1.79-8.68-3.44-2.59-1.65-4.58-7.01-3.8-6.71.77.31,15.2,6.75,15.68,7.23Z"/>
              <path class="cls-92" d="M62.27,36.38c-.53,1.01-6.52-.79-14.55-5.04-8.03-4.25-13.22-8.83-12.92-10.09.35-1.46,7.57-.76,16.19,4.27,7.4,4.32,12.39,8.7,11.27,10.86Z"/>
              <path class="cls-72" d="M61.76,35.03c.61,1.82-4.08,1.28-11.65-3.07-7.57-4.35-10.2-10.55-8.78-10.5,1.42.05,18.34,7.35,20.43,13.57Z"/>
              <path class="cls-72" d="M57.91,30.62c1.1.71,5.26,4.47,3.98,5.38s-6.6-1.13-8.36-3.43,2.42-3.22,4.37-1.95Z"/>
              <path class="cls-82" d="M39.14,22.9c-.04.12.06.37.35.75.81,1.04,3.08,3,7.76,5.58,5.15,2.84,9.26,4.4,10.77,4.46,0,0,0,0,.01,0,.35.01.56-.06.6-.21.24-.83-2.38-3.7-8.72-7.09-6.34-3.39-10.53-4.14-10.78-3.49Z"/>
              <path class="cls-29" d="M39.14,22.9c-.04.12.06.37.35.75-.06-.18-.1-.4,0-.54.19-.27,3.56-.14,10.33,3.63,6.77,3.76,8.08,5.79,8.32,6.33.21.48,0,.61-.11.62.35.01.56-.06.6-.21.24-.83-2.38-3.7-8.72-7.09-6.34-3.39-10.53-4.14-10.78-3.49Z"/>
              <path class="cls-43" d="M51,31.16c1.24.63-1.37-4.36-4.62-6.06-3.25-1.71-6.29-2.37-6.56-1.77-.27.61,1.37,2.86,11.17,7.83Z"/>
              <path class="cls-84" d="M54.42,32.66s-2.91-1.24-8.28-4.2c-1.97-1.08-4.68-2.99-4.68-2.99,0,0,3.51,3.94,12.96,7.19Z"/>
              <path class="cls-84" d="M39.59,26.3c.19.35-2.68-.52-3.35-1.47s-.98-2.25-.55-2.07c.44.18,3.43,2.67,3.9,3.54Z"/>
              <path class="cls-72" d="M49.66,32.34s-1.54-.56-1.75-.6c-.21-.03-1.26.07-1.97-.53-.71-.59-.79-1.04-1.14-1.36s-1.31-.93-1.28-.92,4.29,2.5,6.13,3.39Z"/>
              <path class="cls-85" d="M46.09,30.1c1.1.28,2.48,1.73,1.13,1.46-1.35-.27-2.78-1.88-1.13-1.46Z"/>
              <path class="cls-80" d="M47.76,31.5c-.11-.13-1.08-.13-1.44-.48-.36-.35-.47-1.02-.72-.98-.25.03-.52.44.77,1.18,1.28.74,1.42.32,1.39.28Z"/>
            </g>
          </g>
          <path class="cls-104" d="M61.13,86.48s-1.19.87-1.34,1.15-1.05,1.57-2.16,1.51c-1.11-.06-1.39-.3-2.18-.33s-2.34.27-2.34.27c0,0,2.84-.7,3.28-1.1.44-.4.91-.99,1.57-1.18.65-.19,2.59-.1,3.17-.32Z"/>
          <path class="cls-91" d="M59.41,87.34c.48,1.25-3.3,2-3,1.03.3-.97,2.59-2.1,3-1.03Z"/>
          <path class="cls-31" d="M59.2,87.05c.59.48-.29,1.38-1.31,1.23s-.84-.6-.63-.85c.21-.25,1.45-.79,1.95-.38Z"/>
          <circle class="cls-59" cx="35.6" cy="31.36" r="8.82"/>
          <circle class="cls-57" cx="36.76" cy="23.37" r="8.82"/>
          <circle class="cls-75" cx="59.37" cy="22.55" r="8.82" transform="translate(-2.83 9.7) rotate(-9.13)"/>
          <circle class="cls-58" cx="35.77" cy="88.86" r="5.87"/>
          <g>
            <path class="cls-3" d="M37.88,27.78h0c-.39-1.78.74-3.54,2.52-3.92h0c-1.78.39-3.54-.74-3.92-2.52h0c.39,1.78-.74,3.54-2.52,3.92h0c1.78-.39,3.54.74,3.92,2.52Z"/>
            <path class="cls-18" d="M39.23,24.33c-1.32-6.07-3.29-10.79-4.4-10.55-1.11.24-.94,5.36.39,11.43,1.32,6.07,3.29,10.79,4.4,10.55,1.11-.24.94-5.36-.39-11.43Z"/>
            <path class="cls-7" d="M37.94,24.61c-1.32-6.07-2.72-10.92-3.11-10.83-.4.09.35,5.08,1.68,11.15,1.32,6.07,2.72,10.92,3.11,10.83.4-.09-.35-5.08-1.68-11.15Z"/>
            <path class="cls-6" d="M36.82,22.93c-6.42,1.4-11.47,3.26-11.28,4.16.2.9,5.56.49,11.98-.91s11.47-3.26,11.28-4.16c-.2-.9-5.56-.49-11.98.91Z"/>
            <path class="cls-9" d="M37.07,24.06c-6.42,1.4-11.58,2.76-11.52,3.03.06.28,5.32-.63,11.74-2.03,6.42-1.4,11.58-2.76,11.52-3.03-.06-.28-5.32.63-11.74,2.03Z"/>
            <path class="cls-8" d="M37.69,23.76c-4.18-2.69-7.81-4.51-8.09-4.07-.28.44,2.88,2.98,7.06,5.66,4.18,2.69,7.81,4.51,8.09,4.07.28-.44-2.88-2.98-7.06-5.66Z"/>
            <path class="cls-11" d="M36.38,24.04c-2.69,4.18-4.51,7.81-4.07,8.09.44.28,2.98-2.88,5.66-7.06,2.69-4.18,4.51-7.81,4.07-8.09-.44-.28-2.98,2.88-5.66,7.06Z"/>
          </g>
          <g>
            <rect class="cls-4" x="82.82" y="22.77" width="3.75" height="3.75" rx="1.88" ry="1.88" transform="translate(172.7 30.69) rotate(167.71)"/>
            <path class="cls-12" d="M85.87,24.51c-.75-3.45-1.87-6.14-2.51-6.01-.63.14-.53,3.05.22,6.5s1.87,6.14,2.51,6.01.53-3.05-.22-6.5Z"/>
            <path class="cls-13" d="M85.13,24.67c-.75-3.45-1.55-6.22-1.77-6.17s.2,2.89.95,6.34c.75,3.45,1.55,6.22,1.77,6.17.23-.05-.2-2.89-.95-6.34Z"/>
            <ellipse class="cls-10" cx="84.7" cy="24.64" rx="6.77" ry=".95" transform="translate(-3.31 18.6) rotate(-12.29)"/>
            <path class="cls-14" d="M84.64,24.36c-3.66.8-6.59,1.57-6.56,1.73s3.03-.36,6.68-1.16c3.66-.8,6.59-1.57,6.56-1.73-.03-.16-3.03.36-6.68,1.16Z"/>
            <path class="cls-15" d="M84.99,24.19c-2.38-1.53-4.44-2.57-4.6-2.32-.16.25,1.64,1.69,4.02,3.22,2.38,1.53,4.44,2.57,4.6,2.32.16-.25-1.64-1.69-4.02-3.22Z"/>
            <path class="cls-16" d="M84.24,24.35c-1.53,2.38-2.57,4.44-2.32,4.6.25.16,1.69-1.64,3.22-4.02,1.53-2.38,2.57-4.44,2.32-4.6-.25-.16-1.69,1.64-3.22,4.02Z"/>
          </g>
        </g>
      </g>
    </g>
  </g>
</svg>