<?xml version="1.0" encoding="UTF-8"?>
<svg xmlns="http://www.w3.org/2000/svg" xmlns:xlink="http://www.w3.org/1999/xlink" viewBox="0 0 71.41 72.06">
  <defs>
    <style>
      .cls-1 {
        fill: url(#_ЕғЕҡГҒЕ»Еҫ_ЕӘЕӘЕ»ЕҘ_Е«Е—ЕЎЕӨЕҡЕӘГҡ_163);
      }

      .cls-1, .cls-2 {
        mix-blend-mode: screen;
        opacity: .9;
      }

      .cls-3 {
        fill: url(#_ЕғЕҡГҒЕ»Еҫ_ЕӘЕӘЕ»ЕҘ_Е«Е—ЕЎЕӨЕҡЕӘГҡ_83-4);
      }

      .cls-4 {
        fill: url(#_ЕғЕҡГҒЕ»Еҫ_ЕӘЕӘЕ»ЕҘ_Е«Е—ЕЎЕӨЕҡЕӘГҡ_83-2);
      }

      .cls-5 {
        fill: url(#_ЕғЕҡГҒЕ»Еҫ_ЕӘЕӘЕ»ЕҘ_Е«Е—ЕЎЕӨЕҡЕӘГҡ_83-3);
      }

      .cls-6 {
        fill: url(#_ЕғЕҡГҒЕ»Еҫ_ЕӘЕӘЕ»ЕҘ_Е«Е—ЕЎЕӨЕҡЕӘГҡ_83-7);
      }

      .cls-7 {
        fill: url(#_ЕғЕҡГҒЕ»Еҫ_ЕӘЕӘЕ»ЕҘ_Е«Е—ЕЎЕӨЕҡЕӘГҡ_83-6);
      }

      .cls-8 {
        fill: url(#_ЕғЕҡГҒЕ»Еҫ_ЕӘЕӘЕ»ЕҘ_Е«Е—ЕЎЕӨЕҡЕӘГҡ_83-8);
      }

      .cls-9 {
        fill: url(#_ЕғЕҡГҒЕ»Еҫ_ЕӘЕӘЕ»ЕҘ_Е«Е—ЕЎЕӨЕҡЕӘГҡ_83-5);
      }

      .cls-10 {
        isolation: isolate;
      }

      .cls-2 {
        fill: url(#_ЕғЕҡГҒЕ»Еҫ_ЕӘЕӘЕ»ЕҘ_Е«Е—ЕЎЕӨЕҡЕӘГҡ_163-2);
      }

      .cls-11 {
        fill: #fff;
      }

      .cls-12 {
        fill: #897493;
      }

      .cls-13 {
        fill: url(#_ЕғЕҡГҒЕ»Еҫ_ЕӘЕӘЕ»ЕҘ_Е«Е—ЕЎЕӨЕҡЕӘГҡ_14);
      }

      .cls-13, .cls-14, .cls-15, .cls-16, .cls-17, .cls-18, .cls-19 {
        mix-blend-mode: multiply;
        opacity: .4;
      }

      .cls-20 {
        fill: url(#_ЕғЕҡГҒЕ»Еҫ_ЕӘЕӘЕ»ЕҘ_Е«Е—ЕЎЕӨЕҡЕӘГҡ_83);
      }

      .cls-14 {
        fill: url(#_ЕғЕҡГҒЕ»Еҫ_ЕӘЕӘЕ»ЕҘ_Е«Е—ЕЎЕӨЕҡЕӘГҡ_14-5);
      }

      .cls-15 {
        fill: url(#_ЕғЕҡГҒЕ»Еҫ_ЕӘЕӘЕ»ЕҘ_Е«Е—ЕЎЕӨЕҡЕӘГҡ_14-7);
      }

      .cls-16 {
        fill: url(#_ЕғЕҡГҒЕ»Еҫ_ЕӘЕӘЕ»ЕҘ_Е«Е—ЕЎЕӨЕҡЕӘГҡ_14-6);
      }

      .cls-17 {
        fill: url(#_ЕғЕҡГҒЕ»Еҫ_ЕӘЕӘЕ»ЕҘ_Е«Е—ЕЎЕӨЕҡЕӘГҡ_14-3);
      }

      .cls-18 {
        fill: url(#_ЕғЕҡГҒЕ»Еҫ_ЕӘЕӘЕ»ЕҘ_Е«Е—ЕЎЕӨЕҡЕӘГҡ_14-2);
      }

      .cls-19 {
        fill: url(#_ЕғЕҡГҒЕ»Еҫ_ЕӘЕӘЕ»ЕҘ_Е«Е—ЕЎЕӨЕҡЕӘГҡ_14-4);
      }

      .cls-21 {
        fill: #70577f;
      }
    </style>
    <linearGradient id="_ЕғЕҡГҒЕ»Еҫ_ЕӘЕӘЕ»ЕҘ_Е«Е—ЕЎЕӨЕҡЕӘГҡ_14" data-name="ЕғЕҡГҒЕ»ЕҫЛҮЕӘЕӘЕ»ЕҘ вҖһЕ«Е—ЕЎЕӨЕҡЕӘГҡ 14" x1="-1371.37" y1="-97.61" x2="-1374.55" y2="-82.04" gradientTransform="translate(-1331.69 -176.65) rotate(-166.21) scale(1 -1)" gradientUnits="userSpaceOnUse">
      <stop offset="0" stop-color="#fff"/>
      <stop offset=".98" stop-color="#720090"/>
    </linearGradient>
    <linearGradient id="_ЕғЕҡГҒЕ»Еҫ_ЕӘЕӘЕ»ЕҘ_Е«Е—ЕЎЕӨЕҡЕӘГҡ_83" data-name="ЕғЕҡГҒЕ»ЕҫЛҮЕӘЕӘЕ»ЕҘ вҖһЕ«Е—ЕЎЕӨЕҡЕӘГҡ 83" x1="-1405.64" y1="-118.12" x2="-1344.69" y2="-118.12" gradientTransform="translate(-1331.69 -176.65) rotate(-166.21) scale(1 -1)" gradientUnits="userSpaceOnUse">
      <stop offset="0" stop-color="#f7e2d1"/>
      <stop offset="1" stop-color="#a58caf"/>
    </linearGradient>
    <linearGradient id="_ЕғЕҡГҒЕ»Еҫ_ЕӘЕӘЕ»ЕҘ_Е«Е—ЕЎЕӨЕҡЕӘГҡ_163" data-name="ЕғЕҡГҒЕ»ЕҫЛҮЕӘЕӘЕ»ЕҘ вҖһЕ«Е—ЕЎЕӨЕҡЕӘГҡ 163" x1="67.61" y1="16.29" x2="132.46" y2="-26.76" gradientUnits="userSpaceOnUse">
      <stop offset="0" stop-color="#ffde6a"/>
      <stop offset="1" stop-color="#000"/>
    </linearGradient>
    <linearGradient id="_ЕғЕҡГҒЕ»Еҫ_ЕӘЕӘЕ»ЕҘ_Е«Е—ЕЎЕӨЕҡЕӘГҡ_83-2" data-name="ЕғЕҡГҒЕ»ЕҫЛҮЕӘЕӘЕ»ЕҘ вҖһЕ«Е—ЕЎЕӨЕҡЕӘГҡ 83" x1="-1420.42" y1="-155.66" x2="-1404.05" y2="-132.93" xlink:href="#_ЕғЕҡГҒЕ»Еҫ_ЕӘЕӘЕ»ЕҘ_Е«Е—ЕЎЕӨЕҡЕӘГҡ_83"/>
    <linearGradient id="_ЕғЕҡГҒЕ»Еҫ_ЕӘЕӘЕ»ЕҘ_Е«Е—ЕЎЕӨЕҡЕӘГҡ_83-3" data-name="ЕғЕҡГҒЕ»ЕҫЛҮЕӘЕӘЕ»ЕҘ вҖһЕ«Е—ЕЎЕӨЕҡЕӘГҡ 83" x1="80.32" y1="32.86" x2="102.4" y2="51.71" gradientTransform="matrix(1,0,0,1,0,0)" xlink:href="#_ЕғЕҡГҒЕ»Еҫ_ЕӘЕӘЕ»ЕҘ_Е«Е—ЕЎЕӨЕҡЕӘГҡ_83"/>
    <linearGradient id="_ЕғЕҡГҒЕ»Еҫ_ЕӘЕӘЕ»ЕҘ_Е«Е—ЕЎЕӨЕҡЕӘГҡ_14-2" data-name="ЕғЕҡГҒЕ»ЕҫЛҮЕӘЕӘЕ»ЕҘ вҖһЕ«Е—ЕЎЕӨЕҡЕӘГҡ 14" x1="35.56" y1="40.84" x2="38.62" y2="96.77" gradientTransform="matrix(1,0,0,1,0,0)" xlink:href="#_ЕғЕҡГҒЕ»Еҫ_ЕӘЕӘЕ»ЕҘ_Е«Е—ЕЎЕӨЕҡЕӘГҡ_14"/>
    <linearGradient id="_ЕғЕҡГҒЕ»Еҫ_ЕӘЕӘЕ»ЕҘ_Е«Е—ЕЎЕӨЕҡЕӘГҡ_83-4" data-name="ЕғЕҡГҒЕ»ЕҫЛҮЕӘЕӘЕ»ЕҘ вҖһЕ«Е—ЕЎЕӨЕҡЕӘГҡ 83" x1="-1366.87" y1="-141.94" x2="-1369.41" y2="-119.15" xlink:href="#_ЕғЕҡГҒЕ»Еҫ_ЕӘЕӘЕ»ЕҘ_Е«Е—ЕЎЕӨЕҡЕӘГҡ_83"/>
    <linearGradient id="_ЕғЕҡГҒЕ»Еҫ_ЕӘЕӘЕ»ЕҘ_Е«Е—ЕЎЕӨЕҡЕӘГҡ_83-5" data-name="ЕғЕҡГҒЕ»ЕҫЛҮЕӘЕӘЕ»ЕҘ вҖһЕ«Е—ЕЎЕӨЕҡЕӘГҡ 83" x1="-1397.52" y1="-94.75" x2="-1399.88" y2="-73.58" xlink:href="#_ЕғЕҡГҒЕ»Еҫ_ЕӘЕӘЕ»ЕҘ_Е«Е—ЕЎЕӨЕҡЕӘГҡ_83"/>
    <linearGradient id="_ЕғЕҡГҒЕ»Еҫ_ЕӘЕӘЕ»ЕҘ_Е«Е—ЕЎЕӨЕҡЕӘГҡ_83-6" data-name="ЕғЕҡГҒЕ»ЕҫЛҮЕӘЕӘЕ»ЕҘ вҖһЕ«Е—ЕЎЕӨЕҡЕӘГҡ 83" x1="-1348.87" y1="-115.02" x2="-1350.59" y2="-99.6" xlink:href="#_ЕғЕҡГҒЕ»Еҫ_ЕӘЕӘЕ»ЕҘ_Е«Е—ЕЎЕӨЕҡЕӘГҡ_83"/>
    <linearGradient id="_ЕғЕҡГҒЕ»Еҫ_ЕӘЕӘЕ»ЕҘ_Е«Е—ЕЎЕӨЕҡЕӘГҡ_14-3" data-name="ЕғЕҡГҒЕ»ЕҫЛҮЕӘЕӘЕ»ЕҘ вҖһЕ«Е—ЕЎЕӨЕҡЕӘГҡ 14" x1="-1373.4" y1="-126.53" x2="-1407" y2="-148.54" xlink:href="#_ЕғЕҡГҒЕ»Еҫ_ЕӘЕӘЕ»ЕҘ_Е«Е—ЕЎЕӨЕҡЕӘГҡ_14"/>
    <linearGradient id="_ЕғЕҡГҒЕ»Еҫ_ЕӘЕӘЕ»ЕҘ_Е«Е—ЕЎЕӨЕҡЕӘГҡ_163-2" data-name="ЕғЕҡГҒЕ»ЕҫЛҮЕӘЕӘЕ»ЕҘ вҖһЕ«Е—ЕЎЕӨЕҡЕӘГҡ 163" x1="-1369.96" y1="-126.19" x2="-1352.94" y2="-86.21" gradientTransform="translate(-1331.69 -176.65) rotate(-166.21) scale(1 -1)" xlink:href="#_ЕғЕҡГҒЕ»Еҫ_ЕӘЕӘЕ»ЕҘ_Е«Е—ЕЎЕӨЕҡЕӘГҡ_163"/>
    <linearGradient id="_ЕғЕҡГҒЕ»Еҫ_ЕӘЕӘЕ»ЕҘ_Е«Е—ЕЎЕӨЕҡЕӘГҡ_14-4" data-name="ЕғЕҡГҒЕ»ЕҫЛҮЕӘЕӘЕ»ЕҘ вҖһЕ«Е—ЕЎЕӨЕҡЕӘГҡ 14" x1="-1372.43" y1="-104.64" x2="-1371.34" y2="-132.42" xlink:href="#_ЕғЕҡГҒЕ»Еҫ_ЕӘЕӘЕ»ЕҘ_Е«Е—ЕЎЕӨЕҡЕӘГҡ_14"/>
    <linearGradient id="_ЕғЕҡГҒЕ»Еҫ_ЕӘЕӘЕ»ЕҘ_Е«Е—ЕЎЕӨЕҡЕӘГҡ_14-5" data-name="ЕғЕҡГҒЕ»ЕҫЛҮЕӘЕӘЕ»ЕҘ вҖһЕ«Е—ЕЎЕӨЕҡЕӘГҡ 14" x1="-1398.66" y1="-130.35" x2="-1407" y2="-89.55" xlink:href="#_ЕғЕҡГҒЕ»Еҫ_ЕӘЕӘЕ»ЕҘ_Е«Е—ЕЎЕӨЕҡЕӘГҡ_14"/>
    <linearGradient id="_ЕғЕҡГҒЕ»Еҫ_ЕӘЕӘЕ»ЕҘ_Е«Е—ЕЎЕӨЕҡЕӘГҡ_83-7" data-name="ЕғЕҡГҒЕ»ЕҫЛҮЕӘЕӘЕ»ЕҘ вҖһЕ«Е—ЕЎЕӨЕҡЕӘГҡ 83" x1="-19.24" y1="133.97" x2="30.34" y2="176.3" gradientTransform="translate(75.51 -80.46) rotate(-5.94)" xlink:href="#_ЕғЕҡГҒЕ»Еҫ_ЕӘЕӘЕ»ЕҘ_Е«Е—ЕЎЕӨЕҡЕӘГҡ_83"/>
    <linearGradient id="_ЕғЕҡГҒЕ»Еҫ_ЕӘЕӘЕ»ЕҘ_Е«Е—ЕЎЕӨЕҡЕӘГҡ_83-8" data-name="ЕғЕҡГҒЕ»ЕҫЛҮЕӘЕӘЕ»ЕҘ вҖһЕ«Е—ЕЎЕӨЕҡЕӘГҡ 83" x1="-33.32" y1="131.04" x2="-36.88" y2="148.44" gradientTransform="translate(75.51 -80.46) rotate(-5.94)" xlink:href="#_ЕғЕҡГҒЕ»Еҫ_ЕӘЕӘЕ»ЕҘ_Е«Е—ЕЎЕӨЕҡЕӘГҡ_83"/>
    <linearGradient id="_ЕғЕҡГҒЕ»Еҫ_ЕӘЕӘЕ»ЕҘ_Е«Е—ЕЎЕӨЕҡЕӘГҡ_14-6" data-name="ЕғЕҡГҒЕ»ЕҫЛҮЕӘЕӘЕ»ЕҘ вҖһЕ«Е—ЕЎЕӨЕҡЕӘГҡ 14" x1="60.82" y1="53.09" x2="55.62" y2="40.09" gradientTransform="matrix(1,0,0,1,0,0)" xlink:href="#_ЕғЕҡГҒЕ»Еҫ_ЕӘЕӘЕ»ЕҘ_Е«Е—ЕЎЕӨЕҡЕӘГҡ_14"/>
    <linearGradient id="_ЕғЕҡГҒЕ»Еҫ_ЕӘЕӘЕ»ЕҘ_Е«Е—ЕЎЕӨЕҡЕӘГҡ_14-7" data-name="ЕғЕҡГҒЕ»ЕҫЛҮЕӘЕӘЕ»ЕҘ вҖһЕ«Е—ЕЎЕӨЕҡЕӘГҡ 14" x1="47.28" y1="79.6" x2="45.63" y2="68.51" gradientTransform="matrix(1,0,0,1,0,0)" xlink:href="#_ЕғЕҡГҒЕ»Еҫ_ЕӘЕӘЕ»ЕҘ_Е«Е—ЕЎЕӨЕҡЕӘГҡ_14"/>
  </defs>
  <g class="cls-10">
    <g id="Ebene_2" data-name="Ebene 2">
      <g id="factory_milk" data-name="factory milk">
        <g>
          <g>
            <path class="cls-21" d="M14.97,53.93l-3.91,16.82,8.76-1.28s.86-1.5,2.36-3.39c1.87-2.36,4.76-5.34,8.22-6.74.66-.27,1.35-.48,2.05-.62,7.48-1.44-17.48-4.79-17.48-4.79Z"/>
            <path class="cls-13" d="M22.18,66.08c1.87-2.36,4.76-5.34,8.22-6.74-.19-.44-.57-.85-1.23-1.2-3.38-1.81-12.7,5.14-12.7,5.14,0,0-3.09,5.79,5.72,2.8Z"/>
            <path class="cls-21" d="M58.04,20.31c-11.7,1.29-4.95-14.33-4.95-14.33l-7.95-5.98s-9.55,14.98-3.75,20.63c5.72,5.57,16.65-.31,16.65-.31Z"/>
            <path class="cls-12" d="M50.87,60.92l4.79-.22,6.63-.3s-12.34-9.45,3.26-23.45c1.64-1.46,3.57-2.98,5.86-4.55l-4.37-.96s-11.21-4.16-21.34,9.27c-9.31,12.34,5.16,20.22,5.16,20.22Z"/>
            <path class="cls-20" d="M32.76,50.3c-2.9-.51-4.75-3.71-4.33-8.17.52-5.56,4.36-11.04,8.62-12.1.74-.19,1.45-.22,2.1-.13.64,1.94.87,4.29.55,6.89-.66,5.43-3.44,10.52-6.94,13.51ZM64.67,20.12v-2.25s0-.18,0-.18c0,0-.19.07-.55.18-.5.17-1.32.44-2.33.73-4.55,1.28-12.97,3.03-15.13-1.08C43.63,11.79,45.15,0,45.15,0l-16.62,2.2s-4.43,15.47-11.26,20.95c-6.55,5.25-14.37,3.96-14.37,3.96l-2.89,14.66s5.49,1.13,7.17,6.8c1.64,5.53-3.67,15.95-3.67,15.95l7.55,6.21s6.41-10.66,15.38-9.81c9.15.85,11.4,11.13,11.4,11.13l13.76-11.09s-5.61-7.23-.35-16.85c5.57-10.2,13.49-13.26,13.49-13.26h0s-.06-10.73-.06-10.73Z"/>
            <path class="cls-21" d="M19.4,38.67c-.22,1.01-.37,2.02-.45,3.04-.52,7.44,3.43,12.33,8.89,11.17,1.7-.36,3.38-1.28,4.92-2.58-2.9-.51-4.74-3.71-4.33-8.17.18-1.92.76-3.83,1.61-5.55,1.61-3.26,4.23-5.85,7.01-6.55.44-.11.86-.16,1.27-.18.28-.01.56,0,.82.04-.07-.2-.14-.4-.22-.59-1.47-3.68-4.57-5.59-8.42-4.58-5.11,1.34-9.65,7.34-11.11,13.94Z"/>
            <path class="cls-1" d="M33.25,50.04c-1.54,1.3-5.98,6.38-7.64,6.71-5.35,1.09-9.25-3.72-8.79-10.97.07-1,1.65-4.58,1.88-5.58.42-1.94,1.12-3.8,2.02-5.52-.58,1.32-1.04,2.73-1.36,4.16-.22,1-.37,2.01-.45,3.04-.51,7.43,3.43,12.33,8.89,11.16,1.17-.25,2.32-.75,3.42-1.46.25.1,1.77-1.58,2.03-1.53Z"/>
            <polygon class="cls-4" points="64.74 30.85 71.41 32.39 71.25 20.58 64.67 17.69 64.74 30.85"/>
            <polygon class="cls-12" points="37.83 72.06 48.59 71.66 62.28 60.4 50.87 60.91 37.83 72.06"/>
            <path class="cls-5" d="M68.88,19.69l-4.2.42-1.66.17s-3.86-.22-1.22-1.68c1.01-.29,1.83-.56,2.33-.73.19,0,.37,0,.55,0,.18.01.36.04.54.06,1.45.22,2.64.97,3.24,1.42.01,0,.02,0,.02,0,.26.2.4.33.4.33Z"/>
            <path class="cls-18" d="M41.38,44.89c2.07,22.98-10.55,12.57-10.55,12.57,0,0,3.85-1.41,6.36-4.87,2.55-3.5,4.19-7.71,4.19-7.71Z"/>
            <path class="cls-3" d="M35.9,1.34c-9.02,4.01-11.48,11.75-11.48,11.75l4.1-10.87,7.38-.88Z"/>
            <path class="cls-9" d="M48.94,54.51c-.65,8.85-4.5,11.72-4.5,11.72,0,0,8.06-5.34,7.64-5.52-.42-.18-3.14-6.2-3.14-6.2Z"/>
            <path class="cls-7" d="M10.75,26.49c-7.17,3.1-9.32,7.74-9.32,7.74l1.46-7.11,7.85-.63Z"/>
            <path class="cls-17" d="M63.16,19.32c2.75,16.98-20.66,25.46-21.51,24.08-.85-1.39,3.06-15.61-4.14-19.46-3.55-2.28-6.43-.78-7.16-1.17-.74-.38-.15-10.29,6.66-15.84,6.94-5.66,4.63,9.44,8.05,12.44,3.4,2.97,18.1-.05,18.1-.05Z"/>
            <path class="cls-2" d="M24.08,54.8c-7.89,12.16-18.22,11.13-18.5,9.67-.28-1.47,3.27-7.54,2.94-13-.34-5.55-4.02-7.26-3.99-8.52.03-1.26,3.08-13.56,11.16-14.75,8.14-1.2,3.91,6.32,3.45,7.57-.46,1.24-2.2,4.25-1.6,10.14.59,5.78,6.53,8.89,6.53,8.89Z"/>
            <path class="cls-19" d="M19.4,38.67c1.2,2.02,4.23,2.34,10.64-2.1,1.61-3.26,4.23-5.85,7.01-6.55.44-.11.86-.16,1.27-.18.2-.18.4-.37.61-.55-1.47-3.68-4.57-5.59-8.42-4.58-5.11,1.34-9.65,7.34-11.11,13.94Z"/>
            <path class="cls-14" d="M49.46,48.39c-1.73,4.63.13,10.98,6.2,12.31,1.81.4,4.01.36,6.63-.3,0,0-12.34-9.45,3.26-23.45-9.31-3.11-13.8,5.33-16.09,11.44Z"/>
            <path class="cls-6" d="M23.56,29.2c14.86-19.24,15.99,1.8,15.99,1.8,0,0-1.22-6.94-7.31-6.38-5.93.55-9.86,6.67-9.86,6.67l1.17-2.09Z"/>
            <path class="cls-8" d="M47.79,64.11c3.12-1.95,8.76-2.65,10.19-1.66,1.43.99-3.3,4.24-3.09,3.98.21-.26,7.4-6.04,7.4-6.04,0,0-3.52.78-6.63.3-3.07-.48-6.54-5.68-6.48-5.44.07.24,1.78,4.06,1.69,5.29-.09,1.21-3.08,3.57-3.08,3.57Z"/>
            <path class="cls-16" d="M55.56,38.55c-10.62,12.6-.85,11.99.82,10.56,1.7-1.45,1.09-3.36,2.69-5.85,1.62-2.54,4.27-3.82,3.48-5.99-.79-2.19-4.6-1.57-7,1.28Z"/>
            <path class="cls-15" d="M44.64,69.72c-6.43,2.04,2.62,2.5,4.25,1.41,1.65-1.11.02-2.76-4.25-1.41Z"/>
          </g>
          <path class="cls-11" d="M11.61,63.12c-3.79,10.13,9.36-2.53,7.1-3.88-2.25-1.34-7.1,3.88-7.1,3.88Z"/>
          <path class="cls-11" d="M42.52,15.59c-2.79,5.5,2.08,4.75,3.01,3.24.94-1.53-.21-8.74-3.01-3.24Z"/>
        </g>
      </g>
    </g>
  </g>
</svg>