<?xml version="1.0" encoding="UTF-8"?>
<svg xmlns="http://www.w3.org/2000/svg" xmlns:xlink="http://www.w3.org/1999/xlink" viewBox="0 0 84.44 82.11">
  <defs>
    <style>
      .cls-1 {
        fill: url(#_ŃŚÁŻž_ŪŪŻť_ūŗšŤŚŪÚ_8);
      }

      .cls-2 {
        fill: url(#_ŃŚÁŻž_ŪŪŻť_ūŗšŤŚŪÚ_5);
      }

      .cls-3 {
        fill: url(#_ŃŚÁŻž_ŪŪŻť_ūŗšŤŚŪÚ_13-2);
      }

      .cls-3, .cls-4, .cls-5, .cls-6 {
        mix-blend-mode: screen;
      }

      .cls-4 {
        fill: url(#_ŃŚÁŻž_ŪŪŻť_ūŗšŤŚŪÚ_13-4);
      }

      .cls-5 {
        fill: url(#_ŃŚÁŻž_ŪŪŻť_ūŗšŤŚŪÚ_13-3);
      }

      .cls-7 {
        fill: url(#_ŃŚÁŻž_ŪŪŻť_ūŗšŤŚŪÚ_2);
      }

      .cls-7, .cls-8, .cls-9, .cls-10, .cls-11, .cls-12, .cls-13 {
        mix-blend-mode: multiply;
        opacity: .5;
      }

      .cls-14 {
        isolation: isolate;
      }

      .cls-8 {
        fill: url(#_ŃŚÁŻž_ŪŪŻť_ūŗšŤŚŪÚ_116-3);
      }

      .cls-9 {
        fill: url(#_ŃŚÁŻž_ŪŪŻť_ūŗšŤŚŪÚ_116-2);
      }

      .cls-15 {
        fill: #fff;
      }

      .cls-16 {
        fill: url(#_ŃŚÁŻž_ŪŪŻť_ūŗšŤŚŪÚ_34);
      }

      .cls-6 {
        fill: url(#_ŃŚÁŻž_ŪŪŻť_ūŗšŤŚŪÚ_13);
      }

      .cls-10 {
        fill: url(#_ŃŚÁŻž_ŪŪŻť_ūŗšŤŚŪÚ_2-3);
      }

      .cls-11 {
        fill: url(#_ŃŚÁŻž_ŪŪŻť_ūŗšŤŚŪÚ_2-4);
      }

      .cls-12 {
        fill: url(#_ŃŚÁŻž_ŪŪŻť_ūŗšŤŚŪÚ_2-2);
      }

      .cls-13 {
        fill: url(#_ŃŚÁŻž_ŪŪŻť_ūŗšŤŚŪÚ_116);
      }
    </style>
    <linearGradient id="_ŃŚÁŻž_ŪŪŻť_ūŗšŤŚŪÚ_5" data-name="ŃŚÁŻžˇŪŪŻť „ūŗšŤŚŪÚ 5" x1="4.2" y1="-6.48" x2="34.82" y2="28.83" gradientTransform="translate(-4.82 6.17) rotate(.32)" gradientUnits="userSpaceOnUse">
      <stop offset="0" stop-color="#f1a524"/>
      <stop offset="1" stop-color="#d75f26"/>
    </linearGradient>
    <linearGradient id="_ŃŚÁŻž_ŪŪŻť_ūŗšŤŚŪÚ_2" data-name="ŃŚÁŻžˇŪŪŻť „ūŗšŤŚŪÚ 2" x1="23.9" y1="53.23" x2="32.52" y2="63.17" gradientTransform="translate(-4.82 6.17) rotate(.32)" gradientUnits="userSpaceOnUse">
      <stop offset="0" stop-color="#fff"/>
      <stop offset=".98" stop-color="#aa0038"/>
    </linearGradient>
    <linearGradient id="_ŃŚÁŻž_ŪŪŻť_ūŗšŤŚŪÚ_2-2" data-name="ŃŚÁŻžˇŪŪŻť „ūŗšŤŚŪÚ 2" x1="63.84" y1="-5.66" x2="51.79" y2="20.36" xlink:href="#_ŃŚÁŻž_ŪŪŻť_ūŗšŤŚŪÚ_2"/>
    <linearGradient id="_ŃŚÁŻž_ŪŪŻť_ūŗšŤŚŪÚ_2-3" data-name="ŃŚÁŻžˇŪŪŻť „ūŗšŤŚŪÚ 2" x1="86.48" y1="77.49" x2="63.59" y2="14" xlink:href="#_ŃŚÁŻž_ŪŪŻť_ūŗšŤŚŪÚ_2"/>
    <radialGradient id="_ŃŚÁŻž_ŪŪŻť_ūŗšŤŚŪÚ_34" data-name="ŃŚÁŻžˇŪŪŻť „ūŗšŤŚŪÚ 34" cx="36.02" cy="34.41" fx="36.02" fy="34.41" r="43.47" gradientTransform="translate(-4.82 6.17) rotate(.32)" gradientUnits="userSpaceOnUse">
      <stop offset="0" stop-color="#ffb230"/>
      <stop offset=".31" stop-color="#feaf30"/>
      <stop offset=".54" stop-color="#fca530"/>
      <stop offset=".73" stop-color="#f89631"/>
      <stop offset=".9" stop-color="#f38033"/>
      <stop offset="1" stop-color="#f07134"/>
    </radialGradient>
    <linearGradient id="_ŃŚÁŻž_ŪŪŻť_ūŗšŤŚŪÚ_116" data-name="ŃŚÁŻžˇŪŪŻť „ūŗšŤŚŪÚ 116" x1="25.13" y1="3.07" x2="81.36" y2="106.27" gradientTransform="translate(-4.82 6.17) rotate(.32)" gradientUnits="userSpaceOnUse">
      <stop offset="0" stop-color="#fff"/>
      <stop offset=".98" stop-color="#d60038"/>
    </linearGradient>
    <linearGradient id="_ŃŚÁŻž_ŪŪŻť_ūŗšŤŚŪÚ_116-2" data-name="ŃŚÁŻžˇŪŪŻť „ūŗšŤŚŪÚ 116" x1="27.49" y1="7.82" x2="59.36" y2="68.77" xlink:href="#_ŃŚÁŻž_ŪŪŻť_ūŗšŤŚŪÚ_116"/>
    <linearGradient id="_ŃŚÁŻž_ŪŪŻť_ūŗšŤŚŪÚ_8" data-name="ŃŚÁŻžˇŪŪŻť „ūŗšŤŚŪÚ 8" x1="57.25" y1="60.88" x2="81.54" y2="100.28" gradientTransform="translate(-4.82 6.17) rotate(.32)" gradientUnits="userSpaceOnUse">
      <stop offset="0" stop-color="#ffb230"/>
      <stop offset="1" stop-color="#f07134"/>
    </linearGradient>
    <linearGradient id="_ŃŚÁŻž_ŪŪŻť_ūŗšŤŚŪÚ_116-3" data-name="ŃŚÁŻžˇŪŪŻť „ūŗšŤŚŪÚ 116" x1="34.65" y1="40.48" x2="57.64" y2="45.27" xlink:href="#_ŃŚÁŻž_ŪŪŻť_ūŗšŤŚŪÚ_116"/>
    <linearGradient id="_ŃŚÁŻž_ŪŪŻť_ūŗšŤŚŪÚ_13" data-name="ŃŚÁŻžˇŪŪŻť „ūŗšŤŚŪÚ 13" x1="80.5" y1="10.79" x2="63.8" y2="34.28" gradientTransform="translate(-4.82 6.17) rotate(.32)" gradientUnits="userSpaceOnUse">
      <stop offset="0" stop-color="#ffc21a"/>
      <stop offset="1" stop-color="#000"/>
    </linearGradient>
    <linearGradient id="_ŃŚÁŻž_ŪŪŻť_ūŗšŤŚŪÚ_13-2" data-name="ŃŚÁŻžˇŪŪŻť „ūŗšŤŚŪÚ 13" x1="36.93" y1="-5.98" x2="46.37" y2="18.19" xlink:href="#_ŃŚÁŻž_ŪŪŻť_ūŗšŤŚŪÚ_13"/>
    <linearGradient id="_ŃŚÁŻž_ŪŪŻť_ūŗšŤŚŪÚ_13-3" data-name="ŃŚÁŻžˇŪŪŻť „ūŗšŤŚŪÚ 13" x1="144.77" y1="-28.48" x2="138.92" y2="-53.18" gradientTransform="translate(-86.3 99.72) rotate(5.51)" xlink:href="#_ŃŚÁŻž_ŪŪŻť_ūŗšŤŚŪÚ_13"/>
    <linearGradient id="_ŃŚÁŻž_ŪŪŻť_ūŗšŤŚŪÚ_13-4" data-name="ŃŚÁŻžˇŪŪŻť „ūŗšŤŚŪÚ 13" x1="30.53" y1="70.84" x2="26.01" y2="39.84" xlink:href="#_ŃŚÁŻž_ŪŪŻť_ūŗšŤŚŪÚ_13"/>
    <linearGradient id="_ŃŚÁŻž_ŪŪŻť_ūŗšŤŚŪÚ_2-4" data-name="ŃŚÁŻžˇŪŪŻť „ūŗšŤŚŪÚ 2" x1="86.13" y1="63.71" x2="67.3" y2="50.13" xlink:href="#_ŃŚÁŻž_ŪŪŻť_ūŗšŤŚŪÚ_2"/>
  </defs>
  <g class="cls-14">
    <g id="Ebene_2" data-name="Ebene 2">
      <g id="factory_milk" data-name="factory milk">
        <g>
          <path class="cls-2" d="M84.44,35.76l-5.41,4.77h0s-12.43,10.98-12.43,10.98l.02.1.04.2,3.12,15.44,2.53,12.53-5.46,2.33-.05-.03c-.08-.07-.29-.23-.59-.46-.04-.03-.07-.05-.1-.09-2.41-1.86-10.01-7.72-14.15-10.3-1.22-.76-2.15-1.24-2.58-1.27-.03,0-.04,0-.08,0-.33-.02-.92.11-1.71.32-1.44.36-3.5,1-5.75,1.76-3.09,1.02-6.54,2.24-9.24,3.21-1.56.57-2.87,1.05-3.71,1.35-.37.15-.72.27-1.05.38l-.78.03-14.96.35-1.04.02v-.04s4.62-12.5,4.62-12.5l7-19.04.33-.89,3.8-10.32,3.05-8.29.25-.67.32-.88,5.9-16.02,3.22-8.75,11.88,10.66,3.97,8,3.29,6.64,1.36,2.75.28.56,4.5.07,11.5.18,3.11.04,5.02,6.86Z"/>
          <path class="cls-7" d="M51.95,71.23c-1.22-.75-2.14-1.24-2.58-1.27-.02,0-.05,0-.08,0-.29,0-.87.13-1.67.35-1.39.38-3.45,1.03-5.77,1.8-4.29,1.42-9.47,3.25-12.98,4.5-.37.14-.72.26-1.05.38-.23.08-.45.16-.66.24-.03-.07-.07-.14-.12-.21-1.19-2.02-4.75-2.2-14.97.36-.45.11-.92.23-1.4.35l.36-.36h0s9.36-9.02,9.36-9.02l4.25-4.09s14-4.02,22.58,1.65c1.55,1.02,2.94,2.37,4.04,4.12.26.42.49.82.66,1.2Z"/>
          <path class="cls-12" d="M60.03,28.04l-11.93-2.66-5.78-18.16c8.98,13.11,12.07,12.68,13.06,11.44l4.65,9.38Z"/>
          <path class="cls-10" d="M79.03,40.53h0s-12.43,10.98-12.43,10.98l.02.1.04.2,3.12,15.44,2.53,12.53s-2.22-6.07-4.85-6.93c-1.5-.49-1.66,2.61-1.53,5.37.05,1.39.2,2.7.28,3.4v.1c.03.19.05.33.06.38-.01-.06-.05-.2-.11-.41h0c-.02-.06-.03-.1-.04-.16-.77-2.77-3.98-14.26-6.46-23.46-1.83-6.77-3.29-12.37-3.19-12.69.2-.64,7.57-4.16,10.28-5.43.35-.16.62-.29.8-.37,0,0,0,0,0,0,.13-.05.18-.09.18-.09.26-.22.51-.43.75-.64.22-.17.46-.37.71-.58,1.02-.82,1.94-1.46,2.77-1.97,6.54-3.97,7.5,1.04,7.07,4.23Z"/>
          <path class="cls-16" d="M71.96,36.3l-12.91,12.81.49,2.09s.01.06.02.08l.94,3.99,5.42,22.94.92,3.9-.04-.03-.59-.36-.06-.03h0s-18.52-11.38-18.52-11.38l-.05-.03-9.8-6.02-7.16,3.51h0s-19.56,9.62-19.56,9.62v-.03s0,0,0,0l3.52-20.55,1.73-10.08L0,28.97l7.88-2.02,1.02-.27,15.12-3.87,8.11-11.94L39.53,0l3.24,7.87,6.52,15.8,9.38,1.63,1.21.21,12.6,2.18s.02,0,.02,0l6.92,1.2-7.46,7.41Z"/>
          <path class="cls-13" d="M22.09,27.25c-18.74,1.66,7.62,38.54,23.97,37.24,16.7-1.33,14.78-29.7.22-36.33-13.9-6.32-24.19-.91-24.19-.91Z"/>
          <path class="cls-9" d="M32.13,23.93c6.46-2.55,13.4,1.12,16.66,7.91,3.34,6.95,2.58,16.65-2.69,22.55-6.7,7.5-17.55,6.01-22.24-5-4.53-10.63.17-22.25,8.27-25.46Z"/>
          <path class="cls-1" d="M32.09,24.61c5.88-2.33,12.19,1.02,15.13,7.2,3.01,6.3,1.96,16.23-2.84,21.59-6.08,6.79-15.91,5.46-20.18-4.53-4.13-9.68.51-21.35,7.89-24.26Z"/>
          <path class="cls-8" d="M34.75,45.51c.48,29.62,21.33.55,12.75-3.96-9.22-4.84-12.75,3.96-12.75,3.96Z"/>
          <path class="cls-6" d="M59.22,25.3c11.02,3.14,7.12,14.52,7.54,14.74.42.22,10.75-8.73,10.47-10.48-.28-1.74-18.01-4.26-18.01-4.26Z"/>
          <path class="cls-3" d="M29.65,14.43c7.96-14.7,17.46,4.41,17.46,4.41L39.53,0l-9.88,14.43Z"/>
          <path class="cls-15" d="M28.74,26.99c.76,14.27,12.89-2.47,7.6-3.17-5.23-.7-7.6,3.17-7.6,3.17Z"/>
          <path class="cls-5" d="M54.31,72.5c-5.71-7.35,4.12-10.19,7.3-6.67,3.23,3.58,4.69,13.38.32,11.64-4.32-1.73-7.62-4.97-7.62-4.97Z"/>
          <path class="cls-4" d="M16.41,55.01c1.55-6.18,15.09,4.04,16.75,7.42,1.68,3.42-16.72,13.65-18.34,9.82-1.6-3.76,1.59-17.24,1.59-17.24Z"/>
          <path class="cls-11" d="M69.77,67.25c-.4.92-1.1,1.41-2.21,1.21-5.61-1.04-7.98-18.94-7.98-18.94,3.51.39,5.71,1.3,7.03,2.09l.04.2,3.12,15.44Z"/>
          <path class="cls-15" d="M34.34,57.5c-.54-10.38,3.1-.1,3.1-.1l-1.62.27-1.48-.17Z"/>
        </g>
      </g>
    </g>
  </g>
</svg>