<?xml version="1.0" encoding="UTF-8"?>
<svg xmlns="http://www.w3.org/2000/svg" xmlns:xlink="http://www.w3.org/1999/xlink" viewBox="0 0 76.34 65.84">
  <defs>
    <style>
      .cls-1 {
        fill: url(#_ЕғЕҡГҒЕ»Еҫ_ЕӘЕӘЕ»ЕҘ_Е«Е—ЕЎЕӨЕҡЕӘГҡ_103-2);
      }

      .cls-1, .cls-2, .cls-3, .cls-4 {
        mix-blend-mode: multiply;
      }

      .cls-5 {
        fill: url(#_ЕғЕҡГҒЕ»Еҫ_ЕӘЕӘЕ»ЕҘ_Е«Е—ЕЎЕӨЕҡЕӘГҡ_32);
      }

      .cls-5, .cls-6 {
        mix-blend-mode: color-dodge;
        opacity: .7;
      }

      .cls-7 {
        fill: url(#Gradient_7);
      }

      .cls-7, .cls-8, .cls-9, .cls-10, .cls-11 {
        mix-blend-mode: screen;
      }

      .cls-7, .cls-9 {
        opacity: .98;
      }

      .cls-12 {
        isolation: isolate;
      }

      .cls-2 {
        fill: url(#Gradient_78-2);
      }

      .cls-8 {
        fill: url(#_ЕғЕҡГҒЕ»Еҫ_ЕӘЕӘЕ»ЕҘ_Е«Е—ЕЎЕӨЕҡЕӘГҡ_94);
      }

      .cls-8, .cls-10, .cls-11 {
        opacity: .76;
      }

      .cls-13 {
        fill: #fff;
      }

      .cls-3 {
        fill: url(#_ЕғЕҡГҒЕ»Еҫ_ЕӘЕӘЕ»ЕҘ_Е«Е—ЕЎЕӨЕҡЕӘГҡ_103);
      }

      .cls-4 {
        fill: url(#Gradient_78);
      }

      .cls-6 {
        fill: url(#_ЕғЕҡГҒЕ»Еҫ_ЕӘЕӘЕ»ЕҘ_Е«Е—ЕЎЕӨЕҡЕӘГҡ_32-2);
      }

      .cls-9 {
        fill: url(#Gradient_7-4);
      }

      .cls-10 {
        fill: url(#Gradient_7-2);
      }

      .cls-11 {
        fill: url(#Gradient_7-3);
      }

      .cls-14 {
        fill: url(#_ЕғЕҡГҒЕ»Еҫ_ЕӘЕӘЕ»ЕҘ_Е«Е—ЕЎЕӨЕҡЕӘГҡ_194);
      }
    </style>
    <radialGradient id="_ЕғЕҡГҒЕ»Еҫ_ЕӘЕӘЕ»ЕҘ_Е«Е—ЕЎЕӨЕҡЕӘГҡ_194" data-name="ЕғЕҡГҒЕ»ЕҫЛҮЕӘЕӘЕ»ЕҘ вҖһЕ«Е—ЕЎЕӨЕҡЕӘГҡ 194" cx="36.99" cy="20.46" fx="36.99" fy="20.46" r="52.47" gradientUnits="userSpaceOnUse">
      <stop offset=".07" stop-color="#e90022"/>
      <stop offset="1" stop-color="#a7001d"/>
    </radialGradient>
    <linearGradient id="Gradient_7" data-name="Gradient 7" x1="20.91" y1="41.28" x2="74.9" y2="41.28" gradientUnits="userSpaceOnUse">
      <stop offset="0" stop-color="#000"/>
      <stop offset=".46" stop-color="#3a2354"/>
      <stop offset="1" stop-color="#844fbd"/>
    </linearGradient>
    <linearGradient id="Gradient_78" data-name="Gradient 78" x1="23.03" y1="-1.88" x2="28.68" y2="19.73" gradientUnits="userSpaceOnUse">
      <stop offset="0" stop-color="#ffdbea"/>
      <stop offset=".1" stop-color="#fbcfe2"/>
      <stop offset=".27" stop-color="#f1b0cd"/>
      <stop offset=".51" stop-color="#e27eac"/>
      <stop offset=".79" stop-color="#cc397f"/>
      <stop offset="1" stop-color="#bb005a"/>
    </linearGradient>
    <radialGradient id="_ЕғЕҡГҒЕ»Еҫ_ЕӘЕӘЕ»ЕҘ_Е«Е—ЕЎЕӨЕҡЕӘГҡ_32" data-name="ЕғЕҡГҒЕ»ЕҫЛҮЕӘЕӘЕ»ЕҘ вҖһЕ«Е—ЕЎЕӨЕҡЕӘГҡ 32" cx="1.92" cy="-10.71" fx="1.92" fy="-10.71" r="36.51" gradientUnits="userSpaceOnUse">
      <stop offset="0" stop-color="#f8005a"/>
      <stop offset=".28" stop-color="#a2003b"/>
      <stop offset=".54" stop-color="#5c0021"/>
      <stop offset=".75" stop-color="#2a000f"/>
      <stop offset=".9" stop-color="#0b0004"/>
      <stop offset=".99" stop-color="#000"/>
    </radialGradient>
    <radialGradient id="_ЕғЕҡГҒЕ»Еҫ_ЕӘЕӘЕ»ЕҘ_Е«Е—ЕЎЕӨЕҡЕӘГҡ_32-2" data-name="ЕғЕҡГҒЕ»ЕҫЛҮЕӘЕӘЕ»ЕҘ вҖһЕ«Е—ЕЎЕӨЕҡЕӘГҡ 32" cx="44.96" cy="-4.87" fx="44.96" fy="-4.87" r="38.42" xlink:href="#_ЕғЕҡГҒЕ»Еҫ_ЕӘЕӘЕ»ЕҘ_Е«Е—ЕЎЕӨЕҡЕӘГҡ_32"/>
    <linearGradient id="Gradient_7-2" data-name="Gradient 7" x1="25.63" y1="28.47" x2="11.11" y2="42.12" xlink:href="#Gradient_7"/>
    <linearGradient id="_ЕғЕҡГҒЕ»Еҫ_ЕӘЕӘЕ»ЕҘ_Е«Е—ЕЎЕӨЕҡЕӘГҡ_103" data-name="ЕғЕҡГҒЕ»ЕҫЛҮЕӘЕӘЕ»ЕҘ вҖһЕ«Е—ЕЎЕӨЕҡЕӘГҡ 103" x1="36.81" y1="18.98" x2="49.08" y2="62.82" gradientUnits="userSpaceOnUse">
      <stop offset="0" stop-color="#fff"/>
      <stop offset=".98" stop-color="#d10038"/>
    </linearGradient>
    <linearGradient id="Gradient_78-2" data-name="Gradient 78" x1="19.66" y1="20.1" x2="33.06" y2="14.92" xlink:href="#Gradient_78"/>
    <linearGradient id="_ЕғЕҡГҒЕ»Еҫ_ЕӘЕӘЕ»ЕҘ_Е«Е—ЕЎЕӨЕҡЕӘГҡ_103-2" data-name="ЕғЕҡГҒЕ»ЕҫЛҮЕӘЕӘЕ»ЕҘ вҖһЕ«Е—ЕЎЕӨЕҡЕӘГҡ 103" x1="-106.32" y1="191.23" x2="-55.82" y2="171.69" gradientTransform="translate(103.51 -142.14) rotate(-7.59)" xlink:href="#_ЕғЕҡГҒЕ»Еҫ_ЕӘЕӘЕ»ЕҘ_Е«Е—ЕЎЕӨЕҡЕӘГҡ_103"/>
    <linearGradient id="Gradient_7-3" data-name="Gradient 7" x1="65.75" y1="16.99" x2="80.17" y2="6.85" xlink:href="#Gradient_7"/>
    <linearGradient id="Gradient_7-4" data-name="Gradient 7" x1="-262.85" y1="313.08" x2="-269.79" y2="330.05" gradientTransform="translate(197.15 -331.03) rotate(-16.55)" xlink:href="#Gradient_7"/>
    <linearGradient id="_ЕғЕҡГҒЕ»Еҫ_ЕӘЕӘЕ»ЕҘ_Е«Е—ЕЎЕӨЕҡЕӘГҡ_94" data-name="ЕғЕҡГҒЕ»ЕҫЛҮЕӘЕӘЕ»ЕҘ вҖһЕ«Е—ЕЎЕӨЕҡЕӘГҡ 94" x1="14.87" y1="31.95" x2="8.59" y2="33.74" gradientUnits="userSpaceOnUse">
      <stop offset="0" stop-color="#000"/>
      <stop offset=".39" stop-color="#542112"/>
      <stop offset="1" stop-color="#e25931"/>
    </linearGradient>
  </defs>
  <g class="cls-12">
    <g id="Ebene_2" data-name="Ebene 2">
      <g id="factory_milk" data-name="factory milk">
        <g>
          <path class="cls-14" d="M53.64,57s-9.06,8.95-18.76,8.83c-9.86-.12-52.27-40.75-26.91-62.25,7.96-6.75,13.65-1.7,17.97,4.23,3.48,4.78,6.09,10.16,8.2,10.37.58.06,1.27-.36,2.08-1.11h0c5.75-5.32,17.12-26.84,34.3-11.85,19.23,16.77-15.14,52.14-16.88,51.78Z"/>
          <path class="cls-7" d="M20.91,53.04c20.73,14.36,44.19-2.13,42.44-14.9-1.73-12.67,8.58-23.15,11.15-18.95,2.56,4.2-7.74,29.61-22.06,38.42-14.81,9.11-19.34,6.81-23.48,5.35-4.16-1.47-8.06-9.91-8.06-9.91Z"/>
          <path class="cls-4" d="M36.21,17.07c-2.94,3.16-6.2,5.59-8.71,4.69-5.81-2.07-18.18-21.9-1.57-13.96,3.48,4.78,6.09,10.16,8.2,10.37.58.06,1.27-.36,2.08-1.11Z"/>
          <path class="cls-5" d="M15.67,2.78C15.36,31.61.96,22.62,1.37,16.22c.41-6.36,3.96-11.81,8.43-13.73,4.43-1.91,5.87.3,5.87.3Z"/>
          <path class="cls-6" d="M49.19,3.98c-18.67,15.79-8.25,20.3-.33,18.93,7.8-1.35,20.07-11.39,17.91-16.89-2.16-5.49-13.38-5.59-17.58-2.04Z"/>
          <path class="cls-10" d="M.87,18.83c.06.2.12.41.18.61,13.77,46.12,42.34,31.29,51.82,16.69,9.24-14.22-4.13-13.89-17.22-4.63-13.52,9.56-21.56,8.26-27.18,1.09-5.64-7.2-.07-14.56-3.11-16.95-3.05-2.4-4.49,3.18-4.49,3.18Z"/>
          <path class="cls-13" d="M48.43,5.63c-4.23,5,11.13.34,9.53-2.47-1.6-2.81-5.35-2.47-9.53,2.47Z"/>
          <path class="cls-13" d="M7,5.06c-.19,5.57,5.19-.44,4.14-1.54-1.06-1.1-4.14,1.54-4.14,1.54Z"/>
          <path class="cls-3" d="M33.89,60.49c-21.26-10.77,5.83-34.83,17.27-33.51,11.23,1.3,16.12,18.59,3.91,27.99-12.6,9.7-15.84,8.22-21.18,5.51Z"/>
          <path class="cls-2" d="M29.51,14.32c-8.86-5.3-3.87,7.74-.07,6.68,3.77-1.05.07-6.68.07-6.68Z"/>
          <path class="cls-1" d="M52.01,38.35c-16.86,8.66-6.01,20.37,3.58,12.63,9.36-7.55,6.26-17.68-3.58-12.63Z"/>
          <path class="cls-11" d="M70.08,8.97c-2.4,7.83,4.41,7.77,4.88,6.38.47-1.38-1.11-6.35-2.05-7.08-.94-.74-2.83.7-2.83.7Z"/>
          <path class="cls-9" d="M29.71,62.19c2.31-3.7,7.15,1.9,5.07,2.49-2.09.59-5.07-2.49-5.07-2.49Z"/>
          <path class="cls-8" d="M4.69,28.97c7.72,3.03,7.68,11.35,4.87,10.04-2.81-1.31-4.87-10.04-4.87-10.04Z"/>
        </g>
      </g>
    </g>
  </g>
</svg>